<mxfile host="app.diagrams.net" modified="2024-02-05T19:42:35.066Z" agent="Mozilla/5.0 (Windows NT 10.0; Win64; x64) AppleWebKit/537.36 (KHTML, like Gecko) Chrome/121.0.0.0 Safari/537.36" etag="UC9rcyE7LeZBjoomLuO1" version="23.1.1" type="device">
  <diagram name="Pagina-1" id="bsCfIDEgioWC9dEukl5g">
    <mxGraphModel dx="2927" dy="1250" grid="1" gridSize="10" guides="1" tooltips="1" connect="1" arrows="1" fold="1" page="1" pageScale="1" pageWidth="827" pageHeight="1169" math="0" shadow="0">
      <root>
        <mxCell id="0" />
        <mxCell id="1" parent="0" />
        <mxCell id="PwznVGh7WyznaAtkqByY-1" value="" style="rounded=1;whiteSpace=wrap;html=1;arcSize=3;fillColor=#D0E9ED;strokeColor=#C3DADE;" parent="1" vertex="1">
          <mxGeometry x="-398" y="650" width="948" height="620" as="geometry" />
        </mxCell>
        <mxCell id="af0LZ02g_DfYxjsQCie--2" value="" style="rounded=1;whiteSpace=wrap;html=1;arcSize=3;fillColor=#D0E9ED;strokeColor=#C3DADE;" parent="1" vertex="1">
          <mxGeometry x="209" y="10" width="222" height="524" as="geometry" />
        </mxCell>
        <mxCell id="af0LZ02g_DfYxjsQCie--4" value="" style="rounded=1;whiteSpace=wrap;html=1;arcSize=5;fillColor=#FFF2CC;strokeColor=#d79b00;" parent="1" vertex="1">
          <mxGeometry x="280" y="42" width="126" height="477" as="geometry" />
        </mxCell>
        <mxCell id="af0LZ02g_DfYxjsQCie--1" value="" style="shape=image;verticalLabelPosition=bottom;labelBackgroundColor=default;verticalAlign=top;aspect=fixed;imageAspect=0;image=data:image/png,iVBORw0KGgoAAAANSUhEUgAAAJ4AAACNCAYAAABGx8NOAAAAAXNSR0ICQMB9xQAAAAlwSFlzAAAXEgAAFxIBZ5/SUgAAABl0RVh0U29mdHdhcmUATWljcm9zb2Z0IE9mZmljZX/tNXEAABqnSURBVHja7Z13eJRV2sbzgYQOhhZaJCIQjPRQhNCEAAECBEIMIZmUyZT0MqGDCkgLTQFFkC5IR9rSi4soIqigcom6LCCK4mIDXXFll/Od5+U+4WWYSSZkanL+uC8vSSbJzPm9TzvPeY7XlClTvKSknC35IUhJ8ErVB+/l9X8kCZ6UU0AjpWq1jXMNhhSTPnlHrjH55dIIoYTCCaBxlcnVGtrlGo1TTIbksxw2phb/+iP0PaUJPgmJA2HL0RmG5RiMS00Gw2U1aGN1eraqX6gavApc5UoTfBIYO8JmiDTUyNHptNlG40aTMfmWGrbJmji2secz7DP/x9ntsmUZp00NXnWuiqXJ8kl4igdbmUytNpBbNlOO3njS3IXmRY1gezp1Yldr1lJAM5cKvLpc1bjKc5WV4ElZdKGZBkMXky55Qa7B+IU5bMsGDGTHWrZiP1WtahE2K+A15qqlsnoSPAkcd6EhIZVytIaRJr1+DU8QflGDNilRy9aGhLAzTzRhf3iXLxQ2K+AFwupVFrGeBK90Q1fGZDTOMrdq00fGsJ1dgtl5P78igWYNvE4dOsTx3+UHd+tdGtythMw6dLT43jkGwyfmSQJBd6F+/WJBpwYvNmI4M8TEsrT4+CuZSbpjPAvO40lKf0pW1G5eglfCE4bIkJAqyZqEyLTExLmpsYkfZ3B3mqnVMZOZ5SM3S5nqw7hZNXijdZlMz8Gj35OtNzCTwZj/NZNeqfu9TK6+JIEogTOru1EpJMtgvJWt0ysgpMTFM130SDbOmMPmj8ljiyctYHmjprKJaTnMUmJxIjDQpsRCDd7pN06zr//2Nbu85xI7v/0cO7xsH1s2bREbm5rxwO+g3Q4q2VDc6ckQlnrYaEfhbpHXeE1ZWG5tcrjVmWaayDbOXcuOvn6InV1/hr2/6n128NWDbMe8HWzDjA1s1Qur2KKxC9j0rClsfEr2A4DMGx5ZYCnFEng3jt1g/3n/P+x/p/7H2IdM0eW9F9mR5fsVEO8D0Jh8ix4SsoSi9udJAJZq62Zee5s19gW2f+ku9u3+K+zf7/6bXT98nV3adYl9suETdnz5cbZv4T62dfZWtu7FdWz5c8vZ4nGL2cu5L7O52XPZzMwZ7IXUiWxcMlnCFGYeF27t1l0pHhcVPLX+eO8PdmLtMbbwubz7ITQYLlMtUW0FJXhuB5xOq66/Tc4ew3a+soVdPfCNsrh3Tt9htz+4rSzyz0d/Zt/s/YZ9vuVzduqNU+zokqNsz4I9+fCteH4Fe238a2zh6IVsvmk+m5M1h83KmMVmpHEIUyax8cZcNsqYyixtl50KCCgyeGr99PaP7MDru9n0URNVABqvmXS6qZpITU133wEpTRbOJNypUhLhC0bW4/YHf923oATef0/9VwHgt3d+U6weQfHFti/Yx29+zE6sPKEAuHfhXvbWnLcUt7tmyhq2bNIyxQJagnBKygtsYvJoNjr5wZjtYcFT69T6E2zehOmqn5nyKwHIk6TK7gpgiQcuU6vtre4IITf12dazVheRwKOFJ6v354k/Ffh+OvoT+/7A9+zy7svsy7e+ZJ9t+kyB5d0V77Ijrx1RINw+dzvbNHMTe2PqG/mWcNGYRewl00uKK87LzGMz02eyF9OmsslpE9mk1FHK3zM+LYt9uPbDYoEnRImJOhakBy1Hq4sRdUF3ArDEFn4NGk3DHKNxU/6+6djJysLYsoACPmH5yO3efOem4nr/dehf7Oq+qwqEX731FTu3+Rz7aN1HiiV8e+nbbP+i/Wzn/J1s86zNijte+fxKtnTCUvbKmFeUeJCsIcH46thX2dqpa5W4kSzplT1XlN9RHPCEKGxQx4EmnfFYpsYQ5E5JSIkDjp5u7lYn5hqS/1RqbZkmdmzVkSIvHsGntn5/nfxLsYCUdJAV/OXtXxQ3TJaQrNWFHReUWPAMz4BPrj7Jjr1+TMmCd7+0W4kJ109fz1ZPXq0kJeSWKSvekrdFsZiUvHy791vl59LvKS54Qmc2nVZiWAFgjsEw213cb4mzcia9/gPxQW99eT27efxGsRZPDSBZQDWEZAkJll///iv78ciP7NrBa0oy8s+d/2Tnt55XgKKkhDLiw4sPK4kJlWO2zd6muGaydmQpKX6k1/5+/He7gkeiGHbPa9vv1QR5YpWq0bRwtfUrKbFc2cwEXSwF1SJTpfqXvRbPEoQCRAKF3OOtE7cUcChOo5jwh4M/KFaMyjEiLqRYjuqBBCKJLCP9O7lteg39DAKbfoe9//YfDn9/z/1yb5CpM+Qi9nOJ9fN4K6cJ09TK0RveEFZu1cwliiWy98JZg9DcGgoIySWr48Lv9n+X75LJwpFFpBiR/o2+TpZTxHeOAE9t/e7tghgP0OfnCvg83bX6iU18ciUPE8s5EkJLLpksG4FGFpH+S2DS1+j76HWOgs48+xWxHxWf4Xqd2hHjqdCVNURHtxRnGagmJwrArlZBEKqtIbll+i/9P/07fY8jrZ2lXZDFk+fn1/3StdoQZ5ZdPDKeS9Vqu4l4jgqnxU0gnAGiOi4kyITo/8XXnAWd2vWunb38Xtyn1eqcde7D00olj6QmJAwSpRKK58x3HtxZamtoSa76u9RxX7ZON80Z8HkUdMnx8YP5h6NAR/urngKcJ4i2D50Jn2dBB0tHbUISFvuL9nwFfOla3WhHnvX1DPcarenIP4wb9IFQR4aExFnwaQ2Ogs9DoLubSNBOhITDufAZ4uOHOAI+t4ZOExnZKNdgvEIfwMZ5ayQUThR5FpHtGqI1newd87ltnS4kKKh6dpL+OL15qjdJGJwvSuCww/F1WEiYrz3hc0voaJRDVlLSq6I47IwtMCnLEkVmMgIYLlS2RIGncrHeqZqEBLEN5ojNfqmi7XCI9vrMpKT59prv4m7QldMMHdpWlE0oyJWL73rRwz8mNf0OrUmyJmEEph0Uy+W6VTJBQ2uy9cZPZQbrvplujt7wQ0hwSL3iZrpuFdelJmjHiX46T9oKKy0S5zkytbqVxZ1s5TZxXVhISBOTwai42IIO40i5TnSkUnQy62JiBhQn3nM1eMLFVsrS6o+IjX+5yO4r2q6Ey/0qKDCw5sO6XHdwsRV0MZoYkcW6c4uT1N1WKnGGNzUxMe9hXa6rrR1lR1Wy9IZz9EZc1UEsVfQsF+d2/+QhUlO43CJZPVdaOyWL1UXHxMqEwvNEIRGtW0Zi4pKHmWTq0oSCJmBKa+eZoqMGwuqF9uzZrKi7Gq60dpW0UTFxYltMWjvPtXrpidqlFDIVxeq50tpVz4C1k+WTEmH1Aopi9Vxm7TQREeFipolcRM+3esmxcdOLYvVsPdllD5UROxRk7dITtJvpD6axq4UdgimOJByOFXmru+c09Bf4uvrYavUKdImWRu17ijbMXe2SI4OlUeJweOTgwQNttXoFbtp7KnRC4tyqhM+xEscjUzUJ6zg3j9qylWa1PYlqbGIBPe2DEH83ndSnU/oSPseK9nCRZNxoXK8eXRRTqbDdDGvtSfRCH08Hj+aUEHxi9JeEz3ESnSuaiMgk1Q1FVnczLLYn4RrLBp4OHo0JowGKzhyIU1pFGwD0mafExb3J2alRWJJhsdSBmwSbeDp4/9j+D2UiE1k9R82dk7q/psez2285O77YRnvEWpJhvmlfDlkJdZg+5eng0dBDmktn7xGvUgVntz2CgzvDa3rbCh59Y1WuhlxtPB08mkdMo2HtNdRaqmDR2Wf63BOiop4rzN1aAq8arrAM8nTwaPQrTVMv7hh/KdskzmWkJWgPm7lbm8F7jKu9p4NX3ItLpIommrOMOO86Jafq7FaCJwFxqMSZjGaNm7XCFprFJlEJnpRdJdriQ3v0HIzqSEVLcZ4ET8quEqNto8MGjyoozpPgSdlV4hRaUnT0CsR5VS01DUjwpOwq0SaVokl4GxxZrOdJ8KQcktmmxid+xBlqrEow7ovzJHhSdpXoVMlM0l3mDNHRx5qWCskSPCmHgJeVpPueM9Scq7alNikJnpRdRacFFfB0+p84Q4HWMlsJnpTDPn/OUEs0nFSR4EkwnAlea676qnMYEjwpp4DXxlotT4In5Ujw2qHFToInwXCsaFi30qGiN/xOrXVosXugS0WCJ+WYcopWd02CJ8GT4EnwSrYu7P7y7iwVjeZTCZ4Ez2kSTQJGjeZDJBd+SC4keFKOkzhfGx8ZuZ0z1FZmtRI8p4guxqHPflj//otkHU+C5zQtfC5P+ew7d+iQxRlqJXcuJHhOkTjU7VvTly5YbsFVVzYJSPAcqvzisU7/b87PM1xPojtFtkVJQJyQ0cZoznF+unEFoB+vomwElYA4TOJG7xGDBm3k/HTheqJYHcieKgmecyXO1Aa1aEWJRUcuf9WE0DK2gheUGpdw3lOhm5RuUmanSPCcI7FVhviuv6p4XM3WU2ZV8YJ2+AFxXJlco7nGc020UZO4aGoQ/fCZXAu4VjTx9z/XtUNHlhCuYdNSp9lNM9JmsNmZs9mCUQvYmilr2N6Fe9lH6z5ShvbIaVGOlxjYox0xknYs+ph1H5cr7EC3mI/XADWYEC66CtwI+Exco2wUgToGsD7PNYvrlRo1auzp8XRnNqh3KJuTNcdumpczT4FuyYQlbMOMDezQ4kPs7PqzylRQAk/Ox3OsxASB8ND+q/k698BBnzrW5iGbTwQth5qLL14YzDWIayRXIpeOy1AEEbCpXNkAcAbB17Nzlz/6dO/O8rJmsaUTltpFyyYtYyufX8nenPYm2zV/Fzu+/Dj7fMvn7NrBa+z3479L8BxcRhHDehr7+xuRWDSxllhYG0VbAUP1/NEzT2lxKAAM5xpWBEVwPcsVA2jJYk5t36rV6cF9+7FxulFs2+xtdtH2udsV4PYt3MeOvX5MGcp4adcl9uORH5UPRo6idZxOrD1299bu6BjqSKG7LtpzNVInFrZMfRdxHpnJx2kkLdpbOnF1Bs22Khjg9uIKg+VMq1e79oLo8HCWEDmCvbPsGHtv5XvF1omVJ9jJ1SeVhOLc5nPs4q6LirVTx3cSPMdo8eT5Cni9u3Z/BfGd2Cqrau2yFWu3ZpfHi2rhBzQChE8UUWRum6ngpWr2cK7kZwcNvpIUPZLtXridXdhxwS4i2C7vvsyu7rvKrh++rmSzt07cktbOCdlslk7/R6UKFciwdC8svivogpVHAF8lAPgoZmDUeAjVQnbjjyehJ7nfXl26bEhLSGRzxk5T7qOwh34++rNyvQABR5Pe6ZoBgk5aO8fpwOu7744lCw8/yNd1MDxjY5tnIFuArywA9AaE5fGDiqpKKuvZCGWafj7VfIyZiUl/8SeFXdx9QbFMxRWBRiLXKq6TktA5TjQ14IXs0XcIvFbNAyfwde2LvKBhQWNoC7tET33rogDxYSSsZxWY3wDEfkOjwsIOmQxGtmL6YgUSe4hAE5I3ODpniywxKuoMQqhutrhZm+6rtfN1oY9iV4Q6U0Mb1KuXzi3ebeUWnv1X5HWhHqSbx2/kl1BaNGv+HLLZDsgFCr0+1FkXJJexUCOkIHT4iCHhh+mPpwt35YJ6nrVLiBpxFpsMvdB/V2A262zwRLZcAU+DP2o9A3kmlJSRpLtJb+Ly3otyUT3P2k3m6zgEpbYmqoHbtt3e6ATwHriySmS4A0P6KLd1U3cDBaxycd1b4jr4hMioT1Cb7aNKKqoXdnOj08CzYPVqIOXuCKunS41PuEZvhoY3y8V1X+VfBa833G7k5zcWu1nBqNcWmlS4Cjz1zkh9xARUVH62fevW8+gNkQmnoqRcZPcsn4gzFWF9+u2EteuL02SP2Xo7t1PBM7N6FbGBnG/1uOJjhg07SW+KLt2VC+2+CUWyJp6uBk1SWbsAWLvKtlg7V4FnbvVErDfcp5pPdiYSjTObTsvFdiNR4ieabAObNJvO1ysasV0b9G/abO2cDp6VWO9xZLjUdBr7zNNdVtKbm5iRc4dG18tFd72ou2f6qIkKdBEDBhzi65SAbqXOmOxeu7CLkV0OnoWm07qo63Wl3Qwy4SMGh79HbzJv7GSZ5bpRFmuIib1cyds7ja9RJGLzlmgarl4Ua+dK8NRWT+xmtBEdzxW8vTPoTdKbpc5Wufiuk2gCyEhMuulbu/Y49FaGwks9jli9oq2xnUvBs7CbURvFx05INOL8GjR4XsR7NAhGQuB8iZFjysmxli0Xogt9CBKK5vBWVWyp27kTeMLqiZNt9XEvQne4XG27li0X0Zsek5p+5/z2cxIGJ+rqgW+UOJs+/369etPkJz1cbC+0t4mEokJRXKzLwTNrt6+IrTThcnujZd4wqHefv0n4nCuqo4p2p5Hhw05R4y6y2H5wsY3hYkWxuIwngmfucp9Al0MoCpTJQ0JDD4jiMpl/CYdjoRMZbHxkJI2ioGRCgxDoaexQ+D6si3UL8Cy43KqIGwKQqofhTaeNDA8/Lcos5AYkJI4pm1Al4W6PXfQXPMkzoXQyBFWHQIRERc5i3Q48C2c9qiNFD0RjIb3peK6M2IiIM8qUgEyTtHwOsHRiBIV+ZMzXHLpcirNxWrCnKq7zUWexJQG8Mmbxnh/qRD2QbCTSh0FPooj55O6G/RIJEdMZ4uKuVqtSbRyOow5HvN0WrWwiriv3sC7WrcCzEO9Vwpv0R7LRC2d0aX8wU7hd2c1SfFG3CT3EyviJZ0d8yR/uUchgn8WWWBCSCbE74V1c6NwKPCvJRi0UKdviyRsO+LLCevfZK+DbOG+NhOghJAZl381eh36IiQ8EXRS6TtqjvlpHlUyULS50bgeehUaCKqpMNwg7G5HC8j0THLw5R29UzmzQ7F3ZTmV7EiFmnZCG9O17yAy6fugaaooMtmpxkwm3B89CpitOp6nhG47AN6NtixZLaDtHZLwy7it8N0L01FEzJz285EEQ06mha4YKQzV7Q+e24FmZauALsx8EtxuBLZz0OrVqTaH4RO16ZXPB/aLPY89r2/OtnFET993jfn5zMAUsCZ6kL2qo5tDZ3HXi8eBZga8OAt226I4YilILTaQy9ezSZQs9xaKzRe503LNyoj5HGtq//995EkGZazoe3uHwJO3hXgV0FR52Z8KjwbMCX20kHK2xr0tjE2IxEi2bP8VzDSNjrogPmbqZS2tfH50GU8dyGYna39q1br0CU7tSMHRzKKoG7RDO+JpbOntD5xHgWYn5xDiMFuiUGICznRSnZNBgyJDg4B1ZOv0t8aFT2zYF1aXFrVKZSRxBJC9AVq5alWrPI54zoL1pEB7e1niY65glEg6BzmPAswBfZXQvN8RdCp0Qn0Rgi0dxvfyDnjx8YNh7Aj4Kqqm/jCxBSQWOZtWJvVZSXETk5/Xr1s3jn0cu9l21qNGFYpRcCzzEtfBQ5ycSjoLOo8Azg08UmR/F3mFTuIqecL0xKA1Q4DzK389vfmJU1FdiMcgS0J1bJaX8QpacLJzIVkXy0Oapp5ZhJHAWQhENXGtvJBHN8fDWUBWHyzoSOI8Ez8L2WgXEI2KIZEs8xaHI0hIQy1CNagwtBFkA9XR4ioE8dd+XYlcKIUTf3N3h1yMudmwXtA7zp3Ng/RNRKhmA/e/WiOfq4uGtiIfZKdB5JHgW4BOTqGri6Q1AdvYMYpholAvSEFSPadboiUXRQ8I/VgNI1oIW0d0TEbLStOMgNvTVLhUWbizeZzpi3pFotOiN+tyT6HushXiugiOTiBIFngo+ddxXCZ0tvirr1xn7jeGqOczpAkAe+8yJHDT4FGV76kWk0gO5LneZ5UKb+ASbGPkqRMkT/f30IKmAy0DyoEFnST8kYK1g5eqhCaOSyrU6FTqPBs8G69cAsV8b9JL1w0LEqgDMQQw0vnVg4HJaRHUmLOJBKsk4E0QBGp3uohYw88tjYiIiPu0a1HETJumPUVk4PYAbjuOi3RD7BsAbqK1cOWckESUWPDP4hPWriNivNtxKABZATLBXAyiuQxgFqzGeYiSCMCUu/rqlW4PIzZH1oZ0AypIpRiQVJVmhhIBeQxeT0M8guMVdr+Yii0yuNKRbt508U5/K/8Zx+HuzEULo8H4iAFx3hBtPImOtA2/gUitX4sAzc71q61cZwbMvFqA5ABQWMBwxYCKyvgxYwXwI+UK/+HTbtm8O6z/whCFW870zrsNKS0j8hWLQHp07b/Nv2PBl/ndMAGyjVe40GaWRkchUQwFcEIDzR/Lgg8/hvoKwK6ErUeBZif3KqQD0UQEYgG23LtgqCoN7isViGuG6slH/Gi1AJAgIBu6aVwzo2ftgeGjoO9oR0ZdIBIwtYJE7F68hyxoWEnI0qEWLNc0DApZ43b2OazxAG4OHIAewpSBR0qAWNxgxbDAeqOZmwFVxB7daKsCz4n7LYQGqwALWgQtuiiSkI6xFXyxmJJKRBMRNKVj4bK9712oJGMcJICFb7nkT3ysAG6uCzITfk4kwwIiHQcAWDuvWE4Xz1tjUfwwPliXgyrgLcCUevAIAFBawOmLA+siCmyMR6QQI++Bk1VDUwGIBorhWKwXxVQYKtAJKE6xkrtf9d7uJfxPfk4PXZcK6Csh0cP0abANGoCzUD7B1hrUORMNEA7yPR/G+HgDO3aArFeBZAdD8Hg8fWMGGKghbIUDvggXvgwLsEK97V2VFA8g4wKKFK9TBUqrvddNDOnxPIjprNIjTovBzwwF8P9Qiu8Iit0Hs9gTOo/hix6Ea3kd5TwCu1IFnAUCRhAg3XBmLWAMQihuNmmDBW3ndu1orGIeQesE9hwKWQXDV4bCU5goHuIPw/f3x+t6AuyvOrraHCw1EOPA4HgpflIqqq6ybN96HW7pUCV7BWbD6Mhn1pTCPYqEFiI8Bgqawik8ByDYI7tvDOol738z1NL7eARC3xetbAO6mcJ+N4EJ9UXvzwUNhFTZPAa7Ug2cDhCIeFCBWgaXxAYy1AUZ9QOIHYPwBZ2Ov++91a4x/98f3PQYrVh9ZaB0VZNUBfmXUJMtbg83TgJPgFQyg+Y1GAkRvMxgrA8iqsEjVve7d+2bp7jcffL06vr8qXl8ZP08NWTkVaCUCNgle8UEUMAogBZTqe9/M735T/7u3Cq5yqp+lhqxEgSbBsx+IlqAs41Xw3W+Wvs/izyzxn6UEymlwlhqoJHhSbqv/BweZwbmF4PgUAAAAAElFTkSuQmCC;" parent="1" vertex="1">
          <mxGeometry x="303.78" y="83" width="78.44" height="70" as="geometry" />
        </mxCell>
        <mxCell id="af0LZ02g_DfYxjsQCie--15" value="ctxalarmdevice" style="text;html=1;strokeColor=none;fillColor=none;align=center;verticalAlign=middle;whiteSpace=wrap;rounded=0;fontSize=16;" parent="1" vertex="1">
          <mxGeometry x="312.72" y="39" width="60" height="30" as="geometry" />
        </mxCell>
        <mxCell id="af0LZ02g_DfYxjsQCie--19" value="AlarmDevice" style="text;html=1;strokeColor=none;fillColor=none;align=center;verticalAlign=middle;whiteSpace=wrap;rounded=0;" parent="1" vertex="1">
          <mxGeometry x="313" y="145" width="60" height="30" as="geometry" />
        </mxCell>
        <mxCell id="af0LZ02g_DfYxjsQCie--75" value="env" style="text;html=1;strokeColor=none;fillColor=none;align=center;verticalAlign=middle;whiteSpace=wrap;rounded=0;fontSize=16;" parent="1" vertex="1">
          <mxGeometry x="201" y="7" width="60" height="30" as="geometry" />
        </mxCell>
        <mxCell id="tFofecCMmtv1CYEzfzmN-1" value="" style="shape=image;verticalLabelPosition=bottom;labelBackgroundColor=default;verticalAlign=top;aspect=fixed;imageAspect=0;image=data:image/png,iVBORw0KGgoAAAANSUhEUgAAAE8AAABHCAYAAABGZxrrAAAAAXNSR0ICQMB9xQAAAARnQU1BAACxjwv8YQUAAAAJcEhZcwAAHYYAAB2GAV2iE4EAAAAZdEVYdFNvZnR3YXJlAE1pY3Jvc29mdCBPZmZpY2V/7TVxAAAO9klEQVR4Xu2cCXSU1dnH/5nJvk0yk8lk3yaBJIaQoAwVqigftdhqOXbhIBYQwX6lasv3WRX7oQWsy7F6PK21R0ylrVoUrGjFU7GiWD7XsCjIloQskH2SmWyzZZbM9zw374RsIyGZSTJ8/nPueSf3nXkn72/+997nPvdOgrZV6N34WuOSTDoGpBb2GbFMHSz9NvkKOOddbmvGx+UH8cmhQ4huaMD1q1ejbfZC6ezkato7b2VWLHJaT6PlrRex77GN+GDDf6H0kYexY9uz+GFlBWzB/c67PS9BHCdT09J5S6OdOHTkMN79tBzddTX4Rk0dFlSfwWX6VukZ/dpTVIT2/3kAty5fhrLKNql28jTt4NU+8xD07QakmkzY8M47UPb2SmdGau+cUvzzPxZj0by5yJ0xAx+HpUhnJkfyG++6Z7P0eEo1q60C1XtfQyU1xfhoFcISU/HW7ELUJSXSRyxDstGAIOm5HlUlJ0OvLYG8zYGTR77E4deeh/XkQWS4TFicm44zrhDpmf7RlDrvOxFWvL5rJ8o/+RjF2aUozdUhRZkOY1cnWowtMHQb0WTWo6OvBzZYkd7eigUnTqGkugZKcuY7RQWoXnUf1n5zBcIiCRR1fy2NTThY8SkOHNuHTkcnvvPdpTSgLJLe0beaEnjXug34S9mz6Gnrxg+uXoGFcxaLG3danGhqbxLF2GlEh6kDJrMZ1l4reh12mPqs6JHRYwIZ19OBWEM7FLobsILgxUbFQNZwCMjSiWuxTQ36Nrzx4S58QCAXL7keq9auQ1mVof+P8IEmFd7K9Cg8+chvYGww4Lbv/gxFBbMBF51wUumjh30u2Ow2mK1mUbrN3aJ0mbrQY+mhYoLNaoPNaUOv2wEHgSzJKMY1pYuhiI6FvOGweJ8BMUgypMvah93/+zLe/OhVrLh1DepnzpeeMDFNGjzNsf14fedO3LpkPa65kpzmoMqa8v6Tktzpc+Gmn76+PrhcLtiddvTae2GxWQS8bhOBNHeJI9eFh0ZAm5aD3PRcKKIUkDWS80ZTJkEMpbc0O/CH3Y+jylCJrY88jt2dE4vU/A5vTZYCD95/D6KcUdi0+hHhBJwZCs2bBEy3WzhSgKSR19JrgdliRo+1B+4+N1RxKmhUGkSGRSKo/qD0Si9iJxLEqjOn8PBLD2DZypVoyB+/C/0Kb2msE7+8az1uWbQWS665EdRVAWfHBm6I0nUCIv8wSKfTKWCyQ0NDQhEWGobgxiPSk8cgrQ59dje2/uU+RKVEQ/HD9dKJi5Pf4C10tWHrrzZi85rfIk87E6gcB7RRxG4UR/4hoEH8E0TlQq4bLnZhOLBt5+9Q3VmJ3J9dfMTmF3jze5vxxJYteOrOMsSrlGNuplOifB1ee/tl7D/9LxT/8nGpcmzy+dz2uhATHvv1A3j6F39GvHKag2OdLscPrr8ZiwquQ+UfHpQqxyafwlueFIpNd/8CT93xHGIUsUD1NAfnEQH8/pKbkZ9QhI5XnpEqLyyfwrt3w5347x9tglqjCRxwHhHAdcvugLnVhEQKq8Yin8Ez7y7DldqrMKeEOuKqAAPnkQXYuu4J7Nn1dyyWdUuV3uUTePNtzTh99DhWf/8n4hMMWHEYJQc2rXoUj/3m11Kld/kE3pOPPiTeEHapIpBF3U22VovCpMsQd3CvVDm6JgxPc/wAZmWUID07c8R0K2BFwfyGZffjjVd3YUVKhFQ5UhOCty5Pjb+/8hJuv/Gu/tnDpSJuvmE0Q/rmMvztr9ulypGaUJCsOXEAhuN63LacpjfU2V5QnEEZz/RsKsTJBLLWLVu+h20v7sCOppHuGAJvTXYcThw7Bpl8eM52FAXJUPbM73GTbjk0yiS4XJxX8i6eSs1IK0REODWDQAE4U4fndv0eCZdp0D5KQnUIvLRTH2Hf7reRmZwtJuBeRWx5ThkRGYFemqC7+r4anFwmx1l9LRbNXoIbFtwUOH0jzX9bDc3YvGMjSjc+IVboyqrapZMSPE9l9GdvQWlKwJLFN/p25AwF9u7fA0NXO265do2Y1F/0RH6qVKDDzx9diw0P3o99LoVU2a+BAWNlRgwsZisc5CTYqMLHha9rsVph66Vf/JLH8ZOoUenyF+Bw+Wfi18HrwwIe58UcDofI2nJ6xx/i69qdvVQc6OOce6CI4RV8A0c/P4K1uSqpsl8DznMTwD6Xf2+KPyS3O4DAsWrLMSOrEGcqT8Nut4uBz6Pz8KSjv+X2j7EnrnwKTbyJAoSYiFi0tjSPDm+y7mlasiNwP930U+8AKfDISc5FXW3NEJMNwPt/LRojb7/pdu8RBvU0aepM6Fv1onvzDBpfw2NR3Hn5rMu9x59kt7CQMFgsZrEk6tHX8Dy6QOAeGR4Fm9VyicOjKZVfRKGWy+lCH0ULnkHj0oJH4O5++G6/AHQ4KAaWycRC+6UJzwEsvWZp/1YOX4pCBKvdipCQkEt4tKV+62rd1b5PPBC8LlMnwiMiRo/zLhn5GhyLKDUbGhGnpOkZwfNMYS89eP4QUTqnr0WiJkn0e17hhVI8w9MR3sfhs0LXCw2m6waiMnXoNfaKVbWoqCjIBiVORD5vrVaJHpMJr7zwAhpOViM1MQMu98hkqHgZvVgWJIM8WA6nyymG7guJk6GN7fVIjc/GzdeuRkxU9MiNiNNVWh0+Pfoh9nz5Olat+09kpKcjPDxc5D8HnNdHwZ92Zj5i0tVodLShyc6l/XxxtKORjnWmRnzRdBI7392FijO1aGk2oqmRznstbWikEiNPgFYzk2B/RYZ6OioYOFz5KVLTMxEWFgYZNVtPNlnA4zYsl8uhSlAhS5uLjKxspGVmIz0z63zJoCLVJ6WkITJGAbPFhGx1HtJVdM5LSVNmI0OVjSx1LlSxCeLNg6ZtamUU0eB6uKpccAkLDRWcPBpIw9tsNrS3t0Ov18NqtYrc23AxZN5YyM+rqKhA+b8/wOZVj8Pcax4yhA8XN3O2emJ8ItTxaoSHhgdGGj5Hhy8rP0fZ+3/Ej2/7CfJyc6FQKPCnM/2bwgcWgLjf42Qfb13l+dtoMBgen+vo6EB1TQ1e2/Ei1i5ej6LsEpElHlV0GV4sYseFh4WLnZwB098V6PDb7VsQkRqLa7/1bWRlZiIyMnJos2U9X20U7oiNjUVcXBzi4+NHFK5XKpVISkpCSkoKZs+5AnsP/gOxCTGIj6HnjFZi6XWxcVBEK4Tj5EHnbT+tlaVDe1MbTjWcoLGgADHR0WKGMXj1bEiowifYXQzSW9le04EIirSVBDOv8DI0djagrq4G8lC5AOOt8HVFU60PkGVHCq+2730GM4qKhWGiCV6w9CVBj0bEeYPJehNfJCYmBiq6aPEV8/Dsm0+J5UUBxksJmKVGFvV19XVncbL+OPILZwmjsGE8fZ1HI+CNRewi4T6Cx1+YM7nNePfDt4EZfkoHTbbICE+++hCK5uiQQBEId2XcZIdrXPDYnXwx/kQSVAkomTsfL7+/HU6zs3+XeSBrpg7/2LcL7hAZGWMm1Gq1aGWDQxSPxgWPxaMnT1cSExORlpaGrLwCbP7rPf3TsUAVzSYaGxrw+ke7MGvuPGjo3rh1hVJ8N1p3Nm54HvfxKMyj78yiIpiCrHjhjTIxxAecuMXQ5GfrC/ei6PJ5SEtNFffFruNBcjSNGx6LO1B2nwhdkpNRTG964NR+7OP+z1/pcH+It5PRQPqrsp8jMSMTWTk5IhRTqVTCdd40IXgsHnk56uamm0pvOOfKq/DS+8/jkyMHAgOg9E2gLc/fB2d4EPJnzUI63UsymWG0EXawJgyPmy9PmBMSEpBJEThDLJ13FZ7759N47+O90xtgNv1tNM3e+txGdLlMKJw9B2kpqeIeeIQdHtcNl0++Jn/EaMU8TaywOA8kPIWLiInFvk/egqmrG8ULbgCiU4HORukV00C5OlgtVty77Q64wmQoLCkV6aYcarJsBL6Xr3Ida8jmxonqtpx4dHd349y5c6iurkZTczNOfX4YqYpk3Ld8K4Ij6JOc6q9Tcf9GzfSL44fwxzefhCY9E9kUknBT1Wq1ov/maeqFwLF8Co/FW3MZYGNjo0getLS04OyZKnTS8c6b7kFRQUn/tobaKYBIbuOVtW17fofyqo+gLSxBCo2qDI4dxzEd93M8DR2LfA6PxQB7enoEuLq6OuFAPT2urTiObHUO1n/vbsQnKPuXCCcDIsVvnEY/cPA9/O297Yim8CpNm4dEap4ZGRmicFO90AAxXH6Bx+ImbDab0dbWhvr6ejSQE43GDrQ2NUBfX4fS3Ln40dU/RiI1k4H/M+DLjd48ikr9/WdHP6TA92V0O8xIzc6DikCpJXCp5DyOVXnQuxhwLL/BY3GOkPODnP9rJvc1UPTOMDupWRuamwjkOeSnFeKqokWYX7yw/2b5r2GQdRcJkvsynkFx/EAjaJehE/uP/gv/PvYu7EFOqFMzoExQIz4uDkkajRhReXbEQfDwVNNY5Vd4LM5S85Zdk8kkMtDclFtbW2EwGMS//TC26dHdYYDN1INS7RXITy9Ccc4cqJM0YmvXgDhz/1V/KQE/WfslTpz9AifqjuFc+1nEqxKhoBKnjBf5OG6aHL/xoMC5SR4YeM46HnAsv8NjMUBO67MLuS9kcAxQuLCzU2z0ttqsBNEIK0E293RB1ueGJj4Z6jgNFBFxiIuOH7JSFxQkg8najdaOZjQbG9HWpUckhUeRUTGIomNMXH9T5HiNExgachvD4ybKs6Lxum2wJgWeR+tyVQIir5ewExkcgzQajWKEZifyOXaq2GBOUO12G5z02OXk0eX8wlEQPZQHhyAkNAyh5KDw8AjhIl6k4Y6fk5cMiqdYXBiiB9rF9m3eNKnwPGInciDNaya82MRu5NLV1SWOFotFuNHhsMNhd8ApramITefSdgeZjItczAJCCQi7jNcXGBCD8hT+nZsnQ+PXsSbqOI+mBJ5HDJGhiH/1QSC5sPMYHh+5mXNhFzJsLiyGwC4TTiNoPBtgQOw4PnLhOs+Mx1dOG64phTdYnn6RYXpADS58znOegXgKA+QjO2twPQP2lcO8adrAGywGyfIsf3qOLH7saX589Dxm+RvWcE1LeKOJgXpAMcDJBjVSwP8BitSyu+kyvBwAAAAASUVORK5CYII=;" parent="1" vertex="1">
          <mxGeometry x="303.77998779296877" y="205" width="79" height="71" as="geometry" />
        </mxCell>
        <mxCell id="tFofecCMmtv1CYEzfzmN-2" value="Sonar(coded)" style="text;html=1;strokeColor=none;fillColor=none;align=center;verticalAlign=middle;whiteSpace=wrap;rounded=0;" parent="1" vertex="1">
          <mxGeometry x="313" y="270" width="60" height="30" as="geometry" />
        </mxCell>
        <mxCell id="tFofecCMmtv1CYEzfzmN-5" value="datacleaner(coded)" style="text;html=1;strokeColor=none;fillColor=none;align=center;verticalAlign=middle;whiteSpace=wrap;rounded=0;" parent="1" vertex="1">
          <mxGeometry x="313" y="375" width="60" height="30" as="geometry" />
        </mxCell>
        <mxCell id="tFofecCMmtv1CYEzfzmN-6" value="" style="shape=image;verticalLabelPosition=bottom;labelBackgroundColor=default;verticalAlign=top;aspect=fixed;imageAspect=0;image=data:image/png,iVBORw0KGgoAAAANSUhEUgAAAE8AAABHCAYAAABGZxrrAAAAAXNSR0ICQMB9xQAAAARnQU1BAACxjwv8YQUAAAAJcEhZcwAAHYYAAB2GAV2iE4EAAAAZdEVYdFNvZnR3YXJlAE1pY3Jvc29mdCBPZmZpY2V/7TVxAAAO9klEQVR4Xu2cCXSU1dnH/5nJvk0yk8lk3yaBJIaQoAwVqigftdhqOXbhIBYQwX6lasv3WRX7oQWsy7F6PK21R0ylrVoUrGjFU7GiWD7XsCjIloQskH2SmWyzZZbM9zw374RsIyGZSTJ8/nPueSf3nXkn72/+997nPvdOgrZV6N34WuOSTDoGpBb2GbFMHSz9NvkKOOddbmvGx+UH8cmhQ4huaMD1q1ejbfZC6ezkato7b2VWLHJaT6PlrRex77GN+GDDf6H0kYexY9uz+GFlBWzB/c67PS9BHCdT09J5S6OdOHTkMN79tBzddTX4Rk0dFlSfwWX6VukZ/dpTVIT2/3kAty5fhrLKNql28jTt4NU+8xD07QakmkzY8M47UPb2SmdGau+cUvzzPxZj0by5yJ0xAx+HpUhnJkfyG++6Z7P0eEo1q60C1XtfQyU1xfhoFcISU/HW7ELUJSXSRyxDstGAIOm5HlUlJ0OvLYG8zYGTR77E4deeh/XkQWS4TFicm44zrhDpmf7RlDrvOxFWvL5rJ8o/+RjF2aUozdUhRZkOY1cnWowtMHQb0WTWo6OvBzZYkd7eigUnTqGkugZKcuY7RQWoXnUf1n5zBcIiCRR1fy2NTThY8SkOHNuHTkcnvvPdpTSgLJLe0beaEnjXug34S9mz6Gnrxg+uXoGFcxaLG3danGhqbxLF2GlEh6kDJrMZ1l4reh12mPqs6JHRYwIZ19OBWEM7FLobsILgxUbFQNZwCMjSiWuxTQ36Nrzx4S58QCAXL7keq9auQ1mVof+P8IEmFd7K9Cg8+chvYGww4Lbv/gxFBbMBF51wUumjh30u2Ow2mK1mUbrN3aJ0mbrQY+mhYoLNaoPNaUOv2wEHgSzJKMY1pYuhiI6FvOGweJ8BMUgypMvah93/+zLe/OhVrLh1DepnzpeeMDFNGjzNsf14fedO3LpkPa65kpzmoMqa8v6Tktzpc+Gmn76+PrhcLtiddvTae2GxWQS8bhOBNHeJI9eFh0ZAm5aD3PRcKKIUkDWS80ZTJkEMpbc0O/CH3Y+jylCJrY88jt2dE4vU/A5vTZYCD95/D6KcUdi0+hHhBJwZCs2bBEy3WzhSgKSR19JrgdliRo+1B+4+N1RxKmhUGkSGRSKo/qD0Si9iJxLEqjOn8PBLD2DZypVoyB+/C/0Kb2msE7+8az1uWbQWS665EdRVAWfHBm6I0nUCIv8wSKfTKWCyQ0NDQhEWGobgxiPSk8cgrQ59dje2/uU+RKVEQ/HD9dKJi5Pf4C10tWHrrzZi85rfIk87E6gcB7RRxG4UR/4hoEH8E0TlQq4bLnZhOLBt5+9Q3VmJ3J9dfMTmF3jze5vxxJYteOrOMsSrlGNuplOifB1ee/tl7D/9LxT/8nGpcmzy+dz2uhATHvv1A3j6F39GvHKag2OdLscPrr8ZiwquQ+UfHpQqxyafwlueFIpNd/8CT93xHGIUsUD1NAfnEQH8/pKbkZ9QhI5XnpEqLyyfwrt3w5347x9tglqjCRxwHhHAdcvugLnVhEQKq8Yin8Ez7y7DldqrMKeEOuKqAAPnkQXYuu4J7Nn1dyyWdUuV3uUTePNtzTh99DhWf/8n4hMMWHEYJQc2rXoUj/3m11Kld/kE3pOPPiTeEHapIpBF3U22VovCpMsQd3CvVDm6JgxPc/wAZmWUID07c8R0K2BFwfyGZffjjVd3YUVKhFQ5UhOCty5Pjb+/8hJuv/Gu/tnDpSJuvmE0Q/rmMvztr9ulypGaUJCsOXEAhuN63LacpjfU2V5QnEEZz/RsKsTJBLLWLVu+h20v7sCOppHuGAJvTXYcThw7Bpl8eM52FAXJUPbM73GTbjk0yiS4XJxX8i6eSs1IK0REODWDQAE4U4fndv0eCZdp0D5KQnUIvLRTH2Hf7reRmZwtJuBeRWx5ThkRGYFemqC7+r4anFwmx1l9LRbNXoIbFtwUOH0jzX9bDc3YvGMjSjc+IVboyqrapZMSPE9l9GdvQWlKwJLFN/p25AwF9u7fA0NXO265do2Y1F/0RH6qVKDDzx9diw0P3o99LoVU2a+BAWNlRgwsZisc5CTYqMLHha9rsVph66Vf/JLH8ZOoUenyF+Bw+Wfi18HrwwIe58UcDofI2nJ6xx/i69qdvVQc6OOce6CI4RV8A0c/P4K1uSqpsl8DznMTwD6Xf2+KPyS3O4DAsWrLMSOrEGcqT8Nut4uBz6Pz8KSjv+X2j7EnrnwKTbyJAoSYiFi0tjSPDm+y7mlasiNwP930U+8AKfDISc5FXW3NEJMNwPt/LRojb7/pdu8RBvU0aepM6Fv1onvzDBpfw2NR3Hn5rMu9x59kt7CQMFgsZrEk6tHX8Dy6QOAeGR4Fm9VyicOjKZVfRKGWy+lCH0ULnkHj0oJH4O5++G6/AHQ4KAaWycRC+6UJzwEsvWZp/1YOX4pCBKvdipCQkEt4tKV+62rd1b5PPBC8LlMnwiMiRo/zLhn5GhyLKDUbGhGnpOkZwfNMYS89eP4QUTqnr0WiJkn0e17hhVI8w9MR3sfhs0LXCw2m6waiMnXoNfaKVbWoqCjIBiVORD5vrVaJHpMJr7zwAhpOViM1MQMu98hkqHgZvVgWJIM8WA6nyymG7guJk6GN7fVIjc/GzdeuRkxU9MiNiNNVWh0+Pfoh9nz5Olat+09kpKcjPDxc5D8HnNdHwZ92Zj5i0tVodLShyc6l/XxxtKORjnWmRnzRdBI7392FijO1aGk2oqmRznstbWikEiNPgFYzk2B/RYZ6OioYOFz5KVLTMxEWFgYZNVtPNlnA4zYsl8uhSlAhS5uLjKxspGVmIz0z63zJoCLVJ6WkITJGAbPFhGx1HtJVdM5LSVNmI0OVjSx1LlSxCeLNg6ZtamUU0eB6uKpccAkLDRWcPBpIw9tsNrS3t0Ov18NqtYrc23AxZN5YyM+rqKhA+b8/wOZVj8Pcax4yhA8XN3O2emJ8ItTxaoSHhgdGGj5Hhy8rP0fZ+3/Ej2/7CfJyc6FQKPCnM/2bwgcWgLjf42Qfb13l+dtoMBgen+vo6EB1TQ1e2/Ei1i5ej6LsEpElHlV0GV4sYseFh4WLnZwB098V6PDb7VsQkRqLa7/1bWRlZiIyMnJos2U9X20U7oiNjUVcXBzi4+NHFK5XKpVISkpCSkoKZs+5AnsP/gOxCTGIj6HnjFZi6XWxcVBEK4Tj5EHnbT+tlaVDe1MbTjWcoLGgADHR0WKGMXj1bEiowifYXQzSW9le04EIirSVBDOv8DI0djagrq4G8lC5AOOt8HVFU60PkGVHCq+2730GM4qKhWGiCV6w9CVBj0bEeYPJehNfJCYmBiq6aPEV8/Dsm0+J5UUBxksJmKVGFvV19XVncbL+OPILZwmjsGE8fZ1HI+CNRewi4T6Cx1+YM7nNePfDt4EZfkoHTbbICE+++hCK5uiQQBEId2XcZIdrXPDYnXwx/kQSVAkomTsfL7+/HU6zs3+XeSBrpg7/2LcL7hAZGWMm1Gq1aGWDQxSPxgWPxaMnT1cSExORlpaGrLwCbP7rPf3TsUAVzSYaGxrw+ke7MGvuPGjo3rh1hVJ8N1p3Nm54HvfxKMyj78yiIpiCrHjhjTIxxAecuMXQ5GfrC/ei6PJ5SEtNFffFruNBcjSNGx6LO1B2nwhdkpNRTG964NR+7OP+z1/pcH+It5PRQPqrsp8jMSMTWTk5IhRTqVTCdd40IXgsHnk56uamm0pvOOfKq/DS+8/jkyMHAgOg9E2gLc/fB2d4EPJnzUI63UsymWG0EXawJgyPmy9PmBMSEpBJEThDLJ13FZ7759N47+O90xtgNv1tNM3e+txGdLlMKJw9B2kpqeIeeIQdHtcNl0++Jn/EaMU8TaywOA8kPIWLiInFvk/egqmrG8ULbgCiU4HORukV00C5OlgtVty77Q64wmQoLCkV6aYcarJsBL6Xr3Ida8jmxonqtpx4dHd349y5c6iurkZTczNOfX4YqYpk3Ld8K4Ij6JOc6q9Tcf9GzfSL44fwxzefhCY9E9kUknBT1Wq1ov/maeqFwLF8Co/FW3MZYGNjo0getLS04OyZKnTS8c6b7kFRQUn/tobaKYBIbuOVtW17fofyqo+gLSxBCo2qDI4dxzEd93M8DR2LfA6PxQB7enoEuLq6OuFAPT2urTiObHUO1n/vbsQnKPuXCCcDIsVvnEY/cPA9/O297Yim8CpNm4dEap4ZGRmicFO90AAxXH6Bx+ImbDab0dbWhvr6ejSQE43GDrQ2NUBfX4fS3Ln40dU/RiI1k4H/M+DLjd48ikr9/WdHP6TA92V0O8xIzc6DikCpJXCp5DyOVXnQuxhwLL/BY3GOkPODnP9rJvc1UPTOMDupWRuamwjkOeSnFeKqokWYX7yw/2b5r2GQdRcJkvsynkFx/EAjaJehE/uP/gv/PvYu7EFOqFMzoExQIz4uDkkajRhReXbEQfDwVNNY5Vd4LM5S85Zdk8kkMtDclFtbW2EwGMS//TC26dHdYYDN1INS7RXITy9Ccc4cqJM0YmvXgDhz/1V/KQE/WfslTpz9AifqjuFc+1nEqxKhoBKnjBf5OG6aHL/xoMC5SR4YeM46HnAsv8NjMUBO67MLuS9kcAxQuLCzU2z0ttqsBNEIK0E293RB1ueGJj4Z6jgNFBFxiIuOH7JSFxQkg8najdaOZjQbG9HWpUckhUeRUTGIomNMXH9T5HiNExgachvD4ybKs6Lxum2wJgWeR+tyVQIir5ewExkcgzQajWKEZifyOXaq2GBOUO12G5z02OXk0eX8wlEQPZQHhyAkNAyh5KDw8AjhIl6k4Y6fk5cMiqdYXBiiB9rF9m3eNKnwPGInciDNaya82MRu5NLV1SWOFotFuNHhsMNhd8ApramITefSdgeZjItczAJCCQi7jNcXGBCD8hT+nZsnQ+PXsSbqOI+mBJ5HDJGhiH/1QSC5sPMYHh+5mXNhFzJsLiyGwC4TTiNoPBtgQOw4PnLhOs+Mx1dOG64phTdYnn6RYXpADS58znOegXgKA+QjO2twPQP2lcO8adrAGywGyfIsf3qOLH7saX589Dxm+RvWcE1LeKOJgXpAMcDJBjVSwP8BitSyu+kyvBwAAAAASUVORK5CYII=;" parent="1" vertex="1">
          <mxGeometry x="303.22" y="309" width="79" height="71" as="geometry" />
        </mxCell>
        <mxCell id="tFofecCMmtv1CYEzfzmN-10" value="distancefilter(coded)" style="text;html=1;strokeColor=none;fillColor=none;align=center;verticalAlign=middle;whiteSpace=wrap;rounded=0;" parent="1" vertex="1">
          <mxGeometry x="313.28" y="480" width="60" height="30" as="geometry" />
        </mxCell>
        <mxCell id="tFofecCMmtv1CYEzfzmN-11" value="" style="shape=image;verticalLabelPosition=bottom;labelBackgroundColor=default;verticalAlign=top;aspect=fixed;imageAspect=0;image=data:image/png,iVBORw0KGgoAAAANSUhEUgAAAE8AAABHCAYAAABGZxrrAAAAAXNSR0ICQMB9xQAAAARnQU1BAACxjwv8YQUAAAAJcEhZcwAAHYYAAB2GAV2iE4EAAAAZdEVYdFNvZnR3YXJlAE1pY3Jvc29mdCBPZmZpY2V/7TVxAAAO9klEQVR4Xu2cCXSU1dnH/5nJvk0yk8lk3yaBJIaQoAwVqigftdhqOXbhIBYQwX6lasv3WRX7oQWsy7F6PK21R0ylrVoUrGjFU7GiWD7XsCjIloQskH2SmWyzZZbM9zw374RsIyGZSTJ8/nPueSf3nXkn72/+997nPvdOgrZV6N34WuOSTDoGpBb2GbFMHSz9NvkKOOddbmvGx+UH8cmhQ4huaMD1q1ejbfZC6ezkato7b2VWLHJaT6PlrRex77GN+GDDf6H0kYexY9uz+GFlBWzB/c67PS9BHCdT09J5S6OdOHTkMN79tBzddTX4Rk0dFlSfwWX6VukZ/dpTVIT2/3kAty5fhrLKNql28jTt4NU+8xD07QakmkzY8M47UPb2SmdGau+cUvzzPxZj0by5yJ0xAx+HpUhnJkfyG++6Z7P0eEo1q60C1XtfQyU1xfhoFcISU/HW7ELUJSXSRyxDstGAIOm5HlUlJ0OvLYG8zYGTR77E4deeh/XkQWS4TFicm44zrhDpmf7RlDrvOxFWvL5rJ8o/+RjF2aUozdUhRZkOY1cnWowtMHQb0WTWo6OvBzZYkd7eigUnTqGkugZKcuY7RQWoXnUf1n5zBcIiCRR1fy2NTThY8SkOHNuHTkcnvvPdpTSgLJLe0beaEnjXug34S9mz6Gnrxg+uXoGFcxaLG3danGhqbxLF2GlEh6kDJrMZ1l4reh12mPqs6JHRYwIZ19OBWEM7FLobsILgxUbFQNZwCMjSiWuxTQ36Nrzx4S58QCAXL7keq9auQ1mVof+P8IEmFd7K9Cg8+chvYGww4Lbv/gxFBbMBF51wUumjh30u2Ow2mK1mUbrN3aJ0mbrQY+mhYoLNaoPNaUOv2wEHgSzJKMY1pYuhiI6FvOGweJ8BMUgypMvah93/+zLe/OhVrLh1DepnzpeeMDFNGjzNsf14fedO3LpkPa65kpzmoMqa8v6Tktzpc+Gmn76+PrhcLtiddvTae2GxWQS8bhOBNHeJI9eFh0ZAm5aD3PRcKKIUkDWS80ZTJkEMpbc0O/CH3Y+jylCJrY88jt2dE4vU/A5vTZYCD95/D6KcUdi0+hHhBJwZCs2bBEy3WzhSgKSR19JrgdliRo+1B+4+N1RxKmhUGkSGRSKo/qD0Si9iJxLEqjOn8PBLD2DZypVoyB+/C/0Kb2msE7+8az1uWbQWS665EdRVAWfHBm6I0nUCIv8wSKfTKWCyQ0NDQhEWGobgxiPSk8cgrQ59dje2/uU+RKVEQ/HD9dKJi5Pf4C10tWHrrzZi85rfIk87E6gcB7RRxG4UR/4hoEH8E0TlQq4bLnZhOLBt5+9Q3VmJ3J9dfMTmF3jze5vxxJYteOrOMsSrlGNuplOifB1ee/tl7D/9LxT/8nGpcmzy+dz2uhATHvv1A3j6F39GvHKag2OdLscPrr8ZiwquQ+UfHpQqxyafwlueFIpNd/8CT93xHGIUsUD1NAfnEQH8/pKbkZ9QhI5XnpEqLyyfwrt3w5347x9tglqjCRxwHhHAdcvugLnVhEQKq8Yin8Ez7y7DldqrMKeEOuKqAAPnkQXYuu4J7Nn1dyyWdUuV3uUTePNtzTh99DhWf/8n4hMMWHEYJQc2rXoUj/3m11Kld/kE3pOPPiTeEHapIpBF3U22VovCpMsQd3CvVDm6JgxPc/wAZmWUID07c8R0K2BFwfyGZffjjVd3YUVKhFQ5UhOCty5Pjb+/8hJuv/Gu/tnDpSJuvmE0Q/rmMvztr9ulypGaUJCsOXEAhuN63LacpjfU2V5QnEEZz/RsKsTJBLLWLVu+h20v7sCOppHuGAJvTXYcThw7Bpl8eM52FAXJUPbM73GTbjk0yiS4XJxX8i6eSs1IK0REODWDQAE4U4fndv0eCZdp0D5KQnUIvLRTH2Hf7reRmZwtJuBeRWx5ThkRGYFemqC7+r4anFwmx1l9LRbNXoIbFtwUOH0jzX9bDc3YvGMjSjc+IVboyqrapZMSPE9l9GdvQWlKwJLFN/p25AwF9u7fA0NXO265do2Y1F/0RH6qVKDDzx9diw0P3o99LoVU2a+BAWNlRgwsZisc5CTYqMLHha9rsVph66Vf/JLH8ZOoUenyF+Bw+Wfi18HrwwIe58UcDofI2nJ6xx/i69qdvVQc6OOce6CI4RV8A0c/P4K1uSqpsl8DznMTwD6Xf2+KPyS3O4DAsWrLMSOrEGcqT8Nut4uBz6Pz8KSjv+X2j7EnrnwKTbyJAoSYiFi0tjSPDm+y7mlasiNwP930U+8AKfDISc5FXW3NEJMNwPt/LRojb7/pdu8RBvU0aepM6Fv1onvzDBpfw2NR3Hn5rMu9x59kt7CQMFgsZrEk6tHX8Dy6QOAeGR4Fm9VyicOjKZVfRKGWy+lCH0ULnkHj0oJH4O5++G6/AHQ4KAaWycRC+6UJzwEsvWZp/1YOX4pCBKvdipCQkEt4tKV+62rd1b5PPBC8LlMnwiMiRo/zLhn5GhyLKDUbGhGnpOkZwfNMYS89eP4QUTqnr0WiJkn0e17hhVI8w9MR3sfhs0LXCw2m6waiMnXoNfaKVbWoqCjIBiVORD5vrVaJHpMJr7zwAhpOViM1MQMu98hkqHgZvVgWJIM8WA6nyymG7guJk6GN7fVIjc/GzdeuRkxU9MiNiNNVWh0+Pfoh9nz5Olat+09kpKcjPDxc5D8HnNdHwZ92Zj5i0tVodLShyc6l/XxxtKORjnWmRnzRdBI7392FijO1aGk2oqmRznstbWikEiNPgFYzk2B/RYZ6OioYOFz5KVLTMxEWFgYZNVtPNlnA4zYsl8uhSlAhS5uLjKxspGVmIz0z63zJoCLVJ6WkITJGAbPFhGx1HtJVdM5LSVNmI0OVjSx1LlSxCeLNg6ZtamUU0eB6uKpccAkLDRWcPBpIw9tsNrS3t0Ov18NqtYrc23AxZN5YyM+rqKhA+b8/wOZVj8Pcax4yhA8XN3O2emJ8ItTxaoSHhgdGGj5Hhy8rP0fZ+3/Ej2/7CfJyc6FQKPCnM/2bwgcWgLjf42Qfb13l+dtoMBgen+vo6EB1TQ1e2/Ei1i5ej6LsEpElHlV0GV4sYseFh4WLnZwB098V6PDb7VsQkRqLa7/1bWRlZiIyMnJos2U9X20U7oiNjUVcXBzi4+NHFK5XKpVISkpCSkoKZs+5AnsP/gOxCTGIj6HnjFZi6XWxcVBEK4Tj5EHnbT+tlaVDe1MbTjWcoLGgADHR0WKGMXj1bEiowifYXQzSW9le04EIirSVBDOv8DI0djagrq4G8lC5AOOt8HVFU60PkGVHCq+2730GM4qKhWGiCV6w9CVBj0bEeYPJehNfJCYmBiq6aPEV8/Dsm0+J5UUBxksJmKVGFvV19XVncbL+OPILZwmjsGE8fZ1HI+CNRewi4T6Cx1+YM7nNePfDt4EZfkoHTbbICE+++hCK5uiQQBEId2XcZIdrXPDYnXwx/kQSVAkomTsfL7+/HU6zs3+XeSBrpg7/2LcL7hAZGWMm1Gq1aGWDQxSPxgWPxaMnT1cSExORlpaGrLwCbP7rPf3TsUAVzSYaGxrw+ke7MGvuPGjo3rh1hVJ8N1p3Nm54HvfxKMyj78yiIpiCrHjhjTIxxAecuMXQ5GfrC/ei6PJ5SEtNFffFruNBcjSNGx6LO1B2nwhdkpNRTG964NR+7OP+z1/pcH+It5PRQPqrsp8jMSMTWTk5IhRTqVTCdd40IXgsHnk56uamm0pvOOfKq/DS+8/jkyMHAgOg9E2gLc/fB2d4EPJnzUI63UsymWG0EXawJgyPmy9PmBMSEpBJEThDLJ13FZ7759N47+O90xtgNv1tNM3e+txGdLlMKJw9B2kpqeIeeIQdHtcNl0++Jn/EaMU8TaywOA8kPIWLiInFvk/egqmrG8ULbgCiU4HORukV00C5OlgtVty77Q64wmQoLCkV6aYcarJsBL6Xr3Ida8jmxonqtpx4dHd349y5c6iurkZTczNOfX4YqYpk3Ld8K4Ij6JOc6q9Tcf9GzfSL44fwxzefhCY9E9kUknBT1Wq1ov/maeqFwLF8Co/FW3MZYGNjo0getLS04OyZKnTS8c6b7kFRQUn/tobaKYBIbuOVtW17fofyqo+gLSxBCo2qDI4dxzEd93M8DR2LfA6PxQB7enoEuLq6OuFAPT2urTiObHUO1n/vbsQnKPuXCCcDIsVvnEY/cPA9/O297Yim8CpNm4dEap4ZGRmicFO90AAxXH6Bx+ImbDab0dbWhvr6ejSQE43GDrQ2NUBfX4fS3Ln40dU/RiI1k4H/M+DLjd48ikr9/WdHP6TA92V0O8xIzc6DikCpJXCp5DyOVXnQuxhwLL/BY3GOkPODnP9rJvc1UPTOMDupWRuamwjkOeSnFeKqokWYX7yw/2b5r2GQdRcJkvsynkFx/EAjaJehE/uP/gv/PvYu7EFOqFMzoExQIz4uDkkajRhReXbEQfDwVNNY5Vd4LM5S85Zdk8kkMtDclFtbW2EwGMS//TC26dHdYYDN1INS7RXITy9Ccc4cqJM0YmvXgDhz/1V/KQE/WfslTpz9AifqjuFc+1nEqxKhoBKnjBf5OG6aHL/xoMC5SR4YeM46HnAsv8NjMUBO67MLuS9kcAxQuLCzU2z0ttqsBNEIK0E293RB1ueGJj4Z6jgNFBFxiIuOH7JSFxQkg8najdaOZjQbG9HWpUckhUeRUTGIomNMXH9T5HiNExgachvD4ybKs6Lxum2wJgWeR+tyVQIir5ewExkcgzQajWKEZifyOXaq2GBOUO12G5z02OXk0eX8wlEQPZQHhyAkNAyh5KDw8AjhIl6k4Y6fk5cMiqdYXBiiB9rF9m3eNKnwPGInciDNaya82MRu5NLV1SWOFotFuNHhsMNhd8ApramITefSdgeZjItczAJCCQi7jNcXGBCD8hT+nZsnQ+PXsSbqOI+mBJ5HDJGhiH/1QSC5sPMYHh+5mXNhFzJsLiyGwC4TTiNoPBtgQOw4PnLhOs+Mx1dOG64phTdYnn6RYXpADS58znOegXgKA+QjO2twPQP2lcO8adrAGywGyfIsf3qOLH7saX589Dxm+RvWcE1LeKOJgXpAMcDJBjVSwP8BitSyu+kyvBwAAAAASUVORK5CYII=;" parent="1" vertex="1">
          <mxGeometry x="303.49998779296874" y="414" width="79" height="71" as="geometry" />
        </mxCell>
        <mxCell id="tFofecCMmtv1CYEzfzmN-13" value="" style="rounded=1;whiteSpace=wrap;html=1;arcSize=5;fillColor=#FFF2CC;strokeColor=#d79b00;" parent="1" vertex="1">
          <mxGeometry x="270" y="674" width="254" height="477" as="geometry" />
        </mxCell>
        <mxCell id="tFofecCMmtv1CYEzfzmN-14" value="" style="shape=image;verticalLabelPosition=bottom;labelBackgroundColor=default;verticalAlign=top;aspect=fixed;imageAspect=0;image=data:image/png,iVBORw0KGgoAAAANSUhEUgAAAJ4AAACNCAYAAABGx8NOAAAAAXNSR0ICQMB9xQAAAAlwSFlzAAAXEgAAFxIBZ5/SUgAAABl0RVh0U29mdHdhcmUATWljcm9zb2Z0IE9mZmljZX/tNXEAABqnSURBVHja7Z13eJRV2sbzgYQOhhZaJCIQjPRQhNCEAAECBEIMIZmUyZT0MqGDCkgLTQFFkC5IR9rSi4soIqigcom6LCCK4mIDXXFll/Od5+U+4WWYSSZkanL+uC8vSSbJzPm9TzvPeY7XlClTvKSknC35IUhJ8ErVB+/l9X8kCZ6UU0AjpWq1jXMNhhSTPnlHrjH55dIIoYTCCaBxlcnVGtrlGo1TTIbksxw2phb/+iP0PaUJPgmJA2HL0RmG5RiMS00Gw2U1aGN1eraqX6gavApc5UoTfBIYO8JmiDTUyNHptNlG40aTMfmWGrbJmji2secz7DP/x9ntsmUZp00NXnWuiqXJ8kl4igdbmUytNpBbNlOO3njS3IXmRY1gezp1Yldr1lJAM5cKvLpc1bjKc5WV4ElZdKGZBkMXky55Qa7B+IU5bMsGDGTHWrZiP1WtahE2K+A15qqlsnoSPAkcd6EhIZVytIaRJr1+DU8QflGDNilRy9aGhLAzTzRhf3iXLxQ2K+AFwupVFrGeBK90Q1fGZDTOMrdq00fGsJ1dgtl5P78igWYNvE4dOsTx3+UHd+tdGtythMw6dLT43jkGwyfmSQJBd6F+/WJBpwYvNmI4M8TEsrT4+CuZSbpjPAvO40lKf0pW1G5eglfCE4bIkJAqyZqEyLTExLmpsYkfZ3B3mqnVMZOZ5SM3S5nqw7hZNXijdZlMz8Gj35OtNzCTwZj/NZNeqfu9TK6+JIEogTOru1EpJMtgvJWt0ysgpMTFM130SDbOmMPmj8ljiyctYHmjprKJaTnMUmJxIjDQpsRCDd7pN06zr//2Nbu85xI7v/0cO7xsH1s2bREbm5rxwO+g3Q4q2VDc6ckQlnrYaEfhbpHXeE1ZWG5tcrjVmWaayDbOXcuOvn6InV1/hr2/6n128NWDbMe8HWzDjA1s1Qur2KKxC9j0rClsfEr2A4DMGx5ZYCnFEng3jt1g/3n/P+x/p/7H2IdM0eW9F9mR5fsVEO8D0Jh8ix4SsoSi9udJAJZq62Zee5s19gW2f+ku9u3+K+zf7/6bXT98nV3adYl9suETdnz5cbZv4T62dfZWtu7FdWz5c8vZ4nGL2cu5L7O52XPZzMwZ7IXUiWxcMlnCFGYeF27t1l0pHhcVPLX+eO8PdmLtMbbwubz7ITQYLlMtUW0FJXhuB5xOq66/Tc4ew3a+soVdPfCNsrh3Tt9htz+4rSzyz0d/Zt/s/YZ9vuVzduqNU+zokqNsz4I9+fCteH4Fe238a2zh6IVsvmk+m5M1h83KmMVmpHEIUyax8cZcNsqYyixtl50KCCgyeGr99PaP7MDru9n0URNVABqvmXS6qZpITU133wEpTRbOJNypUhLhC0bW4/YHf923oATef0/9VwHgt3d+U6weQfHFti/Yx29+zE6sPKEAuHfhXvbWnLcUt7tmyhq2bNIyxQJagnBKygtsYvJoNjr5wZjtYcFT69T6E2zehOmqn5nyKwHIk6TK7gpgiQcuU6vtre4IITf12dazVheRwKOFJ6v354k/Ffh+OvoT+/7A9+zy7svsy7e+ZJ9t+kyB5d0V77Ijrx1RINw+dzvbNHMTe2PqG/mWcNGYRewl00uKK87LzGMz02eyF9OmsslpE9mk1FHK3zM+LYt9uPbDYoEnRImJOhakBy1Hq4sRdUF3ArDEFn4NGk3DHKNxU/6+6djJysLYsoACPmH5yO3efOem4nr/dehf7Oq+qwqEX731FTu3+Rz7aN1HiiV8e+nbbP+i/Wzn/J1s86zNijte+fxKtnTCUvbKmFeUeJCsIcH46thX2dqpa5W4kSzplT1XlN9RHPCEKGxQx4EmnfFYpsYQ5E5JSIkDjp5u7lYn5hqS/1RqbZkmdmzVkSIvHsGntn5/nfxLsYCUdJAV/OXtXxQ3TJaQrNWFHReUWPAMz4BPrj7Jjr1+TMmCd7+0W4kJ109fz1ZPXq0kJeSWKSvekrdFsZiUvHy791vl59LvKS54Qmc2nVZiWAFgjsEw213cb4mzcia9/gPxQW99eT27efxGsRZPDSBZQDWEZAkJll///iv78ciP7NrBa0oy8s+d/2Tnt55XgKKkhDLiw4sPK4kJlWO2zd6muGaydmQpKX6k1/5+/He7gkeiGHbPa9vv1QR5YpWq0bRwtfUrKbFc2cwEXSwF1SJTpfqXvRbPEoQCRAKF3OOtE7cUcChOo5jwh4M/KFaMyjEiLqRYjuqBBCKJLCP9O7lteg39DAKbfoe9//YfDn9/z/1yb5CpM+Qi9nOJ9fN4K6cJ09TK0RveEFZu1cwliiWy98JZg9DcGgoIySWr48Lv9n+X75LJwpFFpBiR/o2+TpZTxHeOAE9t/e7tghgP0OfnCvg83bX6iU18ciUPE8s5EkJLLpksG4FGFpH+S2DS1+j76HWOgs48+xWxHxWf4Xqd2hHjqdCVNURHtxRnGagmJwrArlZBEKqtIbll+i/9P/07fY8jrZ2lXZDFk+fn1/3StdoQZ5ZdPDKeS9Vqu4l4jgqnxU0gnAGiOi4kyITo/8XXnAWd2vWunb38Xtyn1eqcde7D00olj6QmJAwSpRKK58x3HtxZamtoSa76u9RxX7ZON80Z8HkUdMnx8YP5h6NAR/urngKcJ4i2D50Jn2dBB0tHbUISFvuL9nwFfOla3WhHnvX1DPcarenIP4wb9IFQR4aExFnwaQ2Ogs9DoLubSNBOhITDufAZ4uOHOAI+t4ZOExnZKNdgvEIfwMZ5ayQUThR5FpHtGqI1newd87ltnS4kKKh6dpL+OL15qjdJGJwvSuCww/F1WEiYrz3hc0voaJRDVlLSq6I47IwtMCnLEkVmMgIYLlS2RIGncrHeqZqEBLEN5ojNfqmi7XCI9vrMpKT59prv4m7QldMMHdpWlE0oyJWL73rRwz8mNf0OrUmyJmEEph0Uy+W6VTJBQ2uy9cZPZQbrvplujt7wQ0hwSL3iZrpuFdelJmjHiX46T9oKKy0S5zkytbqVxZ1s5TZxXVhISBOTwai42IIO40i5TnSkUnQy62JiBhQn3nM1eMLFVsrS6o+IjX+5yO4r2q6Ey/0qKDCw5sO6XHdwsRV0MZoYkcW6c4uT1N1WKnGGNzUxMe9hXa6rrR1lR1Wy9IZz9EZc1UEsVfQsF+d2/+QhUlO43CJZPVdaOyWL1UXHxMqEwvNEIRGtW0Zi4pKHmWTq0oSCJmBKa+eZoqMGwuqF9uzZrKi7Gq60dpW0UTFxYltMWjvPtXrpidqlFDIVxeq50tpVz4C1k+WTEmH1Aopi9Vxm7TQREeFipolcRM+3esmxcdOLYvVsPdllD5UROxRk7dITtJvpD6axq4UdgimOJByOFXmru+c09Bf4uvrYavUKdImWRu17ijbMXe2SI4OlUeJweOTgwQNttXoFbtp7KnRC4tyqhM+xEscjUzUJ6zg3j9qylWa1PYlqbGIBPe2DEH83ndSnU/oSPseK9nCRZNxoXK8eXRRTqbDdDGvtSfRCH08Hj+aUEHxi9JeEz3ESnSuaiMgk1Q1FVnczLLYn4RrLBp4OHo0JowGKzhyIU1pFGwD0mafExb3J2alRWJJhsdSBmwSbeDp4/9j+D2UiE1k9R82dk7q/psez2285O77YRnvEWpJhvmlfDlkJdZg+5eng0dBDmktn7xGvUgVntz2CgzvDa3rbCh59Y1WuhlxtPB08mkdMo2HtNdRaqmDR2Wf63BOiop4rzN1aAq8arrAM8nTwaPQrTVMv7hh/KdskzmWkJWgPm7lbm8F7jKu9p4NX3ItLpIommrOMOO86Jafq7FaCJwFxqMSZjGaNm7XCFprFJlEJnpRdJdriQ3v0HIzqSEVLcZ4ET8quEqNto8MGjyoozpPgSdlV4hRaUnT0CsR5VS01DUjwpOwq0SaVokl4GxxZrOdJ8KQcktmmxid+xBlqrEow7ovzJHhSdpXoVMlM0l3mDNHRx5qWCskSPCmHgJeVpPueM9Scq7alNikJnpRdRacFFfB0+p84Q4HWMlsJnpTDPn/OUEs0nFSR4EkwnAlea676qnMYEjwpp4DXxlotT4In5Ujw2qHFToInwXCsaFi30qGiN/xOrXVosXugS0WCJ+WYcopWd02CJ8GT4EnwSrYu7P7y7iwVjeZTCZ4Ez2kSTQJGjeZDJBd+SC4keFKOkzhfGx8ZuZ0z1FZmtRI8p4guxqHPflj//otkHU+C5zQtfC5P+ew7d+iQxRlqJXcuJHhOkTjU7VvTly5YbsFVVzYJSPAcqvzisU7/b87PM1xPojtFtkVJQJyQ0cZoznF+unEFoB+vomwElYA4TOJG7xGDBm3k/HTheqJYHcieKgmecyXO1Aa1aEWJRUcuf9WE0DK2gheUGpdw3lOhm5RuUmanSPCcI7FVhviuv6p4XM3WU2ZV8YJ2+AFxXJlco7nGc020UZO4aGoQ/fCZXAu4VjTx9z/XtUNHlhCuYdNSp9lNM9JmsNmZs9mCUQvYmilr2N6Fe9lH6z5ShvbIaVGOlxjYox0xknYs+ph1H5cr7EC3mI/XADWYEC66CtwI+Exco2wUgToGsD7PNYvrlRo1auzp8XRnNqh3KJuTNcdumpczT4FuyYQlbMOMDezQ4kPs7PqzylRQAk/Ox3OsxASB8ND+q/k698BBnzrW5iGbTwQth5qLL14YzDWIayRXIpeOy1AEEbCpXNkAcAbB17Nzlz/6dO/O8rJmsaUTltpFyyYtYyufX8nenPYm2zV/Fzu+/Dj7fMvn7NrBa+z3479L8BxcRhHDehr7+xuRWDSxllhYG0VbAUP1/NEzT2lxKAAM5xpWBEVwPcsVA2jJYk5t36rV6cF9+7FxulFs2+xtdtH2udsV4PYt3MeOvX5MGcp4adcl9uORH5UPRo6idZxOrD1299bu6BjqSKG7LtpzNVInFrZMfRdxHpnJx2kkLdpbOnF1Bs22Khjg9uIKg+VMq1e79oLo8HCWEDmCvbPsGHtv5XvF1omVJ9jJ1SeVhOLc5nPs4q6LirVTx3cSPMdo8eT5Cni9u3Z/BfGd2Cqrau2yFWu3ZpfHi2rhBzQChE8UUWRum6ngpWr2cK7kZwcNvpIUPZLtXridXdhxwS4i2C7vvsyu7rvKrh++rmSzt07cktbOCdlslk7/R6UKFciwdC8svivogpVHAF8lAPgoZmDUeAjVQnbjjyehJ7nfXl26bEhLSGRzxk5T7qOwh34++rNyvQABR5Pe6ZoBgk5aO8fpwOu7744lCw8/yNd1MDxjY5tnIFuArywA9AaE5fGDiqpKKuvZCGWafj7VfIyZiUl/8SeFXdx9QbFMxRWBRiLXKq6TktA5TjQ14IXs0XcIvFbNAyfwde2LvKBhQWNoC7tET33rogDxYSSsZxWY3wDEfkOjwsIOmQxGtmL6YgUSe4hAE5I3ODpniywxKuoMQqhutrhZm+6rtfN1oY9iV4Q6U0Mb1KuXzi3ebeUWnv1X5HWhHqSbx2/kl1BaNGv+HLLZDsgFCr0+1FkXJJexUCOkIHT4iCHhh+mPpwt35YJ6nrVLiBpxFpsMvdB/V2A262zwRLZcAU+DP2o9A3kmlJSRpLtJb+Ly3otyUT3P2k3m6zgEpbYmqoHbtt3e6ATwHriySmS4A0P6KLd1U3cDBaxycd1b4jr4hMioT1Cb7aNKKqoXdnOj08CzYPVqIOXuCKunS41PuEZvhoY3y8V1X+VfBa833G7k5zcWu1nBqNcWmlS4Cjz1zkh9xARUVH62fevW8+gNkQmnoqRcZPcsn4gzFWF9+u2EteuL02SP2Xo7t1PBM7N6FbGBnG/1uOJjhg07SW+KLt2VC+2+CUWyJp6uBk1SWbsAWLvKtlg7V4FnbvVErDfcp5pPdiYSjTObTsvFdiNR4ieabAObNJvO1ysasV0b9G/abO2cDp6VWO9xZLjUdBr7zNNdVtKbm5iRc4dG18tFd72ou2f6qIkKdBEDBhzi65SAbqXOmOxeu7CLkV0OnoWm07qo63Wl3Qwy4SMGh79HbzJv7GSZ5bpRFmuIib1cyds7ja9RJGLzlmgarl4Ua+dK8NRWT+xmtBEdzxW8vTPoTdKbpc5Wufiuk2gCyEhMuulbu/Y49FaGwks9jli9oq2xnUvBs7CbURvFx05INOL8GjR4XsR7NAhGQuB8iZFjysmxli0Xogt9CBKK5vBWVWyp27kTeMLqiZNt9XEvQne4XG27li0X0Zsek5p+5/z2cxIGJ+rqgW+UOJs+/369etPkJz1cbC+0t4mEokJRXKzLwTNrt6+IrTThcnujZd4wqHefv0n4nCuqo4p2p5Hhw05R4y6y2H5wsY3hYkWxuIwngmfucp9Al0MoCpTJQ0JDD4jiMpl/CYdjoRMZbHxkJI2ioGRCgxDoaexQ+D6si3UL8Cy43KqIGwKQqofhTaeNDA8/Lcos5AYkJI4pm1Al4W6PXfQXPMkzoXQyBFWHQIRERc5i3Q48C2c9qiNFD0RjIb3peK6M2IiIM8qUgEyTtHwOsHRiBIV+ZMzXHLpcirNxWrCnKq7zUWexJQG8Mmbxnh/qRD2QbCTSh0FPooj55O6G/RIJEdMZ4uKuVqtSbRyOow5HvN0WrWwiriv3sC7WrcCzEO9Vwpv0R7LRC2d0aX8wU7hd2c1SfFG3CT3EyviJZ0d8yR/uUchgn8WWWBCSCbE74V1c6NwKPCvJRi0UKdviyRsO+LLCevfZK+DbOG+NhOghJAZl381eh36IiQ8EXRS6TtqjvlpHlUyULS50bgeehUaCKqpMNwg7G5HC8j0THLw5R29UzmzQ7F3ZTmV7EiFmnZCG9O17yAy6fugaaooMtmpxkwm3B89CpitOp6nhG47AN6NtixZLaDtHZLwy7it8N0L01FEzJz285EEQ06mha4YKQzV7Q+e24FmZauALsx8EtxuBLZz0OrVqTaH4RO16ZXPB/aLPY89r2/OtnFET993jfn5zMAUsCZ6kL2qo5tDZ3HXi8eBZga8OAt226I4YilILTaQy9ezSZQs9xaKzRe503LNyoj5HGtq//995EkGZazoe3uHwJO3hXgV0FR52Z8KjwbMCX20kHK2xr0tjE2IxEi2bP8VzDSNjrogPmbqZS2tfH50GU8dyGYna39q1br0CU7tSMHRzKKoG7RDO+JpbOntD5xHgWYn5xDiMFuiUGICznRSnZNBgyJDg4B1ZOv0t8aFT2zYF1aXFrVKZSRxBJC9AVq5alWrPI54zoL1pEB7e1niY65glEg6BzmPAswBfZXQvN8RdCp0Qn0Rgi0dxvfyDnjx8YNh7Aj4Kqqm/jCxBSQWOZtWJvVZSXETk5/Xr1s3jn0cu9l21qNGFYpRcCzzEtfBQ5ycSjoLOo8Azg08UmR/F3mFTuIqecL0xKA1Q4DzK389vfmJU1FdiMcgS0J1bJaX8QpacLJzIVkXy0Oapp5ZhJHAWQhENXGtvJBHN8fDWUBWHyzoSOI8Ez8L2WgXEI2KIZEs8xaHI0hIQy1CNagwtBFkA9XR4ioE8dd+XYlcKIUTf3N3h1yMudmwXtA7zp3Ng/RNRKhmA/e/WiOfq4uGtiIfZKdB5JHgW4BOTqGri6Q1AdvYMYpholAvSEFSPadboiUXRQ8I/VgNI1oIW0d0TEbLStOMgNvTVLhUWbizeZzpi3pFotOiN+tyT6HushXiugiOTiBIFngo+ddxXCZ0tvirr1xn7jeGqOczpAkAe+8yJHDT4FGV76kWk0gO5LneZ5UKb+ASbGPkqRMkT/f30IKmAy0DyoEFnST8kYK1g5eqhCaOSyrU6FTqPBs8G69cAsV8b9JL1w0LEqgDMQQw0vnVg4HJaRHUmLOJBKsk4E0QBGp3uohYw88tjYiIiPu0a1HETJumPUVk4PYAbjuOi3RD7BsAbqK1cOWckESUWPDP4hPWriNivNtxKABZATLBXAyiuQxgFqzGeYiSCMCUu/rqlW4PIzZH1oZ0AypIpRiQVJVmhhIBeQxeT0M8guMVdr+Yii0yuNKRbt508U5/K/8Zx+HuzEULo8H4iAFx3hBtPImOtA2/gUitX4sAzc71q61cZwbMvFqA5ABQWMBwxYCKyvgxYwXwI+UK/+HTbtm8O6z/whCFW870zrsNKS0j8hWLQHp07b/Nv2PBl/ndMAGyjVe40GaWRkchUQwFcEIDzR/Lgg8/hvoKwK6ErUeBZif3KqQD0UQEYgG23LtgqCoN7isViGuG6slH/Gi1AJAgIBu6aVwzo2ftgeGjoO9oR0ZdIBIwtYJE7F68hyxoWEnI0qEWLNc0DApZ43b2OazxAG4OHIAewpSBR0qAWNxgxbDAeqOZmwFVxB7daKsCz4n7LYQGqwALWgQtuiiSkI6xFXyxmJJKRBMRNKVj4bK9712oJGMcJICFb7nkT3ysAG6uCzITfk4kwwIiHQcAWDuvWE4Xz1tjUfwwPliXgyrgLcCUevAIAFBawOmLA+siCmyMR6QQI++Bk1VDUwGIBorhWKwXxVQYKtAJKE6xkrtf9d7uJfxPfk4PXZcK6Csh0cP0abANGoCzUD7B1hrUORMNEA7yPR/G+HgDO3aArFeBZAdD8Hg8fWMGGKghbIUDvggXvgwLsEK97V2VFA8g4wKKFK9TBUqrvddNDOnxPIjprNIjTovBzwwF8P9Qiu8Iit0Hs9gTOo/hix6Ea3kd5TwCu1IFnAUCRhAg3XBmLWAMQihuNmmDBW3ndu1orGIeQesE9hwKWQXDV4bCU5goHuIPw/f3x+t6AuyvOrraHCw1EOPA4HgpflIqqq6ybN96HW7pUCV7BWbD6Mhn1pTCPYqEFiI8Bgqawik8ByDYI7tvDOol738z1NL7eARC3xetbAO6mcJ+N4EJ9UXvzwUNhFTZPAa7Ug2cDhCIeFCBWgaXxAYy1AUZ9QOIHYPwBZ2Ov++91a4x/98f3PQYrVh9ZaB0VZNUBfmXUJMtbg83TgJPgFQyg+Y1GAkRvMxgrA8iqsEjVve7d+2bp7jcffL06vr8qXl8ZP08NWTkVaCUCNgle8UEUMAogBZTqe9/M735T/7u3Cq5yqp+lhqxEgSbBsx+IlqAs41Xw3W+Wvs/izyzxn6UEymlwlhqoJHhSbqv/BweZwbmF4PgUAAAAAElFTkSuQmCC;" parent="1" vertex="1">
          <mxGeometry x="293.78" y="715" width="78.44" height="70" as="geometry" />
        </mxCell>
        <mxCell id="tFofecCMmtv1CYEzfzmN-15" value="ctxalarmdevice" style="text;html=1;strokeColor=none;fillColor=none;align=center;verticalAlign=middle;whiteSpace=wrap;rounded=0;fontSize=16;" parent="1" vertex="1">
          <mxGeometry x="302.72" y="671" width="60" height="30" as="geometry" />
        </mxCell>
        <mxCell id="tFofecCMmtv1CYEzfzmN-16" value="AlarmDevice" style="text;html=1;strokeColor=none;fillColor=none;align=center;verticalAlign=middle;whiteSpace=wrap;rounded=0;" parent="1" vertex="1">
          <mxGeometry x="303" y="777" width="60" height="30" as="geometry" />
        </mxCell>
        <mxCell id="tFofecCMmtv1CYEzfzmN-18" value="" style="shape=image;verticalLabelPosition=bottom;labelBackgroundColor=default;verticalAlign=top;aspect=fixed;imageAspect=0;image=data:image/png,iVBORw0KGgoAAAANSUhEUgAAAE8AAABHCAYAAABGZxrrAAAAAXNSR0ICQMB9xQAAAARnQU1BAACxjwv8YQUAAAAJcEhZcwAAHYYAAB2GAV2iE4EAAAAZdEVYdFNvZnR3YXJlAE1pY3Jvc29mdCBPZmZpY2V/7TVxAAAO9klEQVR4Xu2cCXSU1dnH/5nJvk0yk8lk3yaBJIaQoAwVqigftdhqOXbhIBYQwX6lasv3WRX7oQWsy7F6PK21R0ylrVoUrGjFU7GiWD7XsCjIloQskH2SmWyzZZbM9zw374RsIyGZSTJ8/nPueSf3nXkn72/+997nPvdOgrZV6N34WuOSTDoGpBb2GbFMHSz9NvkKOOddbmvGx+UH8cmhQ4huaMD1q1ejbfZC6ezkato7b2VWLHJaT6PlrRex77GN+GDDf6H0kYexY9uz+GFlBWzB/c67PS9BHCdT09J5S6OdOHTkMN79tBzddTX4Rk0dFlSfwWX6VukZ/dpTVIT2/3kAty5fhrLKNql28jTt4NU+8xD07QakmkzY8M47UPb2SmdGau+cUvzzPxZj0by5yJ0xAx+HpUhnJkfyG++6Z7P0eEo1q60C1XtfQyU1xfhoFcISU/HW7ELUJSXSRyxDstGAIOm5HlUlJ0OvLYG8zYGTR77E4deeh/XkQWS4TFicm44zrhDpmf7RlDrvOxFWvL5rJ8o/+RjF2aUozdUhRZkOY1cnWowtMHQb0WTWo6OvBzZYkd7eigUnTqGkugZKcuY7RQWoXnUf1n5zBcIiCRR1fy2NTThY8SkOHNuHTkcnvvPdpTSgLJLe0beaEnjXug34S9mz6Gnrxg+uXoGFcxaLG3danGhqbxLF2GlEh6kDJrMZ1l4reh12mPqs6JHRYwIZ19OBWEM7FLobsILgxUbFQNZwCMjSiWuxTQ36Nrzx4S58QCAXL7keq9auQ1mVof+P8IEmFd7K9Cg8+chvYGww4Lbv/gxFBbMBF51wUumjh30u2Ow2mK1mUbrN3aJ0mbrQY+mhYoLNaoPNaUOv2wEHgSzJKMY1pYuhiI6FvOGweJ8BMUgypMvah93/+zLe/OhVrLh1DepnzpeeMDFNGjzNsf14fedO3LpkPa65kpzmoMqa8v6Tktzpc+Gmn76+PrhcLtiddvTae2GxWQS8bhOBNHeJI9eFh0ZAm5aD3PRcKKIUkDWS80ZTJkEMpbc0O/CH3Y+jylCJrY88jt2dE4vU/A5vTZYCD95/D6KcUdi0+hHhBJwZCs2bBEy3WzhSgKSR19JrgdliRo+1B+4+N1RxKmhUGkSGRSKo/qD0Si9iJxLEqjOn8PBLD2DZypVoyB+/C/0Kb2msE7+8az1uWbQWS665EdRVAWfHBm6I0nUCIv8wSKfTKWCyQ0NDQhEWGobgxiPSk8cgrQ59dje2/uU+RKVEQ/HD9dKJi5Pf4C10tWHrrzZi85rfIk87E6gcB7RRxG4UR/4hoEH8E0TlQq4bLnZhOLBt5+9Q3VmJ3J9dfMTmF3jze5vxxJYteOrOMsSrlGNuplOifB1ee/tl7D/9LxT/8nGpcmzy+dz2uhATHvv1A3j6F39GvHKag2OdLscPrr8ZiwquQ+UfHpQqxyafwlueFIpNd/8CT93xHGIUsUD1NAfnEQH8/pKbkZ9QhI5XnpEqLyyfwrt3w5347x9tglqjCRxwHhHAdcvugLnVhEQKq8Yin8Ez7y7DldqrMKeEOuKqAAPnkQXYuu4J7Nn1dyyWdUuV3uUTePNtzTh99DhWf/8n4hMMWHEYJQc2rXoUj/3m11Kld/kE3pOPPiTeEHapIpBF3U22VovCpMsQd3CvVDm6JgxPc/wAZmWUID07c8R0K2BFwfyGZffjjVd3YUVKhFQ5UhOCty5Pjb+/8hJuv/Gu/tnDpSJuvmE0Q/rmMvztr9ulypGaUJCsOXEAhuN63LacpjfU2V5QnEEZz/RsKsTJBLLWLVu+h20v7sCOppHuGAJvTXYcThw7Bpl8eM52FAXJUPbM73GTbjk0yiS4XJxX8i6eSs1IK0REODWDQAE4U4fndv0eCZdp0D5KQnUIvLRTH2Hf7reRmZwtJuBeRWx5ThkRGYFemqC7+r4anFwmx1l9LRbNXoIbFtwUOH0jzX9bDc3YvGMjSjc+IVboyqrapZMSPE9l9GdvQWlKwJLFN/p25AwF9u7fA0NXO265do2Y1F/0RH6qVKDDzx9diw0P3o99LoVU2a+BAWNlRgwsZisc5CTYqMLHha9rsVph66Vf/JLH8ZOoUenyF+Bw+Wfi18HrwwIe58UcDofI2nJ6xx/i69qdvVQc6OOce6CI4RV8A0c/P4K1uSqpsl8DznMTwD6Xf2+KPyS3O4DAsWrLMSOrEGcqT8Nut4uBz6Pz8KSjv+X2j7EnrnwKTbyJAoSYiFi0tjSPDm+y7mlasiNwP930U+8AKfDISc5FXW3NEJMNwPt/LRojb7/pdu8RBvU0aepM6Fv1onvzDBpfw2NR3Hn5rMu9x59kt7CQMFgsZrEk6tHX8Dy6QOAeGR4Fm9VyicOjKZVfRKGWy+lCH0ULnkHj0oJH4O5++G6/AHQ4KAaWycRC+6UJzwEsvWZp/1YOX4pCBKvdipCQkEt4tKV+62rd1b5PPBC8LlMnwiMiRo/zLhn5GhyLKDUbGhGnpOkZwfNMYS89eP4QUTqnr0WiJkn0e17hhVI8w9MR3sfhs0LXCw2m6waiMnXoNfaKVbWoqCjIBiVORD5vrVaJHpMJr7zwAhpOViM1MQMu98hkqHgZvVgWJIM8WA6nyymG7guJk6GN7fVIjc/GzdeuRkxU9MiNiNNVWh0+Pfoh9nz5Olat+09kpKcjPDxc5D8HnNdHwZ92Zj5i0tVodLShyc6l/XxxtKORjnWmRnzRdBI7392FijO1aGk2oqmRznstbWikEiNPgFYzk2B/RYZ6OioYOFz5KVLTMxEWFgYZNVtPNlnA4zYsl8uhSlAhS5uLjKxspGVmIz0z63zJoCLVJ6WkITJGAbPFhGx1HtJVdM5LSVNmI0OVjSx1LlSxCeLNg6ZtamUU0eB6uKpccAkLDRWcPBpIw9tsNrS3t0Ov18NqtYrc23AxZN5YyM+rqKhA+b8/wOZVj8Pcax4yhA8XN3O2emJ8ItTxaoSHhgdGGj5Hhy8rP0fZ+3/Ej2/7CfJyc6FQKPCnM/2bwgcWgLjf42Qfb13l+dtoMBgen+vo6EB1TQ1e2/Ei1i5ej6LsEpElHlV0GV4sYseFh4WLnZwB098V6PDb7VsQkRqLa7/1bWRlZiIyMnJos2U9X20U7oiNjUVcXBzi4+NHFK5XKpVISkpCSkoKZs+5AnsP/gOxCTGIj6HnjFZi6XWxcVBEK4Tj5EHnbT+tlaVDe1MbTjWcoLGgADHR0WKGMXj1bEiowifYXQzSW9le04EIirSVBDOv8DI0djagrq4G8lC5AOOt8HVFU60PkGVHCq+2730GM4qKhWGiCV6w9CVBj0bEeYPJehNfJCYmBiq6aPEV8/Dsm0+J5UUBxksJmKVGFvV19XVncbL+OPILZwmjsGE8fZ1HI+CNRewi4T6Cx1+YM7nNePfDt4EZfkoHTbbICE+++hCK5uiQQBEId2XcZIdrXPDYnXwx/kQSVAkomTsfL7+/HU6zs3+XeSBrpg7/2LcL7hAZGWMm1Gq1aGWDQxSPxgWPxaMnT1cSExORlpaGrLwCbP7rPf3TsUAVzSYaGxrw+ke7MGvuPGjo3rh1hVJ8N1p3Nm54HvfxKMyj78yiIpiCrHjhjTIxxAecuMXQ5GfrC/ei6PJ5SEtNFffFruNBcjSNGx6LO1B2nwhdkpNRTG964NR+7OP+z1/pcH+It5PRQPqrsp8jMSMTWTk5IhRTqVTCdd40IXgsHnk56uamm0pvOOfKq/DS+8/jkyMHAgOg9E2gLc/fB2d4EPJnzUI63UsymWG0EXawJgyPmy9PmBMSEpBJEThDLJ13FZ7759N47+O90xtgNv1tNM3e+txGdLlMKJw9B2kpqeIeeIQdHtcNl0++Jn/EaMU8TaywOA8kPIWLiInFvk/egqmrG8ULbgCiU4HORukV00C5OlgtVty77Q64wmQoLCkV6aYcarJsBL6Xr3Ida8jmxonqtpx4dHd349y5c6iurkZTczNOfX4YqYpk3Ld8K4Ij6JOc6q9Tcf9GzfSL44fwxzefhCY9E9kUknBT1Wq1ov/maeqFwLF8Co/FW3MZYGNjo0getLS04OyZKnTS8c6b7kFRQUn/tobaKYBIbuOVtW17fofyqo+gLSxBCo2qDI4dxzEd93M8DR2LfA6PxQB7enoEuLq6OuFAPT2urTiObHUO1n/vbsQnKPuXCCcDIsVvnEY/cPA9/O297Yim8CpNm4dEap4ZGRmicFO90AAxXH6Bx+ImbDab0dbWhvr6ejSQE43GDrQ2NUBfX4fS3Ln40dU/RiI1k4H/M+DLjd48ikr9/WdHP6TA92V0O8xIzc6DikCpJXCp5DyOVXnQuxhwLL/BY3GOkPODnP9rJvc1UPTOMDupWRuamwjkOeSnFeKqokWYX7yw/2b5r2GQdRcJkvsynkFx/EAjaJehE/uP/gv/PvYu7EFOqFMzoExQIz4uDkkajRhReXbEQfDwVNNY5Vd4LM5S85Zdk8kkMtDclFtbW2EwGMS//TC26dHdYYDN1INS7RXITy9Ccc4cqJM0YmvXgDhz/1V/KQE/WfslTpz9AifqjuFc+1nEqxKhoBKnjBf5OG6aHL/xoMC5SR4YeM46HnAsv8NjMUBO67MLuS9kcAxQuLCzU2z0ttqsBNEIK0E293RB1ueGJj4Z6jgNFBFxiIuOH7JSFxQkg8najdaOZjQbG9HWpUckhUeRUTGIomNMXH9T5HiNExgachvD4ybKs6Lxum2wJgWeR+tyVQIir5ewExkcgzQajWKEZifyOXaq2GBOUO12G5z02OXk0eX8wlEQPZQHhyAkNAyh5KDw8AjhIl6k4Y6fk5cMiqdYXBiiB9rF9m3eNKnwPGInciDNaya82MRu5NLV1SWOFotFuNHhsMNhd8ApramITefSdgeZjItczAJCCQi7jNcXGBCD8hT+nZsnQ+PXsSbqOI+mBJ5HDJGhiH/1QSC5sPMYHh+5mXNhFzJsLiyGwC4TTiNoPBtgQOw4PnLhOs+Mx1dOG64phTdYnn6RYXpADS58znOegXgKA+QjO2twPQP2lcO8adrAGywGyfIsf3qOLH7saX589Dxm+RvWcE1LeKOJgXpAMcDJBjVSwP8BitSyu+kyvBwAAAAASUVORK5CYII=;" parent="1" vertex="1">
          <mxGeometry x="293.77998779296877" y="837" width="79" height="71" as="geometry" />
        </mxCell>
        <mxCell id="tFofecCMmtv1CYEzfzmN-19" value="Sonar(coded)" style="text;html=1;strokeColor=none;fillColor=none;align=center;verticalAlign=middle;whiteSpace=wrap;rounded=0;" parent="1" vertex="1">
          <mxGeometry x="303" y="902" width="60" height="30" as="geometry" />
        </mxCell>
        <mxCell id="tFofecCMmtv1CYEzfzmN-20" value="datacleaner(coded)" style="text;html=1;strokeColor=none;fillColor=none;align=center;verticalAlign=middle;whiteSpace=wrap;rounded=0;" parent="1" vertex="1">
          <mxGeometry x="303" y="1007" width="60" height="30" as="geometry" />
        </mxCell>
        <mxCell id="tFofecCMmtv1CYEzfzmN-21" value="" style="shape=image;verticalLabelPosition=bottom;labelBackgroundColor=default;verticalAlign=top;aspect=fixed;imageAspect=0;image=data:image/png,iVBORw0KGgoAAAANSUhEUgAAAE8AAABHCAYAAABGZxrrAAAAAXNSR0ICQMB9xQAAAARnQU1BAACxjwv8YQUAAAAJcEhZcwAAHYYAAB2GAV2iE4EAAAAZdEVYdFNvZnR3YXJlAE1pY3Jvc29mdCBPZmZpY2V/7TVxAAAO9klEQVR4Xu2cCXSU1dnH/5nJvk0yk8lk3yaBJIaQoAwVqigftdhqOXbhIBYQwX6lasv3WRX7oQWsy7F6PK21R0ylrVoUrGjFU7GiWD7XsCjIloQskH2SmWyzZZbM9zw374RsIyGZSTJ8/nPueSf3nXkn72/+997nPvdOgrZV6N34WuOSTDoGpBb2GbFMHSz9NvkKOOddbmvGx+UH8cmhQ4huaMD1q1ejbfZC6ezkato7b2VWLHJaT6PlrRex77GN+GDDf6H0kYexY9uz+GFlBWzB/c67PS9BHCdT09J5S6OdOHTkMN79tBzddTX4Rk0dFlSfwWX6VukZ/dpTVIT2/3kAty5fhrLKNql28jTt4NU+8xD07QakmkzY8M47UPb2SmdGau+cUvzzPxZj0by5yJ0xAx+HpUhnJkfyG++6Z7P0eEo1q60C1XtfQyU1xfhoFcISU/HW7ELUJSXSRyxDstGAIOm5HlUlJ0OvLYG8zYGTR77E4deeh/XkQWS4TFicm44zrhDpmf7RlDrvOxFWvL5rJ8o/+RjF2aUozdUhRZkOY1cnWowtMHQb0WTWo6OvBzZYkd7eigUnTqGkugZKcuY7RQWoXnUf1n5zBcIiCRR1fy2NTThY8SkOHNuHTkcnvvPdpTSgLJLe0beaEnjXug34S9mz6Gnrxg+uXoGFcxaLG3danGhqbxLF2GlEh6kDJrMZ1l4reh12mPqs6JHRYwIZ19OBWEM7FLobsILgxUbFQNZwCMjSiWuxTQ36Nrzx4S58QCAXL7keq9auQ1mVof+P8IEmFd7K9Cg8+chvYGww4Lbv/gxFBbMBF51wUumjh30u2Ow2mK1mUbrN3aJ0mbrQY+mhYoLNaoPNaUOv2wEHgSzJKMY1pYuhiI6FvOGweJ8BMUgypMvah93/+zLe/OhVrLh1DepnzpeeMDFNGjzNsf14fedO3LpkPa65kpzmoMqa8v6Tktzpc+Gmn76+PrhcLtiddvTae2GxWQS8bhOBNHeJI9eFh0ZAm5aD3PRcKKIUkDWS80ZTJkEMpbc0O/CH3Y+jylCJrY88jt2dE4vU/A5vTZYCD95/D6KcUdi0+hHhBJwZCs2bBEy3WzhSgKSR19JrgdliRo+1B+4+N1RxKmhUGkSGRSKo/qD0Si9iJxLEqjOn8PBLD2DZypVoyB+/C/0Kb2msE7+8az1uWbQWS665EdRVAWfHBm6I0nUCIv8wSKfTKWCyQ0NDQhEWGobgxiPSk8cgrQ59dje2/uU+RKVEQ/HD9dKJi5Pf4C10tWHrrzZi85rfIk87E6gcB7RRxG4UR/4hoEH8E0TlQq4bLnZhOLBt5+9Q3VmJ3J9dfMTmF3jze5vxxJYteOrOMsSrlGNuplOifB1ee/tl7D/9LxT/8nGpcmzy+dz2uhATHvv1A3j6F39GvHKag2OdLscPrr8ZiwquQ+UfHpQqxyafwlueFIpNd/8CT93xHGIUsUD1NAfnEQH8/pKbkZ9QhI5XnpEqLyyfwrt3w5347x9tglqjCRxwHhHAdcvugLnVhEQKq8Yin8Ez7y7DldqrMKeEOuKqAAPnkQXYuu4J7Nn1dyyWdUuV3uUTePNtzTh99DhWf/8n4hMMWHEYJQc2rXoUj/3m11Kld/kE3pOPPiTeEHapIpBF3U22VovCpMsQd3CvVDm6JgxPc/wAZmWUID07c8R0K2BFwfyGZffjjVd3YUVKhFQ5UhOCty5Pjb+/8hJuv/Gu/tnDpSJuvmE0Q/rmMvztr9ulypGaUJCsOXEAhuN63LacpjfU2V5QnEEZz/RsKsTJBLLWLVu+h20v7sCOppHuGAJvTXYcThw7Bpl8eM52FAXJUPbM73GTbjk0yiS4XJxX8i6eSs1IK0REODWDQAE4U4fndv0eCZdp0D5KQnUIvLRTH2Hf7reRmZwtJuBeRWx5ThkRGYFemqC7+r4anFwmx1l9LRbNXoIbFtwUOH0jzX9bDc3YvGMjSjc+IVboyqrapZMSPE9l9GdvQWlKwJLFN/p25AwF9u7fA0NXO265do2Y1F/0RH6qVKDDzx9diw0P3o99LoVU2a+BAWNlRgwsZisc5CTYqMLHha9rsVph66Vf/JLH8ZOoUenyF+Bw+Wfi18HrwwIe58UcDofI2nJ6xx/i69qdvVQc6OOce6CI4RV8A0c/P4K1uSqpsl8DznMTwD6Xf2+KPyS3O4DAsWrLMSOrEGcqT8Nut4uBz6Pz8KSjv+X2j7EnrnwKTbyJAoSYiFi0tjSPDm+y7mlasiNwP930U+8AKfDISc5FXW3NEJMNwPt/LRojb7/pdu8RBvU0aepM6Fv1onvzDBpfw2NR3Hn5rMu9x59kt7CQMFgsZrEk6tHX8Dy6QOAeGR4Fm9VyicOjKZVfRKGWy+lCH0ULnkHj0oJH4O5++G6/AHQ4KAaWycRC+6UJzwEsvWZp/1YOX4pCBKvdipCQkEt4tKV+62rd1b5PPBC8LlMnwiMiRo/zLhn5GhyLKDUbGhGnpOkZwfNMYS89eP4QUTqnr0WiJkn0e17hhVI8w9MR3sfhs0LXCw2m6waiMnXoNfaKVbWoqCjIBiVORD5vrVaJHpMJr7zwAhpOViM1MQMu98hkqHgZvVgWJIM8WA6nyymG7guJk6GN7fVIjc/GzdeuRkxU9MiNiNNVWh0+Pfoh9nz5Olat+09kpKcjPDxc5D8HnNdHwZ92Zj5i0tVodLShyc6l/XxxtKORjnWmRnzRdBI7392FijO1aGk2oqmRznstbWikEiNPgFYzk2B/RYZ6OioYOFz5KVLTMxEWFgYZNVtPNlnA4zYsl8uhSlAhS5uLjKxspGVmIz0z63zJoCLVJ6WkITJGAbPFhGx1HtJVdM5LSVNmI0OVjSx1LlSxCeLNg6ZtamUU0eB6uKpccAkLDRWcPBpIw9tsNrS3t0Ov18NqtYrc23AxZN5YyM+rqKhA+b8/wOZVj8Pcax4yhA8XN3O2emJ8ItTxaoSHhgdGGj5Hhy8rP0fZ+3/Ej2/7CfJyc6FQKPCnM/2bwgcWgLjf42Qfb13l+dtoMBgen+vo6EB1TQ1e2/Ei1i5ej6LsEpElHlV0GV4sYseFh4WLnZwB098V6PDb7VsQkRqLa7/1bWRlZiIyMnJos2U9X20U7oiNjUVcXBzi4+NHFK5XKpVISkpCSkoKZs+5AnsP/gOxCTGIj6HnjFZi6XWxcVBEK4Tj5EHnbT+tlaVDe1MbTjWcoLGgADHR0WKGMXj1bEiowifYXQzSW9le04EIirSVBDOv8DI0djagrq4G8lC5AOOt8HVFU60PkGVHCq+2730GM4qKhWGiCV6w9CVBj0bEeYPJehNfJCYmBiq6aPEV8/Dsm0+J5UUBxksJmKVGFvV19XVncbL+OPILZwmjsGE8fZ1HI+CNRewi4T6Cx1+YM7nNePfDt4EZfkoHTbbICE+++hCK5uiQQBEId2XcZIdrXPDYnXwx/kQSVAkomTsfL7+/HU6zs3+XeSBrpg7/2LcL7hAZGWMm1Gq1aGWDQxSPxgWPxaMnT1cSExORlpaGrLwCbP7rPf3TsUAVzSYaGxrw+ke7MGvuPGjo3rh1hVJ8N1p3Nm54HvfxKMyj78yiIpiCrHjhjTIxxAecuMXQ5GfrC/ei6PJ5SEtNFffFruNBcjSNGx6LO1B2nwhdkpNRTG964NR+7OP+z1/pcH+It5PRQPqrsp8jMSMTWTk5IhRTqVTCdd40IXgsHnk56uamm0pvOOfKq/DS+8/jkyMHAgOg9E2gLc/fB2d4EPJnzUI63UsymWG0EXawJgyPmy9PmBMSEpBJEThDLJ13FZ7759N47+O90xtgNv1tNM3e+txGdLlMKJw9B2kpqeIeeIQdHtcNl0++Jn/EaMU8TaywOA8kPIWLiInFvk/egqmrG8ULbgCiU4HORukV00C5OlgtVty77Q64wmQoLCkV6aYcarJsBL6Xr3Ida8jmxonqtpx4dHd349y5c6iurkZTczNOfX4YqYpk3Ld8K4Ij6JOc6q9Tcf9GzfSL44fwxzefhCY9E9kUknBT1Wq1ov/maeqFwLF8Co/FW3MZYGNjo0getLS04OyZKnTS8c6b7kFRQUn/tobaKYBIbuOVtW17fofyqo+gLSxBCo2qDI4dxzEd93M8DR2LfA6PxQB7enoEuLq6OuFAPT2urTiObHUO1n/vbsQnKPuXCCcDIsVvnEY/cPA9/O297Yim8CpNm4dEap4ZGRmicFO90AAxXH6Bx+ImbDab0dbWhvr6ejSQE43GDrQ2NUBfX4fS3Ln40dU/RiI1k4H/M+DLjd48ikr9/WdHP6TA92V0O8xIzc6DikCpJXCp5DyOVXnQuxhwLL/BY3GOkPODnP9rJvc1UPTOMDupWRuamwjkOeSnFeKqokWYX7yw/2b5r2GQdRcJkvsynkFx/EAjaJehE/uP/gv/PvYu7EFOqFMzoExQIz4uDkkajRhReXbEQfDwVNNY5Vd4LM5S85Zdk8kkMtDclFtbW2EwGMS//TC26dHdYYDN1INS7RXITy9Ccc4cqJM0YmvXgDhz/1V/KQE/WfslTpz9AifqjuFc+1nEqxKhoBKnjBf5OG6aHL/xoMC5SR4YeM46HnAsv8NjMUBO67MLuS9kcAxQuLCzU2z0ttqsBNEIK0E293RB1ueGJj4Z6jgNFBFxiIuOH7JSFxQkg8najdaOZjQbG9HWpUckhUeRUTGIomNMXH9T5HiNExgachvD4ybKs6Lxum2wJgWeR+tyVQIir5ewExkcgzQajWKEZifyOXaq2GBOUO12G5z02OXk0eX8wlEQPZQHhyAkNAyh5KDw8AjhIl6k4Y6fk5cMiqdYXBiiB9rF9m3eNKnwPGInciDNaya82MRu5NLV1SWOFotFuNHhsMNhd8ApramITefSdgeZjItczAJCCQi7jNcXGBCD8hT+nZsnQ+PXsSbqOI+mBJ5HDJGhiH/1QSC5sPMYHh+5mXNhFzJsLiyGwC4TTiNoPBtgQOw4PnLhOs+Mx1dOG64phTdYnn6RYXpADS58znOegXgKA+QjO2twPQP2lcO8adrAGywGyfIsf3qOLH7saX589Dxm+RvWcE1LeKOJgXpAMcDJBjVSwP8BitSyu+kyvBwAAAAASUVORK5CYII=;" parent="1" vertex="1">
          <mxGeometry x="293.22" y="941" width="79" height="71" as="geometry" />
        </mxCell>
        <mxCell id="tFofecCMmtv1CYEzfzmN-22" value="distancefilter(coded)" style="text;html=1;strokeColor=none;fillColor=none;align=center;verticalAlign=middle;whiteSpace=wrap;rounded=0;" parent="1" vertex="1">
          <mxGeometry x="303.28" y="1112" width="60" height="30" as="geometry" />
        </mxCell>
        <mxCell id="tFofecCMmtv1CYEzfzmN-23" value="" style="shape=image;verticalLabelPosition=bottom;labelBackgroundColor=default;verticalAlign=top;aspect=fixed;imageAspect=0;image=data:image/png,iVBORw0KGgoAAAANSUhEUgAAAE8AAABHCAYAAABGZxrrAAAAAXNSR0ICQMB9xQAAAARnQU1BAACxjwv8YQUAAAAJcEhZcwAAHYYAAB2GAV2iE4EAAAAZdEVYdFNvZnR3YXJlAE1pY3Jvc29mdCBPZmZpY2V/7TVxAAAO9klEQVR4Xu2cCXSU1dnH/5nJvk0yk8lk3yaBJIaQoAwVqigftdhqOXbhIBYQwX6lasv3WRX7oQWsy7F6PK21R0ylrVoUrGjFU7GiWD7XsCjIloQskH2SmWyzZZbM9zw374RsIyGZSTJ8/nPueSf3nXkn72/+997nPvdOgrZV6N34WuOSTDoGpBb2GbFMHSz9NvkKOOddbmvGx+UH8cmhQ4huaMD1q1ejbfZC6ezkato7b2VWLHJaT6PlrRex77GN+GDDf6H0kYexY9uz+GFlBWzB/c67PS9BHCdT09J5S6OdOHTkMN79tBzddTX4Rk0dFlSfwWX6VukZ/dpTVIT2/3kAty5fhrLKNql28jTt4NU+8xD07QakmkzY8M47UPb2SmdGau+cUvzzPxZj0by5yJ0xAx+HpUhnJkfyG++6Z7P0eEo1q60C1XtfQyU1xfhoFcISU/HW7ELUJSXSRyxDstGAIOm5HlUlJ0OvLYG8zYGTR77E4deeh/XkQWS4TFicm44zrhDpmf7RlDrvOxFWvL5rJ8o/+RjF2aUozdUhRZkOY1cnWowtMHQb0WTWo6OvBzZYkd7eigUnTqGkugZKcuY7RQWoXnUf1n5zBcIiCRR1fy2NTThY8SkOHNuHTkcnvvPdpTSgLJLe0beaEnjXug34S9mz6Gnrxg+uXoGFcxaLG3danGhqbxLF2GlEh6kDJrMZ1l4reh12mPqs6JHRYwIZ19OBWEM7FLobsILgxUbFQNZwCMjSiWuxTQ36Nrzx4S58QCAXL7keq9auQ1mVof+P8IEmFd7K9Cg8+chvYGww4Lbv/gxFBbMBF51wUumjh30u2Ow2mK1mUbrN3aJ0mbrQY+mhYoLNaoPNaUOv2wEHgSzJKMY1pYuhiI6FvOGweJ8BMUgypMvah93/+zLe/OhVrLh1DepnzpeeMDFNGjzNsf14fedO3LpkPa65kpzmoMqa8v6Tktzpc+Gmn76+PrhcLtiddvTae2GxWQS8bhOBNHeJI9eFh0ZAm5aD3PRcKKIUkDWS80ZTJkEMpbc0O/CH3Y+jylCJrY88jt2dE4vU/A5vTZYCD95/D6KcUdi0+hHhBJwZCs2bBEy3WzhSgKSR19JrgdliRo+1B+4+N1RxKmhUGkSGRSKo/qD0Si9iJxLEqjOn8PBLD2DZypVoyB+/C/0Kb2msE7+8az1uWbQWS665EdRVAWfHBm6I0nUCIv8wSKfTKWCyQ0NDQhEWGobgxiPSk8cgrQ59dje2/uU+RKVEQ/HD9dKJi5Pf4C10tWHrrzZi85rfIk87E6gcB7RRxG4UR/4hoEH8E0TlQq4bLnZhOLBt5+9Q3VmJ3J9dfMTmF3jze5vxxJYteOrOMsSrlGNuplOifB1ee/tl7D/9LxT/8nGpcmzy+dz2uhATHvv1A3j6F39GvHKag2OdLscPrr8ZiwquQ+UfHpQqxyafwlueFIpNd/8CT93xHGIUsUD1NAfnEQH8/pKbkZ9QhI5XnpEqLyyfwrt3w5347x9tglqjCRxwHhHAdcvugLnVhEQKq8Yin8Ez7y7DldqrMKeEOuKqAAPnkQXYuu4J7Nn1dyyWdUuV3uUTePNtzTh99DhWf/8n4hMMWHEYJQc2rXoUj/3m11Kld/kE3pOPPiTeEHapIpBF3U22VovCpMsQd3CvVDm6JgxPc/wAZmWUID07c8R0K2BFwfyGZffjjVd3YUVKhFQ5UhOCty5Pjb+/8hJuv/Gu/tnDpSJuvmE0Q/rmMvztr9ulypGaUJCsOXEAhuN63LacpjfU2V5QnEEZz/RsKsTJBLLWLVu+h20v7sCOppHuGAJvTXYcThw7Bpl8eM52FAXJUPbM73GTbjk0yiS4XJxX8i6eSs1IK0REODWDQAE4U4fndv0eCZdp0D5KQnUIvLRTH2Hf7reRmZwtJuBeRWx5ThkRGYFemqC7+r4anFwmx1l9LRbNXoIbFtwUOH0jzX9bDc3YvGMjSjc+IVboyqrapZMSPE9l9GdvQWlKwJLFN/p25AwF9u7fA0NXO265do2Y1F/0RH6qVKDDzx9diw0P3o99LoVU2a+BAWNlRgwsZisc5CTYqMLHha9rsVph66Vf/JLH8ZOoUenyF+Bw+Wfi18HrwwIe58UcDofI2nJ6xx/i69qdvVQc6OOce6CI4RV8A0c/P4K1uSqpsl8DznMTwD6Xf2+KPyS3O4DAsWrLMSOrEGcqT8Nut4uBz6Pz8KSjv+X2j7EnrnwKTbyJAoSYiFi0tjSPDm+y7mlasiNwP930U+8AKfDISc5FXW3NEJMNwPt/LRojb7/pdu8RBvU0aepM6Fv1onvzDBpfw2NR3Hn5rMu9x59kt7CQMFgsZrEk6tHX8Dy6QOAeGR4Fm9VyicOjKZVfRKGWy+lCH0ULnkHj0oJH4O5++G6/AHQ4KAaWycRC+6UJzwEsvWZp/1YOX4pCBKvdipCQkEt4tKV+62rd1b5PPBC8LlMnwiMiRo/zLhn5GhyLKDUbGhGnpOkZwfNMYS89eP4QUTqnr0WiJkn0e17hhVI8w9MR3sfhs0LXCw2m6waiMnXoNfaKVbWoqCjIBiVORD5vrVaJHpMJr7zwAhpOViM1MQMu98hkqHgZvVgWJIM8WA6nyymG7guJk6GN7fVIjc/GzdeuRkxU9MiNiNNVWh0+Pfoh9nz5Olat+09kpKcjPDxc5D8HnNdHwZ92Zj5i0tVodLShyc6l/XxxtKORjnWmRnzRdBI7392FijO1aGk2oqmRznstbWikEiNPgFYzk2B/RYZ6OioYOFz5KVLTMxEWFgYZNVtPNlnA4zYsl8uhSlAhS5uLjKxspGVmIz0z63zJoCLVJ6WkITJGAbPFhGx1HtJVdM5LSVNmI0OVjSx1LlSxCeLNg6ZtamUU0eB6uKpccAkLDRWcPBpIw9tsNrS3t0Ov18NqtYrc23AxZN5YyM+rqKhA+b8/wOZVj8Pcax4yhA8XN3O2emJ8ItTxaoSHhgdGGj5Hhy8rP0fZ+3/Ej2/7CfJyc6FQKPCnM/2bwgcWgLjf42Qfb13l+dtoMBgen+vo6EB1TQ1e2/Ei1i5ej6LsEpElHlV0GV4sYseFh4WLnZwB098V6PDb7VsQkRqLa7/1bWRlZiIyMnJos2U9X20U7oiNjUVcXBzi4+NHFK5XKpVISkpCSkoKZs+5AnsP/gOxCTGIj6HnjFZi6XWxcVBEK4Tj5EHnbT+tlaVDe1MbTjWcoLGgADHR0WKGMXj1bEiowifYXQzSW9le04EIirSVBDOv8DI0djagrq4G8lC5AOOt8HVFU60PkGVHCq+2730GM4qKhWGiCV6w9CVBj0bEeYPJehNfJCYmBiq6aPEV8/Dsm0+J5UUBxksJmKVGFvV19XVncbL+OPILZwmjsGE8fZ1HI+CNRewi4T6Cx1+YM7nNePfDt4EZfkoHTbbICE+++hCK5uiQQBEId2XcZIdrXPDYnXwx/kQSVAkomTsfL7+/HU6zs3+XeSBrpg7/2LcL7hAZGWMm1Gq1aGWDQxSPxgWPxaMnT1cSExORlpaGrLwCbP7rPf3TsUAVzSYaGxrw+ke7MGvuPGjo3rh1hVJ8N1p3Nm54HvfxKMyj78yiIpiCrHjhjTIxxAecuMXQ5GfrC/ei6PJ5SEtNFffFruNBcjSNGx6LO1B2nwhdkpNRTG964NR+7OP+z1/pcH+It5PRQPqrsp8jMSMTWTk5IhRTqVTCdd40IXgsHnk56uamm0pvOOfKq/DS+8/jkyMHAgOg9E2gLc/fB2d4EPJnzUI63UsymWG0EXawJgyPmy9PmBMSEpBJEThDLJ13FZ7759N47+O90xtgNv1tNM3e+txGdLlMKJw9B2kpqeIeeIQdHtcNl0++Jn/EaMU8TaywOA8kPIWLiInFvk/egqmrG8ULbgCiU4HORukV00C5OlgtVty77Q64wmQoLCkV6aYcarJsBL6Xr3Ida8jmxonqtpx4dHd349y5c6iurkZTczNOfX4YqYpk3Ld8K4Ij6JOc6q9Tcf9GzfSL44fwxzefhCY9E9kUknBT1Wq1ov/maeqFwLF8Co/FW3MZYGNjo0getLS04OyZKnTS8c6b7kFRQUn/tobaKYBIbuOVtW17fofyqo+gLSxBCo2qDI4dxzEd93M8DR2LfA6PxQB7enoEuLq6OuFAPT2urTiObHUO1n/vbsQnKPuXCCcDIsVvnEY/cPA9/O297Yim8CpNm4dEap4ZGRmicFO90AAxXH6Bx+ImbDab0dbWhvr6ejSQE43GDrQ2NUBfX4fS3Ln40dU/RiI1k4H/M+DLjd48ikr9/WdHP6TA92V0O8xIzc6DikCpJXCp5DyOVXnQuxhwLL/BY3GOkPODnP9rJvc1UPTOMDupWRuamwjkOeSnFeKqokWYX7yw/2b5r2GQdRcJkvsynkFx/EAjaJehE/uP/gv/PvYu7EFOqFMzoExQIz4uDkkajRhReXbEQfDwVNNY5Vd4LM5S85Zdk8kkMtDclFtbW2EwGMS//TC26dHdYYDN1INS7RXITy9Ccc4cqJM0YmvXgDhz/1V/KQE/WfslTpz9AifqjuFc+1nEqxKhoBKnjBf5OG6aHL/xoMC5SR4YeM46HnAsv8NjMUBO67MLuS9kcAxQuLCzU2z0ttqsBNEIK0E293RB1ueGJj4Z6jgNFBFxiIuOH7JSFxQkg8najdaOZjQbG9HWpUckhUeRUTGIomNMXH9T5HiNExgachvD4ybKs6Lxum2wJgWeR+tyVQIir5ewExkcgzQajWKEZifyOXaq2GBOUO12G5z02OXk0eX8wlEQPZQHhyAkNAyh5KDw8AjhIl6k4Y6fk5cMiqdYXBiiB9rF9m3eNKnwPGInciDNaya82MRu5NLV1SWOFotFuNHhsMNhd8ApramITefSdgeZjItczAJCCQi7jNcXGBCD8hT+nZsnQ+PXsSbqOI+mBJ5HDJGhiH/1QSC5sPMYHh+5mXNhFzJsLiyGwC4TTiNoPBtgQOw4PnLhOs+Mx1dOG64phTdYnn6RYXpADS58znOegXgKA+QjO2twPQP2lcO8adrAGywGyfIsf3qOLH7saX589Dxm+RvWcE1LeKOJgXpAMcDJBjVSwP8BitSyu+kyvBwAAAAASUVORK5CYII=;" parent="1" vertex="1">
          <mxGeometry x="293.49998779296874" y="1046" width="79" height="71" as="geometry" />
        </mxCell>
        <mxCell id="tFofecCMmtv1CYEzfzmN-24" value="" style="shape=image;verticalLabelPosition=bottom;labelBackgroundColor=default;verticalAlign=top;aspect=fixed;imageAspect=0;image=data:image/png,iVBORw0KGgoAAAANSUhEUgAAAJ4AAACNCAYAAABGx8NOAAAAAXNSR0ICQMB9xQAAAAlwSFlzAAAXEgAAFxIBZ5/SUgAAABl0RVh0U29mdHdhcmUATWljcm9zb2Z0IE9mZmljZX/tNXEAABqnSURBVHja7Z13eJRV2sbzgYQOhhZaJCIQjPRQhNCEAAECBEIMIZmUyZT0MqGDCkgLTQFFkC5IR9rSi4soIqigcom6LCCK4mIDXXFll/Od5+U+4WWYSSZkanL+uC8vSSbJzPm9TzvPeY7XlClTvKSknC35IUhJ8ErVB+/l9X8kCZ6UU0AjpWq1jXMNhhSTPnlHrjH55dIIoYTCCaBxlcnVGtrlGo1TTIbksxw2phb/+iP0PaUJPgmJA2HL0RmG5RiMS00Gw2U1aGN1eraqX6gavApc5UoTfBIYO8JmiDTUyNHptNlG40aTMfmWGrbJmji2secz7DP/x9ntsmUZp00NXnWuiqXJ8kl4igdbmUytNpBbNlOO3njS3IXmRY1gezp1Yldr1lJAM5cKvLpc1bjKc5WV4ElZdKGZBkMXky55Qa7B+IU5bMsGDGTHWrZiP1WtahE2K+A15qqlsnoSPAkcd6EhIZVytIaRJr1+DU8QflGDNilRy9aGhLAzTzRhf3iXLxQ2K+AFwupVFrGeBK90Q1fGZDTOMrdq00fGsJ1dgtl5P78igWYNvE4dOsTx3+UHd+tdGtythMw6dLT43jkGwyfmSQJBd6F+/WJBpwYvNmI4M8TEsrT4+CuZSbpjPAvO40lKf0pW1G5eglfCE4bIkJAqyZqEyLTExLmpsYkfZ3B3mqnVMZOZ5SM3S5nqw7hZNXijdZlMz8Gj35OtNzCTwZj/NZNeqfu9TK6+JIEogTOru1EpJMtgvJWt0ysgpMTFM130SDbOmMPmj8ljiyctYHmjprKJaTnMUmJxIjDQpsRCDd7pN06zr//2Nbu85xI7v/0cO7xsH1s2bREbm5rxwO+g3Q4q2VDc6ckQlnrYaEfhbpHXeE1ZWG5tcrjVmWaayDbOXcuOvn6InV1/hr2/6n128NWDbMe8HWzDjA1s1Qur2KKxC9j0rClsfEr2A4DMGx5ZYCnFEng3jt1g/3n/P+x/p/7H2IdM0eW9F9mR5fsVEO8D0Jh8ix4SsoSi9udJAJZq62Zee5s19gW2f+ku9u3+K+zf7/6bXT98nV3adYl9suETdnz5cbZv4T62dfZWtu7FdWz5c8vZ4nGL2cu5L7O52XPZzMwZ7IXUiWxcMlnCFGYeF27t1l0pHhcVPLX+eO8PdmLtMbbwubz7ITQYLlMtUW0FJXhuB5xOq66/Tc4ew3a+soVdPfCNsrh3Tt9htz+4rSzyz0d/Zt/s/YZ9vuVzduqNU+zokqNsz4I9+fCteH4Fe238a2zh6IVsvmk+m5M1h83KmMVmpHEIUyax8cZcNsqYyixtl50KCCgyeGr99PaP7MDru9n0URNVABqvmXS6qZpITU133wEpTRbOJNypUhLhC0bW4/YHf923oATef0/9VwHgt3d+U6weQfHFti/Yx29+zE6sPKEAuHfhXvbWnLcUt7tmyhq2bNIyxQJagnBKygtsYvJoNjr5wZjtYcFT69T6E2zehOmqn5nyKwHIk6TK7gpgiQcuU6vtre4IITf12dazVheRwKOFJ6v354k/Ffh+OvoT+/7A9+zy7svsy7e+ZJ9t+kyB5d0V77Ijrx1RINw+dzvbNHMTe2PqG/mWcNGYRewl00uKK87LzGMz02eyF9OmsslpE9mk1FHK3zM+LYt9uPbDYoEnRImJOhakBy1Hq4sRdUF3ArDEFn4NGk3DHKNxU/6+6djJysLYsoACPmH5yO3efOem4nr/dehf7Oq+qwqEX731FTu3+Rz7aN1HiiV8e+nbbP+i/Wzn/J1s86zNijte+fxKtnTCUvbKmFeUeJCsIcH46thX2dqpa5W4kSzplT1XlN9RHPCEKGxQx4EmnfFYpsYQ5E5JSIkDjp5u7lYn5hqS/1RqbZkmdmzVkSIvHsGntn5/nfxLsYCUdJAV/OXtXxQ3TJaQrNWFHReUWPAMz4BPrj7Jjr1+TMmCd7+0W4kJ109fz1ZPXq0kJeSWKSvekrdFsZiUvHy791vl59LvKS54Qmc2nVZiWAFgjsEw213cb4mzcia9/gPxQW99eT27efxGsRZPDSBZQDWEZAkJll///iv78ciP7NrBa0oy8s+d/2Tnt55XgKKkhDLiw4sPK4kJlWO2zd6muGaydmQpKX6k1/5+/He7gkeiGHbPa9vv1QR5YpWq0bRwtfUrKbFc2cwEXSwF1SJTpfqXvRbPEoQCRAKF3OOtE7cUcChOo5jwh4M/KFaMyjEiLqRYjuqBBCKJLCP9O7lteg39DAKbfoe9//YfDn9/z/1yb5CpM+Qi9nOJ9fN4K6cJ09TK0RveEFZu1cwliiWy98JZg9DcGgoIySWr48Lv9n+X75LJwpFFpBiR/o2+TpZTxHeOAE9t/e7tghgP0OfnCvg83bX6iU18ciUPE8s5EkJLLpksG4FGFpH+S2DS1+j76HWOgs48+xWxHxWf4Xqd2hHjqdCVNURHtxRnGagmJwrArlZBEKqtIbll+i/9P/07fY8jrZ2lXZDFk+fn1/3StdoQZ5ZdPDKeS9Vqu4l4jgqnxU0gnAGiOi4kyITo/8XXnAWd2vWunb38Xtyn1eqcde7D00olj6QmJAwSpRKK58x3HtxZamtoSa76u9RxX7ZON80Z8HkUdMnx8YP5h6NAR/urngKcJ4i2D50Jn2dBB0tHbUISFvuL9nwFfOla3WhHnvX1DPcarenIP4wb9IFQR4aExFnwaQ2Ogs9DoLubSNBOhITDufAZ4uOHOAI+t4ZOExnZKNdgvEIfwMZ5ayQUThR5FpHtGqI1newd87ltnS4kKKh6dpL+OL15qjdJGJwvSuCww/F1WEiYrz3hc0voaJRDVlLSq6I47IwtMCnLEkVmMgIYLlS2RIGncrHeqZqEBLEN5ojNfqmi7XCI9vrMpKT59prv4m7QldMMHdpWlE0oyJWL73rRwz8mNf0OrUmyJmEEph0Uy+W6VTJBQ2uy9cZPZQbrvplujt7wQ0hwSL3iZrpuFdelJmjHiX46T9oKKy0S5zkytbqVxZ1s5TZxXVhISBOTwai42IIO40i5TnSkUnQy62JiBhQn3nM1eMLFVsrS6o+IjX+5yO4r2q6Ey/0qKDCw5sO6XHdwsRV0MZoYkcW6c4uT1N1WKnGGNzUxMe9hXa6rrR1lR1Wy9IZz9EZc1UEsVfQsF+d2/+QhUlO43CJZPVdaOyWL1UXHxMqEwvNEIRGtW0Zi4pKHmWTq0oSCJmBKa+eZoqMGwuqF9uzZrKi7Gq60dpW0UTFxYltMWjvPtXrpidqlFDIVxeq50tpVz4C1k+WTEmH1Aopi9Vxm7TQREeFipolcRM+3esmxcdOLYvVsPdllD5UROxRk7dITtJvpD6axq4UdgimOJByOFXmru+c09Bf4uvrYavUKdImWRu17ijbMXe2SI4OlUeJweOTgwQNttXoFbtp7KnRC4tyqhM+xEscjUzUJ6zg3j9qylWa1PYlqbGIBPe2DEH83ndSnU/oSPseK9nCRZNxoXK8eXRRTqbDdDGvtSfRCH08Hj+aUEHxi9JeEz3ESnSuaiMgk1Q1FVnczLLYn4RrLBp4OHo0JowGKzhyIU1pFGwD0mafExb3J2alRWJJhsdSBmwSbeDp4/9j+D2UiE1k9R82dk7q/psez2285O77YRnvEWpJhvmlfDlkJdZg+5eng0dBDmktn7xGvUgVntz2CgzvDa3rbCh59Y1WuhlxtPB08mkdMo2HtNdRaqmDR2Wf63BOiop4rzN1aAq8arrAM8nTwaPQrTVMv7hh/KdskzmWkJWgPm7lbm8F7jKu9p4NX3ItLpIommrOMOO86Jafq7FaCJwFxqMSZjGaNm7XCFprFJlEJnpRdJdriQ3v0HIzqSEVLcZ4ET8quEqNto8MGjyoozpPgSdlV4hRaUnT0CsR5VS01DUjwpOwq0SaVokl4GxxZrOdJ8KQcktmmxid+xBlqrEow7ovzJHhSdpXoVMlM0l3mDNHRx5qWCskSPCmHgJeVpPueM9Scq7alNikJnpRdRacFFfB0+p84Q4HWMlsJnpTDPn/OUEs0nFSR4EkwnAlea676qnMYEjwpp4DXxlotT4In5Ujw2qHFToInwXCsaFi30qGiN/xOrXVosXugS0WCJ+WYcopWd02CJ8GT4EnwSrYu7P7y7iwVjeZTCZ4Ez2kSTQJGjeZDJBd+SC4keFKOkzhfGx8ZuZ0z1FZmtRI8p4guxqHPflj//otkHU+C5zQtfC5P+ew7d+iQxRlqJXcuJHhOkTjU7VvTly5YbsFVVzYJSPAcqvzisU7/b87PM1xPojtFtkVJQJyQ0cZoznF+unEFoB+vomwElYA4TOJG7xGDBm3k/HTheqJYHcieKgmecyXO1Aa1aEWJRUcuf9WE0DK2gheUGpdw3lOhm5RuUmanSPCcI7FVhviuv6p4XM3WU2ZV8YJ2+AFxXJlco7nGc020UZO4aGoQ/fCZXAu4VjTx9z/XtUNHlhCuYdNSp9lNM9JmsNmZs9mCUQvYmilr2N6Fe9lH6z5ShvbIaVGOlxjYox0xknYs+ph1H5cr7EC3mI/XADWYEC66CtwI+Exco2wUgToGsD7PNYvrlRo1auzp8XRnNqh3KJuTNcdumpczT4FuyYQlbMOMDezQ4kPs7PqzylRQAk/Ox3OsxASB8ND+q/k698BBnzrW5iGbTwQth5qLL14YzDWIayRXIpeOy1AEEbCpXNkAcAbB17Nzlz/6dO/O8rJmsaUTltpFyyYtYyufX8nenPYm2zV/Fzu+/Dj7fMvn7NrBa+z3479L8BxcRhHDehr7+xuRWDSxllhYG0VbAUP1/NEzT2lxKAAM5xpWBEVwPcsVA2jJYk5t36rV6cF9+7FxulFs2+xtdtH2udsV4PYt3MeOvX5MGcp4adcl9uORH5UPRo6idZxOrD1299bu6BjqSKG7LtpzNVInFrZMfRdxHpnJx2kkLdpbOnF1Bs22Khjg9uIKg+VMq1e79oLo8HCWEDmCvbPsGHtv5XvF1omVJ9jJ1SeVhOLc5nPs4q6LirVTx3cSPMdo8eT5Cni9u3Z/BfGd2Cqrau2yFWu3ZpfHi2rhBzQChE8UUWRum6ngpWr2cK7kZwcNvpIUPZLtXridXdhxwS4i2C7vvsyu7rvKrh++rmSzt07cktbOCdlslk7/R6UKFciwdC8svivogpVHAF8lAPgoZmDUeAjVQnbjjyehJ7nfXl26bEhLSGRzxk5T7qOwh34++rNyvQABR5Pe6ZoBgk5aO8fpwOu7744lCw8/yNd1MDxjY5tnIFuArywA9AaE5fGDiqpKKuvZCGWafj7VfIyZiUl/8SeFXdx9QbFMxRWBRiLXKq6TktA5TjQ14IXs0XcIvFbNAyfwde2LvKBhQWNoC7tET33rogDxYSSsZxWY3wDEfkOjwsIOmQxGtmL6YgUSe4hAE5I3ODpniywxKuoMQqhutrhZm+6rtfN1oY9iV4Q6U0Mb1KuXzi3ebeUWnv1X5HWhHqSbx2/kl1BaNGv+HLLZDsgFCr0+1FkXJJexUCOkIHT4iCHhh+mPpwt35YJ6nrVLiBpxFpsMvdB/V2A262zwRLZcAU+DP2o9A3kmlJSRpLtJb+Ly3otyUT3P2k3m6zgEpbYmqoHbtt3e6ATwHriySmS4A0P6KLd1U3cDBaxycd1b4jr4hMioT1Cb7aNKKqoXdnOj08CzYPVqIOXuCKunS41PuEZvhoY3y8V1X+VfBa833G7k5zcWu1nBqNcWmlS4Cjz1zkh9xARUVH62fevW8+gNkQmnoqRcZPcsn4gzFWF9+u2EteuL02SP2Xo7t1PBM7N6FbGBnG/1uOJjhg07SW+KLt2VC+2+CUWyJp6uBk1SWbsAWLvKtlg7V4FnbvVErDfcp5pPdiYSjTObTsvFdiNR4ieabAObNJvO1ysasV0b9G/abO2cDp6VWO9xZLjUdBr7zNNdVtKbm5iRc4dG18tFd72ou2f6qIkKdBEDBhzi65SAbqXOmOxeu7CLkV0OnoWm07qo63Wl3Qwy4SMGh79HbzJv7GSZ5bpRFmuIib1cyds7ja9RJGLzlmgarl4Ua+dK8NRWT+xmtBEdzxW8vTPoTdKbpc5Wufiuk2gCyEhMuulbu/Y49FaGwks9jli9oq2xnUvBs7CbURvFx05INOL8GjR4XsR7NAhGQuB8iZFjysmxli0Xogt9CBKK5vBWVWyp27kTeMLqiZNt9XEvQne4XG27li0X0Zsek5p+5/z2cxIGJ+rqgW+UOJs+/369etPkJz1cbC+0t4mEokJRXKzLwTNrt6+IrTThcnujZd4wqHefv0n4nCuqo4p2p5Hhw05R4y6y2H5wsY3hYkWxuIwngmfucp9Al0MoCpTJQ0JDD4jiMpl/CYdjoRMZbHxkJI2ioGRCgxDoaexQ+D6si3UL8Cy43KqIGwKQqofhTaeNDA8/Lcos5AYkJI4pm1Al4W6PXfQXPMkzoXQyBFWHQIRERc5i3Q48C2c9qiNFD0RjIb3peK6M2IiIM8qUgEyTtHwOsHRiBIV+ZMzXHLpcirNxWrCnKq7zUWexJQG8Mmbxnh/qRD2QbCTSh0FPooj55O6G/RIJEdMZ4uKuVqtSbRyOow5HvN0WrWwiriv3sC7WrcCzEO9Vwpv0R7LRC2d0aX8wU7hd2c1SfFG3CT3EyviJZ0d8yR/uUchgn8WWWBCSCbE74V1c6NwKPCvJRi0UKdviyRsO+LLCevfZK+DbOG+NhOghJAZl381eh36IiQ8EXRS6TtqjvlpHlUyULS50bgeehUaCKqpMNwg7G5HC8j0THLw5R29UzmzQ7F3ZTmV7EiFmnZCG9O17yAy6fugaaooMtmpxkwm3B89CpitOp6nhG47AN6NtixZLaDtHZLwy7it8N0L01FEzJz285EEQ06mha4YKQzV7Q+e24FmZauALsx8EtxuBLZz0OrVqTaH4RO16ZXPB/aLPY89r2/OtnFET993jfn5zMAUsCZ6kL2qo5tDZ3HXi8eBZga8OAt226I4YilILTaQy9ezSZQs9xaKzRe503LNyoj5HGtq//995EkGZazoe3uHwJO3hXgV0FR52Z8KjwbMCX20kHK2xr0tjE2IxEi2bP8VzDSNjrogPmbqZS2tfH50GU8dyGYna39q1br0CU7tSMHRzKKoG7RDO+JpbOntD5xHgWYn5xDiMFuiUGICznRSnZNBgyJDg4B1ZOv0t8aFT2zYF1aXFrVKZSRxBJC9AVq5alWrPI54zoL1pEB7e1niY65glEg6BzmPAswBfZXQvN8RdCp0Qn0Rgi0dxvfyDnjx8YNh7Aj4Kqqm/jCxBSQWOZtWJvVZSXETk5/Xr1s3jn0cu9l21qNGFYpRcCzzEtfBQ5ycSjoLOo8Azg08UmR/F3mFTuIqecL0xKA1Q4DzK389vfmJU1FdiMcgS0J1bJaX8QpacLJzIVkXy0Oapp5ZhJHAWQhENXGtvJBHN8fDWUBWHyzoSOI8Ez8L2WgXEI2KIZEs8xaHI0hIQy1CNagwtBFkA9XR4ioE8dd+XYlcKIUTf3N3h1yMudmwXtA7zp3Ng/RNRKhmA/e/WiOfq4uGtiIfZKdB5JHgW4BOTqGri6Q1AdvYMYpholAvSEFSPadboiUXRQ8I/VgNI1oIW0d0TEbLStOMgNvTVLhUWbizeZzpi3pFotOiN+tyT6HushXiugiOTiBIFngo+ddxXCZ0tvirr1xn7jeGqOczpAkAe+8yJHDT4FGV76kWk0gO5LneZ5UKb+ASbGPkqRMkT/f30IKmAy0DyoEFnST8kYK1g5eqhCaOSyrU6FTqPBs8G69cAsV8b9JL1w0LEqgDMQQw0vnVg4HJaRHUmLOJBKsk4E0QBGp3uohYw88tjYiIiPu0a1HETJumPUVk4PYAbjuOi3RD7BsAbqK1cOWckESUWPDP4hPWriNivNtxKABZATLBXAyiuQxgFqzGeYiSCMCUu/rqlW4PIzZH1oZ0AypIpRiQVJVmhhIBeQxeT0M8guMVdr+Yii0yuNKRbt508U5/K/8Zx+HuzEULo8H4iAFx3hBtPImOtA2/gUitX4sAzc71q61cZwbMvFqA5ABQWMBwxYCKyvgxYwXwI+UK/+HTbtm8O6z/whCFW870zrsNKS0j8hWLQHp07b/Nv2PBl/ndMAGyjVe40GaWRkchUQwFcEIDzR/Lgg8/hvoKwK6ErUeBZif3KqQD0UQEYgG23LtgqCoN7isViGuG6slH/Gi1AJAgIBu6aVwzo2ftgeGjoO9oR0ZdIBIwtYJE7F68hyxoWEnI0qEWLNc0DApZ43b2OazxAG4OHIAewpSBR0qAWNxgxbDAeqOZmwFVxB7daKsCz4n7LYQGqwALWgQtuiiSkI6xFXyxmJJKRBMRNKVj4bK9712oJGMcJICFb7nkT3ysAG6uCzITfk4kwwIiHQcAWDuvWE4Xz1tjUfwwPliXgyrgLcCUevAIAFBawOmLA+siCmyMR6QQI++Bk1VDUwGIBorhWKwXxVQYKtAJKE6xkrtf9d7uJfxPfk4PXZcK6Csh0cP0abANGoCzUD7B1hrUORMNEA7yPR/G+HgDO3aArFeBZAdD8Hg8fWMGGKghbIUDvggXvgwLsEK97V2VFA8g4wKKFK9TBUqrvddNDOnxPIjprNIjTovBzwwF8P9Qiu8Iit0Hs9gTOo/hix6Ea3kd5TwCu1IFnAUCRhAg3XBmLWAMQihuNmmDBW3ndu1orGIeQesE9hwKWQXDV4bCU5goHuIPw/f3x+t6AuyvOrraHCw1EOPA4HgpflIqqq6ybN96HW7pUCV7BWbD6Mhn1pTCPYqEFiI8Bgqawik8ByDYI7tvDOol738z1NL7eARC3xetbAO6mcJ+N4EJ9UXvzwUNhFTZPAa7Ug2cDhCIeFCBWgaXxAYy1AUZ9QOIHYPwBZ2Ov++91a4x/98f3PQYrVh9ZaB0VZNUBfmXUJMtbg83TgJPgFQyg+Y1GAkRvMxgrA8iqsEjVve7d+2bp7jcffL06vr8qXl8ZP08NWTkVaCUCNgle8UEUMAogBZTqe9/M735T/7u3Cq5yqp+lhqxEgSbBsx+IlqAs41Xw3W+Wvs/izyzxn6UEymlwlhqoJHhSbqv/BweZwbmF4PgUAAAAAElFTkSuQmCC;" parent="1" vertex="1">
          <mxGeometry x="416" y="715" width="78.44" height="70" as="geometry" />
        </mxCell>
        <mxCell id="tFofecCMmtv1CYEzfzmN-25" value="WarningDevice" style="text;html=1;strokeColor=none;fillColor=none;align=center;verticalAlign=middle;whiteSpace=wrap;rounded=0;" parent="1" vertex="1">
          <mxGeometry x="425.22" y="777" width="60" height="30" as="geometry" />
        </mxCell>
        <mxCell id="PwznVGh7WyznaAtkqByY-2" value="" style="rounded=1;whiteSpace=wrap;html=1;arcSize=5;fillColor=#FFF2CC;strokeColor=#d79b00;" parent="1" vertex="1">
          <mxGeometry x="-376" y="867" width="480" height="267" as="geometry" />
        </mxCell>
        <mxCell id="PwznVGh7WyznaAtkqByY-3" value="" style="shape=image;verticalLabelPosition=bottom;labelBackgroundColor=default;verticalAlign=top;aspect=fixed;imageAspect=0;image=data:image/png,iVBORw0KGgoAAAANSUhEUgAAAJ4AAACNCAYAAABGx8NOAAAAAXNSR0ICQMB9xQAAAAlwSFlzAAAXEgAAFxIBZ5/SUgAAABl0RVh0U29mdHdhcmUATWljcm9zb2Z0IE9mZmljZX/tNXEAABqnSURBVHja7Z13eJRV2sbzgYQOhhZaJCIQjPRQhNCEAAECBEIMIZmUyZT0MqGDCkgLTQFFkC5IR9rSi4soIqigcom6LCCK4mIDXXFll/Od5+U+4WWYSSZkanL+uC8vSSbJzPm9TzvPeY7XlClTvKSknC35IUhJ8ErVB+/l9X8kCZ6UU0AjpWq1jXMNhhSTPnlHrjH55dIIoYTCCaBxlcnVGtrlGo1TTIbksxw2phb/+iP0PaUJPgmJA2HL0RmG5RiMS00Gw2U1aGN1eraqX6gavApc5UoTfBIYO8JmiDTUyNHptNlG40aTMfmWGrbJmji2secz7DP/x9ntsmUZp00NXnWuiqXJ8kl4igdbmUytNpBbNlOO3njS3IXmRY1gezp1Yldr1lJAM5cKvLpc1bjKc5WV4ElZdKGZBkMXky55Qa7B+IU5bMsGDGTHWrZiP1WtahE2K+A15qqlsnoSPAkcd6EhIZVytIaRJr1+DU8QflGDNilRy9aGhLAzTzRhf3iXLxQ2K+AFwupVFrGeBK90Q1fGZDTOMrdq00fGsJ1dgtl5P78igWYNvE4dOsTx3+UHd+tdGtythMw6dLT43jkGwyfmSQJBd6F+/WJBpwYvNmI4M8TEsrT4+CuZSbpjPAvO40lKf0pW1G5eglfCE4bIkJAqyZqEyLTExLmpsYkfZ3B3mqnVMZOZ5SM3S5nqw7hZNXijdZlMz8Gj35OtNzCTwZj/NZNeqfu9TK6+JIEogTOru1EpJMtgvJWt0ysgpMTFM130SDbOmMPmj8ljiyctYHmjprKJaTnMUmJxIjDQpsRCDd7pN06zr//2Nbu85xI7v/0cO7xsH1s2bREbm5rxwO+g3Q4q2VDc6ckQlnrYaEfhbpHXeE1ZWG5tcrjVmWaayDbOXcuOvn6InV1/hr2/6n128NWDbMe8HWzDjA1s1Qur2KKxC9j0rClsfEr2A4DMGx5ZYCnFEng3jt1g/3n/P+x/p/7H2IdM0eW9F9mR5fsVEO8D0Jh8ix4SsoSi9udJAJZq62Zee5s19gW2f+ku9u3+K+zf7/6bXT98nV3adYl9suETdnz5cbZv4T62dfZWtu7FdWz5c8vZ4nGL2cu5L7O52XPZzMwZ7IXUiWxcMlnCFGYeF27t1l0pHhcVPLX+eO8PdmLtMbbwubz7ITQYLlMtUW0FJXhuB5xOq66/Tc4ew3a+soVdPfCNsrh3Tt9htz+4rSzyz0d/Zt/s/YZ9vuVzduqNU+zokqNsz4I9+fCteH4Fe238a2zh6IVsvmk+m5M1h83KmMVmpHEIUyax8cZcNsqYyixtl50KCCgyeGr99PaP7MDru9n0URNVABqvmXS6qZpITU133wEpTRbOJNypUhLhC0bW4/YHf923oATef0/9VwHgt3d+U6weQfHFti/Yx29+zE6sPKEAuHfhXvbWnLcUt7tmyhq2bNIyxQJagnBKygtsYvJoNjr5wZjtYcFT69T6E2zehOmqn5nyKwHIk6TK7gpgiQcuU6vtre4IITf12dazVheRwKOFJ6v354k/Ffh+OvoT+/7A9+zy7svsy7e+ZJ9t+kyB5d0V77Ijrx1RINw+dzvbNHMTe2PqG/mWcNGYRewl00uKK87LzGMz02eyF9OmsslpE9mk1FHK3zM+LYt9uPbDYoEnRImJOhakBy1Hq4sRdUF3ArDEFn4NGk3DHKNxU/6+6djJysLYsoACPmH5yO3efOem4nr/dehf7Oq+qwqEX731FTu3+Rz7aN1HiiV8e+nbbP+i/Wzn/J1s86zNijte+fxKtnTCUvbKmFeUeJCsIcH46thX2dqpa5W4kSzplT1XlN9RHPCEKGxQx4EmnfFYpsYQ5E5JSIkDjp5u7lYn5hqS/1RqbZkmdmzVkSIvHsGntn5/nfxLsYCUdJAV/OXtXxQ3TJaQrNWFHReUWPAMz4BPrj7Jjr1+TMmCd7+0W4kJ109fz1ZPXq0kJeSWKSvekrdFsZiUvHy791vl59LvKS54Qmc2nVZiWAFgjsEw213cb4mzcia9/gPxQW99eT27efxGsRZPDSBZQDWEZAkJll///iv78ciP7NrBa0oy8s+d/2Tnt55XgKKkhDLiw4sPK4kJlWO2zd6muGaydmQpKX6k1/5+/He7gkeiGHbPa9vv1QR5YpWq0bRwtfUrKbFc2cwEXSwF1SJTpfqXvRbPEoQCRAKF3OOtE7cUcChOo5jwh4M/KFaMyjEiLqRYjuqBBCKJLCP9O7lteg39DAKbfoe9//YfDn9/z/1yb5CpM+Qi9nOJ9fN4K6cJ09TK0RveEFZu1cwliiWy98JZg9DcGgoIySWr48Lv9n+X75LJwpFFpBiR/o2+TpZTxHeOAE9t/e7tghgP0OfnCvg83bX6iU18ciUPE8s5EkJLLpksG4FGFpH+S2DS1+j76HWOgs48+xWxHxWf4Xqd2hHjqdCVNURHtxRnGagmJwrArlZBEKqtIbll+i/9P/07fY8jrZ2lXZDFk+fn1/3StdoQZ5ZdPDKeS9Vqu4l4jgqnxU0gnAGiOi4kyITo/8XXnAWd2vWunb38Xtyn1eqcde7D00olj6QmJAwSpRKK58x3HtxZamtoSa76u9RxX7ZON80Z8HkUdMnx8YP5h6NAR/urngKcJ4i2D50Jn2dBB0tHbUISFvuL9nwFfOla3WhHnvX1DPcarenIP4wb9IFQR4aExFnwaQ2Ogs9DoLubSNBOhITDufAZ4uOHOAI+t4ZOExnZKNdgvEIfwMZ5ayQUThR5FpHtGqI1newd87ltnS4kKKh6dpL+OL15qjdJGJwvSuCww/F1WEiYrz3hc0voaJRDVlLSq6I47IwtMCnLEkVmMgIYLlS2RIGncrHeqZqEBLEN5ojNfqmi7XCI9vrMpKT59prv4m7QldMMHdpWlE0oyJWL73rRwz8mNf0OrUmyJmEEph0Uy+W6VTJBQ2uy9cZPZQbrvplujt7wQ0hwSL3iZrpuFdelJmjHiX46T9oKKy0S5zkytbqVxZ1s5TZxXVhISBOTwai42IIO40i5TnSkUnQy62JiBhQn3nM1eMLFVsrS6o+IjX+5yO4r2q6Ey/0qKDCw5sO6XHdwsRV0MZoYkcW6c4uT1N1WKnGGNzUxMe9hXa6rrR1lR1Wy9IZz9EZc1UEsVfQsF+d2/+QhUlO43CJZPVdaOyWL1UXHxMqEwvNEIRGtW0Zi4pKHmWTq0oSCJmBKa+eZoqMGwuqF9uzZrKi7Gq60dpW0UTFxYltMWjvPtXrpidqlFDIVxeq50tpVz4C1k+WTEmH1Aopi9Vxm7TQREeFipolcRM+3esmxcdOLYvVsPdllD5UROxRk7dITtJvpD6axq4UdgimOJByOFXmru+c09Bf4uvrYavUKdImWRu17ijbMXe2SI4OlUeJweOTgwQNttXoFbtp7KnRC4tyqhM+xEscjUzUJ6zg3j9qylWa1PYlqbGIBPe2DEH83ndSnU/oSPseK9nCRZNxoXK8eXRRTqbDdDGvtSfRCH08Hj+aUEHxi9JeEz3ESnSuaiMgk1Q1FVnczLLYn4RrLBp4OHo0JowGKzhyIU1pFGwD0mafExb3J2alRWJJhsdSBmwSbeDp4/9j+D2UiE1k9R82dk7q/psez2285O77YRnvEWpJhvmlfDlkJdZg+5eng0dBDmktn7xGvUgVntz2CgzvDa3rbCh59Y1WuhlxtPB08mkdMo2HtNdRaqmDR2Wf63BOiop4rzN1aAq8arrAM8nTwaPQrTVMv7hh/KdskzmWkJWgPm7lbm8F7jKu9p4NX3ItLpIommrOMOO86Jafq7FaCJwFxqMSZjGaNm7XCFprFJlEJnpRdJdriQ3v0HIzqSEVLcZ4ET8quEqNto8MGjyoozpPgSdlV4hRaUnT0CsR5VS01DUjwpOwq0SaVokl4GxxZrOdJ8KQcktmmxid+xBlqrEow7ovzJHhSdpXoVMlM0l3mDNHRx5qWCskSPCmHgJeVpPueM9Scq7alNikJnpRdRacFFfB0+p84Q4HWMlsJnpTDPn/OUEs0nFSR4EkwnAlea676qnMYEjwpp4DXxlotT4In5Ujw2qHFToInwXCsaFi30qGiN/xOrXVosXugS0WCJ+WYcopWd02CJ8GT4EnwSrYu7P7y7iwVjeZTCZ4Ez2kSTQJGjeZDJBd+SC4keFKOkzhfGx8ZuZ0z1FZmtRI8p4guxqHPflj//otkHU+C5zQtfC5P+ew7d+iQxRlqJXcuJHhOkTjU7VvTly5YbsFVVzYJSPAcqvzisU7/b87PM1xPojtFtkVJQJyQ0cZoznF+unEFoB+vomwElYA4TOJG7xGDBm3k/HTheqJYHcieKgmecyXO1Aa1aEWJRUcuf9WE0DK2gheUGpdw3lOhm5RuUmanSPCcI7FVhviuv6p4XM3WU2ZV8YJ2+AFxXJlco7nGc020UZO4aGoQ/fCZXAu4VjTx9z/XtUNHlhCuYdNSp9lNM9JmsNmZs9mCUQvYmilr2N6Fe9lH6z5ShvbIaVGOlxjYox0xknYs+ph1H5cr7EC3mI/XADWYEC66CtwI+Exco2wUgToGsD7PNYvrlRo1auzp8XRnNqh3KJuTNcdumpczT4FuyYQlbMOMDezQ4kPs7PqzylRQAk/Ox3OsxASB8ND+q/k698BBnzrW5iGbTwQth5qLL14YzDWIayRXIpeOy1AEEbCpXNkAcAbB17Nzlz/6dO/O8rJmsaUTltpFyyYtYyufX8nenPYm2zV/Fzu+/Dj7fMvn7NrBa+z3479L8BxcRhHDehr7+xuRWDSxllhYG0VbAUP1/NEzT2lxKAAM5xpWBEVwPcsVA2jJYk5t36rV6cF9+7FxulFs2+xtdtH2udsV4PYt3MeOvX5MGcp4adcl9uORH5UPRo6idZxOrD1299bu6BjqSKG7LtpzNVInFrZMfRdxHpnJx2kkLdpbOnF1Bs22Khjg9uIKg+VMq1e79oLo8HCWEDmCvbPsGHtv5XvF1omVJ9jJ1SeVhOLc5nPs4q6LirVTx3cSPMdo8eT5Cni9u3Z/BfGd2Cqrau2yFWu3ZpfHi2rhBzQChE8UUWRum6ngpWr2cK7kZwcNvpIUPZLtXridXdhxwS4i2C7vvsyu7rvKrh++rmSzt07cktbOCdlslk7/R6UKFciwdC8svivogpVHAF8lAPgoZmDUeAjVQnbjjyehJ7nfXl26bEhLSGRzxk5T7qOwh34++rNyvQABR5Pe6ZoBgk5aO8fpwOu7744lCw8/yNd1MDxjY5tnIFuArywA9AaE5fGDiqpKKuvZCGWafj7VfIyZiUl/8SeFXdx9QbFMxRWBRiLXKq6TktA5TjQ14IXs0XcIvFbNAyfwde2LvKBhQWNoC7tET33rogDxYSSsZxWY3wDEfkOjwsIOmQxGtmL6YgUSe4hAE5I3ODpniywxKuoMQqhutrhZm+6rtfN1oY9iV4Q6U0Mb1KuXzi3ebeUWnv1X5HWhHqSbx2/kl1BaNGv+HLLZDsgFCr0+1FkXJJexUCOkIHT4iCHhh+mPpwt35YJ6nrVLiBpxFpsMvdB/V2A262zwRLZcAU+DP2o9A3kmlJSRpLtJb+Ly3otyUT3P2k3m6zgEpbYmqoHbtt3e6ATwHriySmS4A0P6KLd1U3cDBaxycd1b4jr4hMioT1Cb7aNKKqoXdnOj08CzYPVqIOXuCKunS41PuEZvhoY3y8V1X+VfBa833G7k5zcWu1nBqNcWmlS4Cjz1zkh9xARUVH62fevW8+gNkQmnoqRcZPcsn4gzFWF9+u2EteuL02SP2Xo7t1PBM7N6FbGBnG/1uOJjhg07SW+KLt2VC+2+CUWyJp6uBk1SWbsAWLvKtlg7V4FnbvVErDfcp5pPdiYSjTObTsvFdiNR4ieabAObNJvO1ysasV0b9G/abO2cDp6VWO9xZLjUdBr7zNNdVtKbm5iRc4dG18tFd72ou2f6qIkKdBEDBhzi65SAbqXOmOxeu7CLkV0OnoWm07qo63Wl3Qwy4SMGh79HbzJv7GSZ5bpRFmuIib1cyds7ja9RJGLzlmgarl4Ua+dK8NRWT+xmtBEdzxW8vTPoTdKbpc5Wufiuk2gCyEhMuulbu/Y49FaGwks9jli9oq2xnUvBs7CbURvFx05INOL8GjR4XsR7NAhGQuB8iZFjysmxli0Xogt9CBKK5vBWVWyp27kTeMLqiZNt9XEvQne4XG27li0X0Zsek5p+5/z2cxIGJ+rqgW+UOJs+/369etPkJz1cbC+0t4mEokJRXKzLwTNrt6+IrTThcnujZd4wqHefv0n4nCuqo4p2p5Hhw05R4y6y2H5wsY3hYkWxuIwngmfucp9Al0MoCpTJQ0JDD4jiMpl/CYdjoRMZbHxkJI2ioGRCgxDoaexQ+D6si3UL8Cy43KqIGwKQqofhTaeNDA8/Lcos5AYkJI4pm1Al4W6PXfQXPMkzoXQyBFWHQIRERc5i3Q48C2c9qiNFD0RjIb3peK6M2IiIM8qUgEyTtHwOsHRiBIV+ZMzXHLpcirNxWrCnKq7zUWexJQG8Mmbxnh/qRD2QbCTSh0FPooj55O6G/RIJEdMZ4uKuVqtSbRyOow5HvN0WrWwiriv3sC7WrcCzEO9Vwpv0R7LRC2d0aX8wU7hd2c1SfFG3CT3EyviJZ0d8yR/uUchgn8WWWBCSCbE74V1c6NwKPCvJRi0UKdviyRsO+LLCevfZK+DbOG+NhOghJAZl381eh36IiQ8EXRS6TtqjvlpHlUyULS50bgeehUaCKqpMNwg7G5HC8j0THLw5R29UzmzQ7F3ZTmV7EiFmnZCG9O17yAy6fugaaooMtmpxkwm3B89CpitOp6nhG47AN6NtixZLaDtHZLwy7it8N0L01FEzJz285EEQ06mha4YKQzV7Q+e24FmZauALsx8EtxuBLZz0OrVqTaH4RO16ZXPB/aLPY89r2/OtnFET993jfn5zMAUsCZ6kL2qo5tDZ3HXi8eBZga8OAt226I4YilILTaQy9ezSZQs9xaKzRe503LNyoj5HGtq//995EkGZazoe3uHwJO3hXgV0FR52Z8KjwbMCX20kHK2xr0tjE2IxEi2bP8VzDSNjrogPmbqZS2tfH50GU8dyGYna39q1br0CU7tSMHRzKKoG7RDO+JpbOntD5xHgWYn5xDiMFuiUGICznRSnZNBgyJDg4B1ZOv0t8aFT2zYF1aXFrVKZSRxBJC9AVq5alWrPI54zoL1pEB7e1niY65glEg6BzmPAswBfZXQvN8RdCp0Qn0Rgi0dxvfyDnjx8YNh7Aj4Kqqm/jCxBSQWOZtWJvVZSXETk5/Xr1s3jn0cu9l21qNGFYpRcCzzEtfBQ5ycSjoLOo8Azg08UmR/F3mFTuIqecL0xKA1Q4DzK389vfmJU1FdiMcgS0J1bJaX8QpacLJzIVkXy0Oapp5ZhJHAWQhENXGtvJBHN8fDWUBWHyzoSOI8Ez8L2WgXEI2KIZEs8xaHI0hIQy1CNagwtBFkA9XR4ioE8dd+XYlcKIUTf3N3h1yMudmwXtA7zp3Ng/RNRKhmA/e/WiOfq4uGtiIfZKdB5JHgW4BOTqGri6Q1AdvYMYpholAvSEFSPadboiUXRQ8I/VgNI1oIW0d0TEbLStOMgNvTVLhUWbizeZzpi3pFotOiN+tyT6HushXiugiOTiBIFngo+ddxXCZ0tvirr1xn7jeGqOczpAkAe+8yJHDT4FGV76kWk0gO5LneZ5UKb+ASbGPkqRMkT/f30IKmAy0DyoEFnST8kYK1g5eqhCaOSyrU6FTqPBs8G69cAsV8b9JL1w0LEqgDMQQw0vnVg4HJaRHUmLOJBKsk4E0QBGp3uohYw88tjYiIiPu0a1HETJumPUVk4PYAbjuOi3RD7BsAbqK1cOWckESUWPDP4hPWriNivNtxKABZATLBXAyiuQxgFqzGeYiSCMCUu/rqlW4PIzZH1oZ0AypIpRiQVJVmhhIBeQxeT0M8guMVdr+Yii0yuNKRbt508U5/K/8Zx+HuzEULo8H4iAFx3hBtPImOtA2/gUitX4sAzc71q61cZwbMvFqA5ABQWMBwxYCKyvgxYwXwI+UK/+HTbtm8O6z/whCFW870zrsNKS0j8hWLQHp07b/Nv2PBl/ndMAGyjVe40GaWRkchUQwFcEIDzR/Lgg8/hvoKwK6ErUeBZif3KqQD0UQEYgG23LtgqCoN7isViGuG6slH/Gi1AJAgIBu6aVwzo2ftgeGjoO9oR0ZdIBIwtYJE7F68hyxoWEnI0qEWLNc0DApZ43b2OazxAG4OHIAewpSBR0qAWNxgxbDAeqOZmwFVxB7daKsCz4n7LYQGqwALWgQtuiiSkI6xFXyxmJJKRBMRNKVj4bK9712oJGMcJICFb7nkT3ysAG6uCzITfk4kwwIiHQcAWDuvWE4Xz1tjUfwwPliXgyrgLcCUevAIAFBawOmLA+siCmyMR6QQI++Bk1VDUwGIBorhWKwXxVQYKtAJKE6xkrtf9d7uJfxPfk4PXZcK6Csh0cP0abANGoCzUD7B1hrUORMNEA7yPR/G+HgDO3aArFeBZAdD8Hg8fWMGGKghbIUDvggXvgwLsEK97V2VFA8g4wKKFK9TBUqrvddNDOnxPIjprNIjTovBzwwF8P9Qiu8Iit0Hs9gTOo/hix6Ea3kd5TwCu1IFnAUCRhAg3XBmLWAMQihuNmmDBW3ndu1orGIeQesE9hwKWQXDV4bCU5goHuIPw/f3x+t6AuyvOrraHCw1EOPA4HgpflIqqq6ybN96HW7pUCV7BWbD6Mhn1pTCPYqEFiI8Bgqawik8ByDYI7tvDOol738z1NL7eARC3xetbAO6mcJ+N4EJ9UXvzwUNhFTZPAa7Ug2cDhCIeFCBWgaXxAYy1AUZ9QOIHYPwBZ2Ov++91a4x/98f3PQYrVh9ZaB0VZNUBfmXUJMtbg83TgJPgFQyg+Y1GAkRvMxgrA8iqsEjVve7d+2bp7jcffL06vr8qXl8ZP08NWTkVaCUCNgle8UEUMAogBZTqe9/M735T/7u3Cq5yqp+lhqxEgSbBsx+IlqAs41Xw3W+Wvs/izyzxn6UEymlwlhqoJHhSbqv/BweZwbmF4PgUAAAAAElFTkSuQmCC;" parent="1" vertex="1">
          <mxGeometry x="-326" y="917" width="78.44" height="70" as="geometry" />
        </mxCell>
        <mxCell id="PwznVGh7WyznaAtkqByY-6" value="" style="shape=image;verticalLabelPosition=bottom;labelBackgroundColor=default;verticalAlign=top;aspect=fixed;imageAspect=0;image=data:image/png,iVBORw0KGgoAAAANSUhEUgAAAJ4AAACNCAYAAABGx8NOAAAAAXNSR0ICQMB9xQAAAAlwSFlzAAAXEgAAFxIBZ5/SUgAAABl0RVh0U29mdHdhcmUATWljcm9zb2Z0IE9mZmljZX/tNXEAABqnSURBVHja7Z13eJRV2sbzgYQOhhZaJCIQjPRQhNCEAAECBEIMIZmUyZT0MqGDCkgLTQFFkC5IR9rSi4soIqigcom6LCCK4mIDXXFll/Od5+U+4WWYSSZkanL+uC8vSSbJzPm9TzvPeY7XlClTvKSknC35IUhJ8ErVB+/l9X8kCZ6UU0AjpWq1jXMNhhSTPnlHrjH55dIIoYTCCaBxlcnVGtrlGo1TTIbksxw2phb/+iP0PaUJPgmJA2HL0RmG5RiMS00Gw2U1aGN1eraqX6gavApc5UoTfBIYO8JmiDTUyNHptNlG40aTMfmWGrbJmji2secz7DP/x9ntsmUZp00NXnWuiqXJ8kl4igdbmUytNpBbNlOO3njS3IXmRY1gezp1Yldr1lJAM5cKvLpc1bjKc5WV4ElZdKGZBkMXky55Qa7B+IU5bMsGDGTHWrZiP1WtahE2K+A15qqlsnoSPAkcd6EhIZVytIaRJr1+DU8QflGDNilRy9aGhLAzTzRhf3iXLxQ2K+AFwupVFrGeBK90Q1fGZDTOMrdq00fGsJ1dgtl5P78igWYNvE4dOsTx3+UHd+tdGtythMw6dLT43jkGwyfmSQJBd6F+/WJBpwYvNmI4M8TEsrT4+CuZSbpjPAvO40lKf0pW1G5eglfCE4bIkJAqyZqEyLTExLmpsYkfZ3B3mqnVMZOZ5SM3S5nqw7hZNXijdZlMz8Gj35OtNzCTwZj/NZNeqfu9TK6+JIEogTOru1EpJMtgvJWt0ysgpMTFM130SDbOmMPmj8ljiyctYHmjprKJaTnMUmJxIjDQpsRCDd7pN06zr//2Nbu85xI7v/0cO7xsH1s2bREbm5rxwO+g3Q4q2VDc6ckQlnrYaEfhbpHXeE1ZWG5tcrjVmWaayDbOXcuOvn6InV1/hr2/6n128NWDbMe8HWzDjA1s1Qur2KKxC9j0rClsfEr2A4DMGx5ZYCnFEng3jt1g/3n/P+x/p/7H2IdM0eW9F9mR5fsVEO8D0Jh8ix4SsoSi9udJAJZq62Zee5s19gW2f+ku9u3+K+zf7/6bXT98nV3adYl9suETdnz5cbZv4T62dfZWtu7FdWz5c8vZ4nGL2cu5L7O52XPZzMwZ7IXUiWxcMlnCFGYeF27t1l0pHhcVPLX+eO8PdmLtMbbwubz7ITQYLlMtUW0FJXhuB5xOq66/Tc4ew3a+soVdPfCNsrh3Tt9htz+4rSzyz0d/Zt/s/YZ9vuVzduqNU+zokqNsz4I9+fCteH4Fe238a2zh6IVsvmk+m5M1h83KmMVmpHEIUyax8cZcNsqYyixtl50KCCgyeGr99PaP7MDru9n0URNVABqvmXS6qZpITU133wEpTRbOJNypUhLhC0bW4/YHf923oATef0/9VwHgt3d+U6weQfHFti/Yx29+zE6sPKEAuHfhXvbWnLcUt7tmyhq2bNIyxQJagnBKygtsYvJoNjr5wZjtYcFT69T6E2zehOmqn5nyKwHIk6TK7gpgiQcuU6vtre4IITf12dazVheRwKOFJ6v354k/Ffh+OvoT+/7A9+zy7svsy7e+ZJ9t+kyB5d0V77Ijrx1RINw+dzvbNHMTe2PqG/mWcNGYRewl00uKK87LzGMz02eyF9OmsslpE9mk1FHK3zM+LYt9uPbDYoEnRImJOhakBy1Hq4sRdUF3ArDEFn4NGk3DHKNxU/6+6djJysLYsoACPmH5yO3efOem4nr/dehf7Oq+qwqEX731FTu3+Rz7aN1HiiV8e+nbbP+i/Wzn/J1s86zNijte+fxKtnTCUvbKmFeUeJCsIcH46thX2dqpa5W4kSzplT1XlN9RHPCEKGxQx4EmnfFYpsYQ5E5JSIkDjp5u7lYn5hqS/1RqbZkmdmzVkSIvHsGntn5/nfxLsYCUdJAV/OXtXxQ3TJaQrNWFHReUWPAMz4BPrj7Jjr1+TMmCd7+0W4kJ109fz1ZPXq0kJeSWKSvekrdFsZiUvHy791vl59LvKS54Qmc2nVZiWAFgjsEw213cb4mzcia9/gPxQW99eT27efxGsRZPDSBZQDWEZAkJll///iv78ciP7NrBa0oy8s+d/2Tnt55XgKKkhDLiw4sPK4kJlWO2zd6muGaydmQpKX6k1/5+/He7gkeiGHbPa9vv1QR5YpWq0bRwtfUrKbFc2cwEXSwF1SJTpfqXvRbPEoQCRAKF3OOtE7cUcChOo5jwh4M/KFaMyjEiLqRYjuqBBCKJLCP9O7lteg39DAKbfoe9//YfDn9/z/1yb5CpM+Qi9nOJ9fN4K6cJ09TK0RveEFZu1cwliiWy98JZg9DcGgoIySWr48Lv9n+X75LJwpFFpBiR/o2+TpZTxHeOAE9t/e7tghgP0OfnCvg83bX6iU18ciUPE8s5EkJLLpksG4FGFpH+S2DS1+j76HWOgs48+xWxHxWf4Xqd2hHjqdCVNURHtxRnGagmJwrArlZBEKqtIbll+i/9P/07fY8jrZ2lXZDFk+fn1/3StdoQZ5ZdPDKeS9Vqu4l4jgqnxU0gnAGiOi4kyITo/8XXnAWd2vWunb38Xtyn1eqcde7D00olj6QmJAwSpRKK58x3HtxZamtoSa76u9RxX7ZON80Z8HkUdMnx8YP5h6NAR/urngKcJ4i2D50Jn2dBB0tHbUISFvuL9nwFfOla3WhHnvX1DPcarenIP4wb9IFQR4aExFnwaQ2Ogs9DoLubSNBOhITDufAZ4uOHOAI+t4ZOExnZKNdgvEIfwMZ5ayQUThR5FpHtGqI1newd87ltnS4kKKh6dpL+OL15qjdJGJwvSuCww/F1WEiYrz3hc0voaJRDVlLSq6I47IwtMCnLEkVmMgIYLlS2RIGncrHeqZqEBLEN5ojNfqmi7XCI9vrMpKT59prv4m7QldMMHdpWlE0oyJWL73rRwz8mNf0OrUmyJmEEph0Uy+W6VTJBQ2uy9cZPZQbrvplujt7wQ0hwSL3iZrpuFdelJmjHiX46T9oKKy0S5zkytbqVxZ1s5TZxXVhISBOTwai42IIO40i5TnSkUnQy62JiBhQn3nM1eMLFVsrS6o+IjX+5yO4r2q6Ey/0qKDCw5sO6XHdwsRV0MZoYkcW6c4uT1N1WKnGGNzUxMe9hXa6rrR1lR1Wy9IZz9EZc1UEsVfQsF+d2/+QhUlO43CJZPVdaOyWL1UXHxMqEwvNEIRGtW0Zi4pKHmWTq0oSCJmBKa+eZoqMGwuqF9uzZrKi7Gq60dpW0UTFxYltMWjvPtXrpidqlFDIVxeq50tpVz4C1k+WTEmH1Aopi9Vxm7TQREeFipolcRM+3esmxcdOLYvVsPdllD5UROxRk7dITtJvpD6axq4UdgimOJByOFXmru+c09Bf4uvrYavUKdImWRu17ijbMXe2SI4OlUeJweOTgwQNttXoFbtp7KnRC4tyqhM+xEscjUzUJ6zg3j9qylWa1PYlqbGIBPe2DEH83ndSnU/oSPseK9nCRZNxoXK8eXRRTqbDdDGvtSfRCH08Hj+aUEHxi9JeEz3ESnSuaiMgk1Q1FVnczLLYn4RrLBp4OHo0JowGKzhyIU1pFGwD0mafExb3J2alRWJJhsdSBmwSbeDp4/9j+D2UiE1k9R82dk7q/psez2285O77YRnvEWpJhvmlfDlkJdZg+5eng0dBDmktn7xGvUgVntz2CgzvDa3rbCh59Y1WuhlxtPB08mkdMo2HtNdRaqmDR2Wf63BOiop4rzN1aAq8arrAM8nTwaPQrTVMv7hh/KdskzmWkJWgPm7lbm8F7jKu9p4NX3ItLpIommrOMOO86Jafq7FaCJwFxqMSZjGaNm7XCFprFJlEJnpRdJdriQ3v0HIzqSEVLcZ4ET8quEqNto8MGjyoozpPgSdlV4hRaUnT0CsR5VS01DUjwpOwq0SaVokl4GxxZrOdJ8KQcktmmxid+xBlqrEow7ovzJHhSdpXoVMlM0l3mDNHRx5qWCskSPCmHgJeVpPueM9Scq7alNikJnpRdRacFFfB0+p84Q4HWMlsJnpTDPn/OUEs0nFSR4EkwnAlea676qnMYEjwpp4DXxlotT4In5Ujw2qHFToInwXCsaFi30qGiN/xOrXVosXugS0WCJ+WYcopWd02CJ8GT4EnwSrYu7P7y7iwVjeZTCZ4Ez2kSTQJGjeZDJBd+SC4keFKOkzhfGx8ZuZ0z1FZmtRI8p4guxqHPflj//otkHU+C5zQtfC5P+ew7d+iQxRlqJXcuJHhOkTjU7VvTly5YbsFVVzYJSPAcqvzisU7/b87PM1xPojtFtkVJQJyQ0cZoznF+unEFoB+vomwElYA4TOJG7xGDBm3k/HTheqJYHcieKgmecyXO1Aa1aEWJRUcuf9WE0DK2gheUGpdw3lOhm5RuUmanSPCcI7FVhviuv6p4XM3WU2ZV8YJ2+AFxXJlco7nGc020UZO4aGoQ/fCZXAu4VjTx9z/XtUNHlhCuYdNSp9lNM9JmsNmZs9mCUQvYmilr2N6Fe9lH6z5ShvbIaVGOlxjYox0xknYs+ph1H5cr7EC3mI/XADWYEC66CtwI+Exco2wUgToGsD7PNYvrlRo1auzp8XRnNqh3KJuTNcdumpczT4FuyYQlbMOMDezQ4kPs7PqzylRQAk/Ox3OsxASB8ND+q/k698BBnzrW5iGbTwQth5qLL14YzDWIayRXIpeOy1AEEbCpXNkAcAbB17Nzlz/6dO/O8rJmsaUTltpFyyYtYyufX8nenPYm2zV/Fzu+/Dj7fMvn7NrBa+z3479L8BxcRhHDehr7+xuRWDSxllhYG0VbAUP1/NEzT2lxKAAM5xpWBEVwPcsVA2jJYk5t36rV6cF9+7FxulFs2+xtdtH2udsV4PYt3MeOvX5MGcp4adcl9uORH5UPRo6idZxOrD1299bu6BjqSKG7LtpzNVInFrZMfRdxHpnJx2kkLdpbOnF1Bs22Khjg9uIKg+VMq1e79oLo8HCWEDmCvbPsGHtv5XvF1omVJ9jJ1SeVhOLc5nPs4q6LirVTx3cSPMdo8eT5Cni9u3Z/BfGd2Cqrau2yFWu3ZpfHi2rhBzQChE8UUWRum6ngpWr2cK7kZwcNvpIUPZLtXridXdhxwS4i2C7vvsyu7rvKrh++rmSzt07cktbOCdlslk7/R6UKFciwdC8svivogpVHAF8lAPgoZmDUeAjVQnbjjyehJ7nfXl26bEhLSGRzxk5T7qOwh34++rNyvQABR5Pe6ZoBgk5aO8fpwOu7744lCw8/yNd1MDxjY5tnIFuArywA9AaE5fGDiqpKKuvZCGWafj7VfIyZiUl/8SeFXdx9QbFMxRWBRiLXKq6TktA5TjQ14IXs0XcIvFbNAyfwde2LvKBhQWNoC7tET33rogDxYSSsZxWY3wDEfkOjwsIOmQxGtmL6YgUSe4hAE5I3ODpniywxKuoMQqhutrhZm+6rtfN1oY9iV4Q6U0Mb1KuXzi3ebeUWnv1X5HWhHqSbx2/kl1BaNGv+HLLZDsgFCr0+1FkXJJexUCOkIHT4iCHhh+mPpwt35YJ6nrVLiBpxFpsMvdB/V2A262zwRLZcAU+DP2o9A3kmlJSRpLtJb+Ly3otyUT3P2k3m6zgEpbYmqoHbtt3e6ATwHriySmS4A0P6KLd1U3cDBaxycd1b4jr4hMioT1Cb7aNKKqoXdnOj08CzYPVqIOXuCKunS41PuEZvhoY3y8V1X+VfBa833G7k5zcWu1nBqNcWmlS4Cjz1zkh9xARUVH62fevW8+gNkQmnoqRcZPcsn4gzFWF9+u2EteuL02SP2Xo7t1PBM7N6FbGBnG/1uOJjhg07SW+KLt2VC+2+CUWyJp6uBk1SWbsAWLvKtlg7V4FnbvVErDfcp5pPdiYSjTObTsvFdiNR4ieabAObNJvO1ysasV0b9G/abO2cDp6VWO9xZLjUdBr7zNNdVtKbm5iRc4dG18tFd72ou2f6qIkKdBEDBhzi65SAbqXOmOxeu7CLkV0OnoWm07qo63Wl3Qwy4SMGh79HbzJv7GSZ5bpRFmuIib1cyds7ja9RJGLzlmgarl4Ua+dK8NRWT+xmtBEdzxW8vTPoTdKbpc5Wufiuk2gCyEhMuulbu/Y49FaGwks9jli9oq2xnUvBs7CbURvFx05INOL8GjR4XsR7NAhGQuB8iZFjysmxli0Xogt9CBKK5vBWVWyp27kTeMLqiZNt9XEvQne4XG27li0X0Zsek5p+5/z2cxIGJ+rqgW+UOJs+/369etPkJz1cbC+0t4mEokJRXKzLwTNrt6+IrTThcnujZd4wqHefv0n4nCuqo4p2p5Hhw05R4y6y2H5wsY3hYkWxuIwngmfucp9Al0MoCpTJQ0JDD4jiMpl/CYdjoRMZbHxkJI2ioGRCgxDoaexQ+D6si3UL8Cy43KqIGwKQqofhTaeNDA8/Lcos5AYkJI4pm1Al4W6PXfQXPMkzoXQyBFWHQIRERc5i3Q48C2c9qiNFD0RjIb3peK6M2IiIM8qUgEyTtHwOsHRiBIV+ZMzXHLpcirNxWrCnKq7zUWexJQG8Mmbxnh/qRD2QbCTSh0FPooj55O6G/RIJEdMZ4uKuVqtSbRyOow5HvN0WrWwiriv3sC7WrcCzEO9Vwpv0R7LRC2d0aX8wU7hd2c1SfFG3CT3EyviJZ0d8yR/uUchgn8WWWBCSCbE74V1c6NwKPCvJRi0UKdviyRsO+LLCevfZK+DbOG+NhOghJAZl381eh36IiQ8EXRS6TtqjvlpHlUyULS50bgeehUaCKqpMNwg7G5HC8j0THLw5R29UzmzQ7F3ZTmV7EiFmnZCG9O17yAy6fugaaooMtmpxkwm3B89CpitOp6nhG47AN6NtixZLaDtHZLwy7it8N0L01FEzJz285EEQ06mha4YKQzV7Q+e24FmZauALsx8EtxuBLZz0OrVqTaH4RO16ZXPB/aLPY89r2/OtnFET993jfn5zMAUsCZ6kL2qo5tDZ3HXi8eBZga8OAt226I4YilILTaQy9ezSZQs9xaKzRe503LNyoj5HGtq//995EkGZazoe3uHwJO3hXgV0FR52Z8KjwbMCX20kHK2xr0tjE2IxEi2bP8VzDSNjrogPmbqZS2tfH50GU8dyGYna39q1br0CU7tSMHRzKKoG7RDO+JpbOntD5xHgWYn5xDiMFuiUGICznRSnZNBgyJDg4B1ZOv0t8aFT2zYF1aXFrVKZSRxBJC9AVq5alWrPI54zoL1pEB7e1niY65glEg6BzmPAswBfZXQvN8RdCp0Qn0Rgi0dxvfyDnjx8YNh7Aj4Kqqm/jCxBSQWOZtWJvVZSXETk5/Xr1s3jn0cu9l21qNGFYpRcCzzEtfBQ5ycSjoLOo8Azg08UmR/F3mFTuIqecL0xKA1Q4DzK389vfmJU1FdiMcgS0J1bJaX8QpacLJzIVkXy0Oapp5ZhJHAWQhENXGtvJBHN8fDWUBWHyzoSOI8Ez8L2WgXEI2KIZEs8xaHI0hIQy1CNagwtBFkA9XR4ioE8dd+XYlcKIUTf3N3h1yMudmwXtA7zp3Ng/RNRKhmA/e/WiOfq4uGtiIfZKdB5JHgW4BOTqGri6Q1AdvYMYpholAvSEFSPadboiUXRQ8I/VgNI1oIW0d0TEbLStOMgNvTVLhUWbizeZzpi3pFotOiN+tyT6HushXiugiOTiBIFngo+ddxXCZ0tvirr1xn7jeGqOczpAkAe+8yJHDT4FGV76kWk0gO5LneZ5UKb+ASbGPkqRMkT/f30IKmAy0DyoEFnST8kYK1g5eqhCaOSyrU6FTqPBs8G69cAsV8b9JL1w0LEqgDMQQw0vnVg4HJaRHUmLOJBKsk4E0QBGp3uohYw88tjYiIiPu0a1HETJumPUVk4PYAbjuOi3RD7BsAbqK1cOWckESUWPDP4hPWriNivNtxKABZATLBXAyiuQxgFqzGeYiSCMCUu/rqlW4PIzZH1oZ0AypIpRiQVJVmhhIBeQxeT0M8guMVdr+Yii0yuNKRbt508U5/K/8Zx+HuzEULo8H4iAFx3hBtPImOtA2/gUitX4sAzc71q61cZwbMvFqA5ABQWMBwxYCKyvgxYwXwI+UK/+HTbtm8O6z/whCFW870zrsNKS0j8hWLQHp07b/Nv2PBl/ndMAGyjVe40GaWRkchUQwFcEIDzR/Lgg8/hvoKwK6ErUeBZif3KqQD0UQEYgG23LtgqCoN7isViGuG6slH/Gi1AJAgIBu6aVwzo2ftgeGjoO9oR0ZdIBIwtYJE7F68hyxoWEnI0qEWLNc0DApZ43b2OazxAG4OHIAewpSBR0qAWNxgxbDAeqOZmwFVxB7daKsCz4n7LYQGqwALWgQtuiiSkI6xFXyxmJJKRBMRNKVj4bK9712oJGMcJICFb7nkT3ysAG6uCzITfk4kwwIiHQcAWDuvWE4Xz1tjUfwwPliXgyrgLcCUevAIAFBawOmLA+siCmyMR6QQI++Bk1VDUwGIBorhWKwXxVQYKtAJKE6xkrtf9d7uJfxPfk4PXZcK6Csh0cP0abANGoCzUD7B1hrUORMNEA7yPR/G+HgDO3aArFeBZAdD8Hg8fWMGGKghbIUDvggXvgwLsEK97V2VFA8g4wKKFK9TBUqrvddNDOnxPIjprNIjTovBzwwF8P9Qiu8Iit0Hs9gTOo/hix6Ea3kd5TwCu1IFnAUCRhAg3XBmLWAMQihuNmmDBW3ndu1orGIeQesE9hwKWQXDV4bCU5goHuIPw/f3x+t6AuyvOrraHCw1EOPA4HgpflIqqq6ybN96HW7pUCV7BWbD6Mhn1pTCPYqEFiI8Bgqawik8ByDYI7tvDOol738z1NL7eARC3xetbAO6mcJ+N4EJ9UXvzwUNhFTZPAa7Ug2cDhCIeFCBWgaXxAYy1AUZ9QOIHYPwBZ2Ov++91a4x/98f3PQYrVh9ZaB0VZNUBfmXUJMtbg83TgJPgFQyg+Y1GAkRvMxgrA8iqsEjVve7d+2bp7jcffL06vr8qXl8ZP08NWTkVaCUCNgle8UEUMAogBZTqe9/M735T/7u3Cq5yqp+lhqxEgSbBsx+IlqAs41Xw3W+Wvs/izyzxn6UEymlwlhqoJHhSbqv/BweZwbmF4PgUAAAAAElFTkSuQmCC;" parent="1" vertex="1">
          <mxGeometry x="-32" y="1030" width="78.44" height="70" as="geometry" />
        </mxCell>
        <mxCell id="PwznVGh7WyznaAtkqByY-7" value="fridgeservice" style="text;html=1;strokeColor=none;fillColor=none;align=center;verticalAlign=middle;whiteSpace=wrap;rounded=0;" parent="1" vertex="1">
          <mxGeometry x="-22.779999999999973" y="1090" width="60" height="30" as="geometry" />
        </mxCell>
        <mxCell id="PwznVGh7WyznaAtkqByY-8" value="ctxcoldstorageservice" style="text;html=1;strokeColor=none;fillColor=none;align=center;verticalAlign=middle;whiteSpace=wrap;rounded=0;fontSize=16;" parent="1" vertex="1">
          <mxGeometry x="-16" y="867" width="60" height="30" as="geometry" />
        </mxCell>
        <mxCell id="PwznVGh7WyznaAtkqByY-9" value="" style="rounded=1;whiteSpace=wrap;html=1;arcSize=11;fillColor=#FFF2CC;strokeColor=#d79b00;" parent="1" vertex="1">
          <mxGeometry x="-126.77999999999997" y="707" width="140.78" height="150" as="geometry" />
        </mxCell>
        <mxCell id="PwznVGh7WyznaAtkqByY-10" value="ctxbasicrobot" style="text;html=1;strokeColor=none;fillColor=none;align=center;verticalAlign=middle;whiteSpace=wrap;rounded=0;fontSize=16;container=1;" parent="1" vertex="1">
          <mxGeometry x="-73" y="705" width="60" height="30" as="geometry" />
        </mxCell>
        <mxCell id="PwznVGh7WyznaAtkqByY-11" value="" style="shape=image;verticalLabelPosition=bottom;labelBackgroundColor=default;verticalAlign=top;aspect=fixed;imageAspect=0;image=data:image/png,iVBORw0KGgoAAAANSUhEUgAAAE8AAABHCAYAAABGZxrrAAAAAXNSR0ICQMB9xQAAAARnQU1BAACxjwv8YQUAAAAJcEhZcwAAHYYAAB2GAV2iE4EAAAAZdEVYdFNvZnR3YXJlAE1pY3Jvc29mdCBPZmZpY2V/7TVxAAAO20lEQVR4Xu2cCXSTVRbH/0nbJF3SNN1S6AKlLUIptWVVWQQGFVdGZ2TGDRTUcdfRcR0cAQd1FI/Hbc6MKKOOyojriDMgsigCSkGUTSilbYAudEnbtNnXuff1S+0WqG1SGsZ/zjtf+r7kS/LLfffed99rZP+pSvfiZ/VKcukYksoyfo5zVLulv/pfIWd5urpPsa1oB77euRMxFRW4cN48KCffK53tXw14eNMTSrB1exG27diBffv2Y6JeT60ck8vLsS4nB4a/PA3NWXfhwpQjWHN8iPSs/tGAhDfWux07d32Lz78pQrO+DGeV6TGp9DBG1dZIj2jV6rw81P/xUVz/2zlYU50h9fafBhy8r576JWrrDUg1mXDPZ58h3m6XznTV2jGF+O8vZmLGxPHIHj4cRxMvlc70jwYMPG3ZO9i2+Qt8v2sXEjU6qKNjUe9sxqhjRzG+pBTjDhVD3umdriF4W2degXRFLFrszdhX/j0SU5JROHYcpk7/BfYqpkiPDI5OKbx81xZ8tOpdFH29DfmZhSjMnoDB8eloMDbheMNxGJobUGWuRaOnBTZYkV5fg0n7D6CgtAzxZJmf5Y1E6dwHsWDy1VBGRQDhwPHKKuwo/gab96xHk7MJF108mwLK/dIrBlanBF5O8zq8vvxvaKlrxq+mXo1zx8wUH9xlcaGqvkq0hqYGNJoaYTKbYbVbYXc6YPJY0SKn+wQyrqURsYZ6aCZcgqsJXmy0mixTC0QYxbUgAwy1dfh4yyp8QSBnzroQcxfcSEFlaOubCID6Fd70uIN49ok/o6HCgPkX34a8kWcCbjrhouahux43bA4bzFazaM3mZtGMJiNaLC3UTLBZbbC5bLB7nXASyIKMfEwrnAlNTCzCvPHiddrEIMkg3VYPPvxqJT7Z+h6uvv4GeMfdKT2gb+o3eM6ty/DRu+/i+lm3YtrZZGlO6rRrWk9K8sqb4KWbx+OB2+2Gw+WA3WGHxWYR8JpNBNJsFEfuUykikZU2DNnp2dBEayjjJ8vrTuEEUUEvaXbipQ+fRonhEJY88TSK3OOlB/ROQYd3XsJh/Onh+xHtisbCeU8IS4C1IzR/EjC9XmGRAiRFXovdArPFjBZrC7weLxLiEqBL0CFKGQWZJ056ph+xJRLEksMHsPStRzHnuuuA8b23wqDCGyvbjj/ceSuumbEAs6ZRGmGlTlfPwHWQ3Cgg8o1BulwuAZMtVBGhgFKhJDeXID24B1IZ4XF4seT1BxE9OAajbnhVOvHTFDR4WU1rseSRh7DohmeQk3UGYO4FtG7E1iiOfCOgMr7JqJ3M6jqLrVAF/P3d51HadAjTHlwtnei5ggIvo/5TLFu8GM/dsRzaBHLiPRymp0RqIz5YsxKbDq7DRYs3SJ09U8CrKrm2L/HUY4/ixbv/AW38AAfHatHgVxdehRkjz8fGJy+WOnumgMKbHL0XC++7G8/d/grUmljANsDB+UQAr5h1FUYk5mHv8vlS58kVUHgP3HMH7r1yIZJ0utAB5xMBvHHO7TDXmOCgtKonChi84jduwdlZUzCmYAJgCTFwPlmAJTcuw+pV72OEeZPU6V8BgZdR9ykO7t6HeVfcLL7BkBWnUWHAwrlP4qk/PyZ1+ldA4D375OPiBeGQOkJZ5G4ys7KQmzIKpo1Lpc7u1Wd4zq+fw+iMAqRnDuky3QpZUTJ/z5yH8fF7qzBV/YPU2VV9gjcr5Sje/9dbuOlSmuLw7OF0EQ9fJTB78hy8/cYKqbOr+gRv9ccfYPro86HWUVrCV1JS1n6ixhP0UJEd+M3M67B5/Xq/1tdhhnFeYin279kDeZhM6jmBZHIsf/kFXD7ht9DFp8Dt5rqSf/FUanhaLiJVkb2b354KxRjxyqoXkDhKB1U3BdWO07OiF7D+wzUYMihTTMD9itjynDIyKhJ2mqC7PScGFyYPw5Hacsw4cxYumXR56PhGmv/WGKqx6J2HcOnSTV1W6AQ8X2fT+sWINyVi1sxLAxs5FcDaTathMNbjmuk3iEn9T57InyrFGnHXkwtwz58exsGoGVJnq9p83nTtIVjMVjjJkmCjjgA3vq7FaoXNTn8ErQgWBNGgmjBiEr4t2i7+ZEPzScDjupjT6RRVWy7vBEN8XYfLTs0JD9fcQ0UMb+RZ2P3dLlyg00udrWqzPC8B9LiD+6H4S/J6Qwgcy6HB8KG5OHzoIBwOhwh8Pv0ITzoGW97gGHbfpT5BGkUJgjoyFjXHq7uH11+faUCyI3C3LLzFP0BKPIYNyoa+vKyDkbXB+78WxcibLr/Jf4ZBniYtaQhqa2qFe/MFjZ/hsSjvHDt6rP/8k8xNGaGExWIWS6I+/QzPp5Mk7lGqaNisltMcHk2pgiJKtdwuNzyULfiCxukFj8Ddt/S+oAB0OikHlsvFQvvpCc8JzJ42WxwDKkoRrA4rIiIiTuNoS35r6oSpgS88EDyjqQmqyMju87zTRoEGxyJK1YZKxMUnUOT1tk1hTz94wRBROlpbjmRdivB7fuEpKJ/h6Qjv4whYo+spwum6oahwI+wNdrGqFh0dDXm7womo512QXI4Wkwn/evNNVPxQitTkDLi9XYuh4mn0ZLlMjrDwMLjcLhG6TyYuhlbWH0OqNhNXTZ8HdXRM142IA1UqI77ZvQWr936EuTf+Dhnp6VCpVKL+2QbPaDTi253fYtfOIgHSIyrJP1IWd8lXOp0ONLe04HDxAeRlFEIdpRbVEv/yQk7w1FExKMwZh3Ejx0MTowkdeJT2vLxyGWTJClx02WwMSknBhoYccUrAm6XTo4WAlJaWoqSkRIB0USbdDl2ryOq4LNPQ0CAg65TJOHvkVFGn8ycOTuFhYQJYdkY2stKzEBsZS/7Czy7OgaZoI+Y/Pge/nns9CgsLkZSUhHV1w8SptjK8zWZDfX09amtrYbVau7UmdpS8sZAfV1xcjKIvv8CiuU/DbDd3COGdxcOcTT1Zm4wkbRJUClVolOGVRuw99B2Wb/wrrp1/M3Kys6HRaLC2pnVTuIDHd3joslXx1lWev3UHg+HxucbGRpSWleGDd/6JBTNvRV5mgX/ro8vwYpGcopRKqRI7OUNmyMYa8cyKxYhMjcX08y7A0CFDEBUV1bYI1AaPxRbI0E5kRXzObDajXK/H5o0bUF9ahSW3LYPb3DXAtFfbDk66wRMCq2cRRtQ31uGBV2/HlXPnY1RuLlLI3603ZEsP6JSqiAhCH/Cz2ky/jcd7JGXa8VotcnJHobKpAnp9GcIUYQiT+W8CHA/VUADHovRqxdqXMTwvH/Hx8YiJiUF4OP+Dx4/qkue1X5f0J76IWq1GAl00f9xE/O2T58TyogDjp4XMUiOLfN0x/RH8cGwfRuSOFobCBuPzdT71aobBViSsj+DxP8yZvGZ8vmWNiEynhcgQnn3vceSNmYDExATExsaKokBn9QoeWydfjL+RxIREFIw/Bys3roDL7GrdZR7Korzu3+tXwRshJ8M4Q6QmPMrCKN3qrF7BY3H05OlKcnIy0tLSMDRnJBa9cX/rdCxURbOJyooKfLR1FUaPnwgdfTYeXQqFolt31mt4PuvTkvVxFDojLw8mmRVvfrxchPiQE48YShiWvPkA8sZORFpqqvhcbHW+pLizeg2PxQ6UrY9fZPCgQcinF918YBPWs/8LVjk8GOKtbxRIH1l+F5IzhmDosGEYPHgwEhIShNX5U5/gsTjyctbNQzeVXnDM2VPw1sbX8PWuzaEBUPpPoMWvPQiXSoYRo0cjnT7LIDKG7iJse/UZHg9fpVJJUSkRQygDZ4iFE6fglf++iA3b1g5sgAp6b5SzL3nlIRjdJuSeOQZpg1PFZ+AI2zmv66w+w2Pxt8PTFh6+mUOHIiMjAwUTJ+GdL1/H25+uaF2JH2hRONIo5vC/f+lm8tV2SkvGCYsbSu+fgwT785PlvAGBx+LZB2fhqeRoMzMz6dtLJ4CTsbX4Kyxd/ghcTkpj6A2fcrF/o9Hw/YGduPvl+YhJiseI/HwBjt83pyY8kk40XH3qMLcNhHhrbnNzMyorK0Xx4Pjx4zhyuARNdLzj8vuRN7KgdVuDg2Ye/S3+8pzA31c/j6KSrcjKLcBg+rIZ3DAKEgyO/RwbQk8UcHgsBsj1QQan1+tRVV2NWrpfXrwPmUnDcOtl90GbGN+6RNgfECl/4zL65h0b8PaGFYih9CotKwfJ5KfZxXBjn32yANFZQYHHOj+pTFRf6urqcOzYMVSQJTY0NKKmqgK1x/QozB6PK6dei2Tyk22/MxDIjd7sYyV/v333Fkp8V6LZaUZqZg4SCFSSBI7dDOeqPR2q7RU0eCyuEXJ9kOt/1WR9FZS9M8wmGtaG6ioCeRQj0nIxJW8Gzsk/t/XD8rthkM6fCJJ9Gc+g2ItTBDUamrBp9zp8uedzOGQuJKVmID4xCdq4OKTodCKi8uyIk+CeBIfuFFR4LK4R8pZdk8kkKtA8lGtqamAwGMTPfjTU1aK50QCbqQWFWeMwIj0P+cPGIClFhw67b3lN4ETvlID/UL4X+498j/36PThafwTahGRoqMXFa6GmYMZDk/M3zgriCCJXt3nO2htwrKDDYzFALuuzFbIvZHAMUFhhU5PY6G21WQliA6wE2dxihNzjhU47CElxOmgi4xAXo+2wUieTyWGyNqOmsRrVDZWoM9YiSh2LqGg1oumojmsdipyvcQFDR9bG8HiI8qyot9bWXv0CzydeaGKIvF7ClsjgGCQvKHGEZkvkc2ypYoM5QXU4bJTmOOF2cXRh82uVjO6GhUcgQqGEgixIpYoUVqSk6RQ7fk6bGBRPsbgxRB+0n+rb/Klf4fnElih+N8XhEIkqWyM3XrXjo8ViEdbIy5xOh1Os5InlAQLvoSPXE+VybmFiFqAgIGxlnKgzIAbla/w3D0+Gxs9j9dXifDol8HzyrZmIn/ogkNzY8hgeH3mYc2MrZNi+jYUMga1MWBpB48k7A2KL4yM37uPGpbNAWVpnnVJ47eXziwzTB6p943O+8wzE1xggH9my2vcz4EBZmD8NGHjtxSBZDKr9kcX3fcOPj777rGDD6qwBCa87MVAfKAbY36C6CvgfuJ2atMSWrTMAAAAASUVORK5CYII=;" parent="1" vertex="1">
          <mxGeometry x="-96.77999999999997" y="746.5" width="79" height="71" as="geometry" />
        </mxCell>
        <mxCell id="PwznVGh7WyznaAtkqByY-12" value="transporttrolley" style="text;html=1;strokeColor=none;fillColor=none;align=center;verticalAlign=middle;whiteSpace=wrap;rounded=0;" parent="1" vertex="1">
          <mxGeometry x="-316.78" y="977.5" width="60" height="30" as="geometry" />
        </mxCell>
        <mxCell id="PwznVGh7WyznaAtkqByY-13" value="" style="endArrow=classic;html=1;rounded=0;strokeWidth=1;strokeColor=#FF00FF;edgeStyle=orthogonalEdgeStyle;" parent="1" edge="1">
          <mxGeometry width="50" height="50" relative="1" as="geometry">
            <mxPoint x="-307" y="910" as="sourcePoint" />
            <mxPoint x="-106" y="755" as="targetPoint" />
            <Array as="points">
              <mxPoint x="-308" y="910" />
              <mxPoint x="-308" y="755" />
            </Array>
          </mxGeometry>
        </mxCell>
        <mxCell id="PwznVGh7WyznaAtkqByY-14" value="&lt;font style=&quot;font-size: 13px;&quot;&gt;moverobot&lt;/font&gt;" style="text;html=1;strokeColor=none;fillColor=none;align=center;verticalAlign=middle;whiteSpace=wrap;rounded=0;fontColor=#FF00FF;" parent="1" vertex="1">
          <mxGeometry x="-203" y="823" width="27" height="20" as="geometry" />
        </mxCell>
        <mxCell id="PwznVGh7WyznaAtkqByY-15" value="" style="endArrow=classic;html=1;rounded=0;strokeWidth=1;strokeColor=#0000F0;edgeStyle=orthogonalEdgeStyle;fontColor=#0000F0;" parent="1" edge="1">
          <mxGeometry width="50" height="50" relative="1" as="geometry">
            <mxPoint x="-284" y="911" as="sourcePoint" />
            <mxPoint x="-107" y="782" as="targetPoint" />
            <Array as="points">
              <mxPoint x="-284" y="782" />
            </Array>
          </mxGeometry>
        </mxCell>
        <mxCell id="PwznVGh7WyznaAtkqByY-16" value="&lt;font style=&quot;font-size: 13px;&quot;&gt;disengage&lt;/font&gt;" style="text;html=1;strokeColor=none;fillColor=none;align=center;verticalAlign=middle;whiteSpace=wrap;rounded=0;fontColor=#0000F0;" parent="1" vertex="1">
          <mxGeometry x="-234" y="762" width="27" height="20" as="geometry" />
        </mxCell>
        <mxCell id="PwznVGh7WyznaAtkqByY-19" value="env" style="text;html=1;strokeColor=none;fillColor=none;align=center;verticalAlign=middle;whiteSpace=wrap;rounded=0;fontSize=16;" parent="1" vertex="1">
          <mxGeometry x="-390" y="658" width="60" height="30" as="geometry" />
        </mxCell>
        <mxCell id="PwznVGh7WyznaAtkqByY-22" value="basicrobot" style="text;html=1;strokeColor=none;fillColor=none;align=center;verticalAlign=middle;whiteSpace=wrap;rounded=0;" parent="1" vertex="1">
          <mxGeometry x="-87.27999999999997" y="813" width="60" height="30" as="geometry" />
        </mxCell>
        <mxCell id="PwznVGh7WyznaAtkqByY-23" value="" style="endArrow=classic;html=1;rounded=0;strokeWidth=1;strokeColor=#0000F0;edgeStyle=orthogonalEdgeStyle;fontColor=#0000F0;" parent="1" edge="1">
          <mxGeometry width="50" height="50" relative="1" as="geometry">
            <mxPoint x="-264" y="910" as="sourcePoint" />
            <mxPoint x="-110" y="804" as="targetPoint" />
            <Array as="points">
              <mxPoint x="-264.28" y="803" />
            </Array>
          </mxGeometry>
        </mxCell>
        <mxCell id="PwznVGh7WyznaAtkqByY-24" value="&lt;font style=&quot;font-size: 13px;&quot;&gt;setrobotstate&lt;/font&gt;" style="text;html=1;strokeColor=none;fillColor=none;align=center;verticalAlign=middle;whiteSpace=wrap;rounded=0;fontColor=#0000F0;" parent="1" vertex="1">
          <mxGeometry x="-226" y="784" width="27" height="20" as="geometry" />
        </mxCell>
        <mxCell id="PwznVGh7WyznaAtkqByY-25" value="" style="endArrow=classic;html=1;rounded=0;strokeWidth=1;strokeColor=#0000F0;edgeStyle=orthogonalEdgeStyle;fontColor=#0000F0;" parent="1" edge="1">
          <mxGeometry width="50" height="50" relative="1" as="geometry">
            <mxPoint x="-249" y="911" as="sourcePoint" />
            <mxPoint x="-111" y="821" as="targetPoint" />
            <Array as="points">
              <mxPoint x="-247.82999999999998" y="821" />
            </Array>
          </mxGeometry>
        </mxCell>
        <mxCell id="PwznVGh7WyznaAtkqByY-26" value="&lt;font style=&quot;font-size: 13px;&quot;&gt;setdirection&lt;/font&gt;" style="text;html=1;strokeColor=none;fillColor=none;align=center;verticalAlign=middle;whiteSpace=wrap;rounded=0;fontColor=#0000F0;" parent="1" vertex="1">
          <mxGeometry x="-214" y="804" width="27" height="20" as="geometry" />
        </mxCell>
        <mxCell id="PwznVGh7WyznaAtkqByY-27" value="" style="endArrow=classic;html=1;rounded=0;strokeWidth=1;strokeColor=#FF00FF;edgeStyle=orthogonalEdgeStyle;exitX=0.302;exitY=0.169;exitDx=0;exitDy=0;exitPerimeter=0;" parent="1" source="PwznVGh7WyznaAtkqByY-2" edge="1">
          <mxGeometry width="50" height="50" relative="1" as="geometry">
            <mxPoint x="-228.27999999999997" y="996.5" as="sourcePoint" />
            <mxPoint x="-109" y="842" as="targetPoint" />
            <Array as="points">
              <mxPoint x="-229" y="912" />
              <mxPoint x="-229" y="841" />
            </Array>
          </mxGeometry>
        </mxCell>
        <mxCell id="PwznVGh7WyznaAtkqByY-28" value="&lt;font style=&quot;font-size: 13px;&quot;&gt;engage&lt;/font&gt;" style="text;html=1;strokeColor=none;fillColor=none;align=center;verticalAlign=middle;whiteSpace=wrap;rounded=0;fontColor=#FF00FF;" parent="1" vertex="1">
          <mxGeometry x="-245" y="735" width="27" height="20" as="geometry" />
        </mxCell>
        <mxCell id="PwznVGh7WyznaAtkqByY-29" value="" style="endArrow=classic;html=1;rounded=0;strokeWidth=1;strokeColor=#FF00FF;edgeStyle=orthogonalEdgeStyle;" parent="1" edge="1">
          <mxGeometry width="50" height="50" relative="1" as="geometry">
            <mxPoint x="13.559999999999945" y="1027" as="sourcePoint" />
            <mxPoint x="-241" y="927" as="targetPoint" />
            <Array as="points">
              <mxPoint x="14" y="927" />
              <mxPoint x="-241" y="927" />
            </Array>
          </mxGeometry>
        </mxCell>
        <mxCell id="PwznVGh7WyznaAtkqByY-30" value="&lt;font style=&quot;font-size: 13px;&quot;&gt;takecharge&lt;/font&gt;" style="text;html=1;strokeColor=none;fillColor=none;align=center;verticalAlign=middle;whiteSpace=wrap;rounded=0;fontColor=#FF00FF;" parent="1" vertex="1">
          <mxGeometry x="-120" y="908" width="27" height="20" as="geometry" />
        </mxCell>
        <mxCell id="PwznVGh7WyznaAtkqByY-31" value="" style="endArrow=classic;html=1;rounded=0;strokeWidth=1;strokeColor=#0000F0;edgeStyle=orthogonalEdgeStyle;fontColor=#0000F0;exitX=0.094;exitY=0.359;exitDx=0;exitDy=0;exitPerimeter=0;" parent="1" source="PwznVGh7WyznaAtkqByY-2" edge="1">
          <mxGeometry width="50" height="50" relative="1" as="geometry">
            <mxPoint x="-357.03" y="962.75" as="sourcePoint" />
            <mxPoint x="-240" y="967" as="targetPoint" />
            <Array as="points">
              <mxPoint x="-336" y="963" />
              <mxPoint x="-336" y="1018" />
              <mxPoint x="-229" y="1018" />
              <mxPoint x="-229" y="967" />
            </Array>
          </mxGeometry>
        </mxCell>
        <mxCell id="PwznVGh7WyznaAtkqByY-32" value="&lt;font style=&quot;font-size: 13px;&quot;&gt;tryagain&lt;/font&gt;" style="text;html=1;strokeColor=none;fillColor=none;align=center;verticalAlign=middle;whiteSpace=wrap;rounded=0;fontColor=#0000F0;" parent="1" vertex="1">
          <mxGeometry x="-316.78" y="1014" width="27" height="20" as="geometry" />
        </mxCell>
        <mxCell id="PwznVGh7WyznaAtkqByY-34" value="&lt;b&gt;qakruntime&lt;/b&gt;" style="rounded=0;whiteSpace=wrap;html=1;fillColor=#99FF33;strokeColor=none;" parent="1" vertex="1">
          <mxGeometry x="-31.999999999999982" y="1230" width="99.39" height="26" as="geometry" />
        </mxCell>
        <mxCell id="PwznVGh7WyznaAtkqByY-35" value="" style="endArrow=classic;html=1;rounded=0;strokeWidth=1;strokeColor=#FF0000;dashed=1;entryX=0.434;entryY=0.919;entryDx=0;entryDy=0;entryPerimeter=0;" parent="1" target="PwznVGh7WyznaAtkqByY-1" edge="1">
          <mxGeometry width="50" height="50" relative="1" as="geometry">
            <mxPoint x="13.469999999999999" y="1122" as="sourcePoint" />
            <mxPoint x="13.39" y="1207" as="targetPoint" />
          </mxGeometry>
        </mxCell>
        <mxCell id="PwznVGh7WyznaAtkqByY-37" value="&lt;font style=&quot;font-size: 13px;&quot;&gt;alarm&lt;/font&gt;" style="text;html=1;strokeColor=none;fillColor=none;align=center;verticalAlign=middle;whiteSpace=wrap;rounded=0;fontColor=#FF0000;" parent="1" vertex="1">
          <mxGeometry x="19.43999999999994" y="1151" width="27" height="20" as="geometry" />
        </mxCell>
        <mxCell id="PwznVGh7WyznaAtkqByY-39" value="" style="endArrow=classic;html=1;rounded=0;strokeWidth=1;strokeColor=#0000F0;edgeStyle=orthogonalEdgeStyle;fontColor=#0000F0;entryX=0.929;entryY=0.723;entryDx=0;entryDy=0;entryPerimeter=0;exitX=0.079;exitY=0.159;exitDx=0;exitDy=0;exitPerimeter=0;" parent="1" source="tFofecCMmtv1CYEzfzmN-13" edge="1">
          <mxGeometry width="50" height="50" relative="1" as="geometry">
            <mxPoint x="250" y="750" as="sourcePoint" />
            <mxPoint x="69.92000000000007" y="1063.581" as="targetPoint" />
            <Array as="points">
              <mxPoint x="185" y="750" />
              <mxPoint x="185" y="1064" />
            </Array>
          </mxGeometry>
        </mxCell>
        <mxCell id="PwznVGh7WyznaAtkqByY-41" value="&lt;font style=&quot;font-size: 13px;&quot;&gt;stoptrolley&lt;br&gt;&lt;/font&gt;" style="text;html=1;strokeColor=none;fillColor=none;align=center;verticalAlign=middle;whiteSpace=wrap;rounded=0;fontColor=#0000F0;" parent="1" vertex="1">
          <mxGeometry x="201" y="726.5" width="27" height="20" as="geometry" />
        </mxCell>
        <mxCell id="PwznVGh7WyznaAtkqByY-42" value="" style="endArrow=classic;html=1;rounded=0;strokeWidth=1;strokeColor=#0000F0;edgeStyle=orthogonalEdgeStyle;fontColor=#0000F0;entryX=0.929;entryY=0.837;entryDx=0;entryDy=0;entryPerimeter=0;" parent="1" target="PwznVGh7WyznaAtkqByY-2" edge="1">
          <mxGeometry width="50" height="50" relative="1" as="geometry">
            <mxPoint x="291" y="777" as="sourcePoint" />
            <mxPoint x="92.64000000000007" y="1090.581" as="targetPoint" />
            <Array as="points">
              <mxPoint x="291" y="777" />
              <mxPoint x="208" y="777" />
              <mxPoint x="208" y="1091" />
            </Array>
          </mxGeometry>
        </mxCell>
        <mxCell id="PwznVGh7WyznaAtkqByY-43" value="&lt;font style=&quot;font-size: 13px;&quot;&gt;resumetrolley&lt;br&gt;&lt;/font&gt;" style="text;html=1;strokeColor=none;fillColor=none;align=center;verticalAlign=middle;whiteSpace=wrap;rounded=0;fontColor=#0000F0;" parent="1" vertex="1">
          <mxGeometry x="217.5" y="755" width="27" height="20" as="geometry" />
        </mxCell>
        <mxCell id="PwznVGh7WyznaAtkqByY-44" value="" style="endArrow=classic;html=1;rounded=0;strokeWidth=1;strokeColor=#FF0000;dashed=1;exitX=0.504;exitY=0.934;exitDx=0;exitDy=0;exitPerimeter=0;entryX=0.079;entryY=0.243;entryDx=0;entryDy=0;entryPerimeter=0;" parent="1" source="PwznVGh7WyznaAtkqByY-1" target="tFofecCMmtv1CYEzfzmN-13" edge="1">
          <mxGeometry width="50" height="50" relative="1" as="geometry">
            <mxPoint x="55.08" y="1330" as="sourcePoint" />
            <mxPoint x="201" y="1330" as="targetPoint" />
            <Array as="points">
              <mxPoint x="230" y="1230" />
              <mxPoint x="240" y="1230" />
              <mxPoint x="240" y="790" />
            </Array>
          </mxGeometry>
        </mxCell>
        <mxCell id="PwznVGh7WyznaAtkqByY-48" value="" style="endArrow=classic;html=1;rounded=0;strokeWidth=1;strokeColor=#FF0000;dashed=1;exitX=0.504;exitY=0.942;exitDx=0;exitDy=0;exitPerimeter=0;entryX=0.079;entryY=0.264;entryDx=0;entryDy=0;entryPerimeter=0;" parent="1" source="PwznVGh7WyznaAtkqByY-1" target="tFofecCMmtv1CYEzfzmN-13" edge="1">
          <mxGeometry width="50" height="50" relative="1" as="geometry">
            <mxPoint x="90" y="1235" as="sourcePoint" />
            <mxPoint x="300" y="785" as="targetPoint" />
            <Array as="points">
              <mxPoint x="240" y="1235" />
              <mxPoint x="250" y="1235" />
              <mxPoint x="250" y="800" />
            </Array>
          </mxGeometry>
        </mxCell>
        <mxCell id="PwznVGh7WyznaAtkqByY-51" value="&lt;font style=&quot;font-size: 13px;&quot;&gt;obstacle&lt;/font&gt;" style="text;html=1;strokeColor=none;fillColor=none;align=center;verticalAlign=middle;whiteSpace=wrap;rounded=0;fontColor=#FF0000;" parent="1" vertex="1">
          <mxGeometry x="139.99999999999994" y="1210" width="27" height="20" as="geometry" />
        </mxCell>
        <mxCell id="PwznVGh7WyznaAtkqByY-53" value="&lt;span style=&quot;font-size: 13px;&quot;&gt;free&lt;/span&gt;" style="text;html=1;strokeColor=none;fillColor=none;align=center;verticalAlign=middle;whiteSpace=wrap;rounded=0;fontColor=#FF0000;" parent="1" vertex="1">
          <mxGeometry x="139.99999999999994" y="1233" width="27" height="20" as="geometry" />
        </mxCell>
        <mxCell id="PwznVGh7WyznaAtkqByY-55" value="" style="endArrow=classic;html=1;rounded=0;strokeWidth=1;strokeColor=#0000FF;edgeStyle=orthogonalEdgeStyle;" parent="1" edge="1">
          <mxGeometry width="50" height="50" relative="1" as="geometry">
            <mxPoint y="1027" as="sourcePoint" />
            <mxPoint x="-240" y="943" as="targetPoint" />
            <Array as="points">
              <mxPoint y="943" />
              <mxPoint x="-240" y="943" />
            </Array>
          </mxGeometry>
        </mxCell>
        <mxCell id="PwznVGh7WyznaAtkqByY-58" value="&lt;font style=&quot;font-size: 13px;&quot;&gt;stoptrolley&lt;br&gt;&lt;/font&gt;" style="text;html=1;strokeColor=none;fillColor=none;align=center;verticalAlign=middle;whiteSpace=wrap;rounded=0;fontColor=#0000F0;" parent="1" vertex="1">
          <mxGeometry x="-120" y="924" width="27" height="20" as="geometry" />
        </mxCell>
        <mxCell id="PwznVGh7WyznaAtkqByY-59" value="" style="endArrow=classic;html=1;rounded=0;strokeWidth=1;strokeColor=#0000FF;edgeStyle=orthogonalEdgeStyle;" parent="1" edge="1">
          <mxGeometry width="50" height="50" relative="1" as="geometry">
            <mxPoint x="-13" y="1037" as="sourcePoint" />
            <mxPoint x="-240" y="957" as="targetPoint" />
            <Array as="points">
              <mxPoint x="-13" y="957" />
            </Array>
          </mxGeometry>
        </mxCell>
        <mxCell id="PwznVGh7WyznaAtkqByY-61" value="&lt;font style=&quot;font-size: 13px;&quot;&gt;resumetrolley&lt;br&gt;&lt;/font&gt;" style="text;html=1;strokeColor=none;fillColor=none;align=center;verticalAlign=middle;whiteSpace=wrap;rounded=0;fontColor=#0000F0;" parent="1" vertex="1">
          <mxGeometry x="-119.99999999999997" y="939" width="27" height="20" as="geometry" />
        </mxCell>
        <mxCell id="PwznVGh7WyznaAtkqByY-64" value="" style="endArrow=classic;html=1;rounded=0;strokeWidth=1;strokeColor=#0000F0;edgeStyle=orthogonalEdgeStyle;fontColor=#0000F0;exitX=0.5;exitY=0.973;exitDx=0;exitDy=0;exitPerimeter=0;entryX=0.748;entryY=0.285;entryDx=0;entryDy=0;entryPerimeter=0;" parent="1" source="PwznVGh7WyznaAtkqByY-1" target="tFofecCMmtv1CYEzfzmN-13" edge="1">
          <mxGeometry width="50" height="50" relative="1" as="geometry">
            <mxPoint x="521" y="1343" as="sourcePoint" />
            <mxPoint x="460" y="820" as="targetPoint" />
            <Array as="points">
              <mxPoint x="460" y="1253" />
            </Array>
          </mxGeometry>
        </mxCell>
        <mxCell id="PwznVGh7WyznaAtkqByY-67" value="&lt;font style=&quot;font-size: 13px;&quot;&gt;coapUdpate&lt;/font&gt;" style="text;html=1;strokeColor=none;fillColor=none;align=center;verticalAlign=middle;whiteSpace=wrap;rounded=0;fontColor=#0000F0;" parent="1" vertex="1">
          <mxGeometry x="336.28" y="1230" width="27" height="20" as="geometry" />
        </mxCell>
      </root>
    </mxGraphModel>
  </diagram>
</mxfile>
